URWBookmanL-DemiBoldItal.ufo
<glyph name="exclam" format="1">
  <advance width="320"/>
  <unicode hex="0021"/>
  <outline>
    <contour>
      <point x="239" y="219" type="curve"/>
      <point x="157" y="219" type="line"/>
      <point x="172" y="363"/>
      <point x="172" y="363"/>
      <point x="172" y="417" type="curve" smooth="yes"/>
      <point x="172" y="439"/>
      <point x="171" y="461"/>
      <point x="170" y="486" type="curve" smooth="yes"/>
      <point x="168" y="511"/>
      <point x="167" y="528"/>
      <point x="167" y="536" type="curve" smooth="yes"/>
      <point x="167" y="577"/>
      <point x="174" y="615"/>
      <point x="185" y="635" type="curve" smooth="yes"/>
      <point x="204" y="671"/>
      <point x="243" y="694"/>
      <point x="282" y="694" type="curve" smooth="yes"/>
      <point x="332" y="694"/>
      <point x="366" y="660"/>
      <point x="366" y="611" type="curve" smooth="yes"/>
      <point x="366" y="586"/>
      <point x="359" y="558"/>
      <point x="342" y="517" type="curve" smooth="yes"/>
      <point x="290" y="387" type="line" smooth="yes"/>
      <point x="266" y="326"/>
      <point x="258" y="300"/>
    </contour>
    <contour>
      <point x="183" y="167" type="curve" smooth="yes"/>
      <point x="227" y="167"/>
      <point x="259" y="133"/>
      <point x="259" y="86" type="curve" smooth="yes"/>
      <point x="259" y="34"/>
      <point x="214" y="-13"/>
      <point x="164" y="-13" type="curve" smooth="yes"/>
      <point x="120" y="-13"/>
      <point x="86" y="22"/>
      <point x="86" y="68" type="curve" smooth="yes"/>
      <point x="86" y="121"/>
      <point x="131" y="167"/>
    </contour>
  </outline>
</glyph>
<glyph name="ampersand" format="1">
  <advance width="980"/>
  <unicode hex="0026"/>
  <outline>
    <contour>
      <point x="561" y="54" type="curve"/>
      <point x="552" y="50" type="line"/>
      <point x="485" y="18"/>
      <point x="477" y="14"/>
      <point x="443" y="5" type="curve" smooth="yes"/>
      <point x="398" y="-6"/>
      <point x="352" y="-13"/>
      <point x="313" y="-13" type="curve" smooth="yes"/>
      <point x="242" y="-13"/>
      <point x="173" y="7"/>
      <point x="123" y="42" type="curve" smooth="yes"/>
      <point x="75" y="75"/>
      <point x="48" y="130"/>
      <point x="48" y="193" type="curve" smooth="yes"/>
      <point x="48" y="261"/>
      <point x="79" y="322"/>
      <point x="134" y="361" type="curve" smooth="yes"/>
      <point x="167" y="384"/>
      <point x="198" y="394"/>
      <point x="264" y="403" type="curve"/>
      <point x="207" y="421"/>
      <point x="183" y="452"/>
      <point x="183" y="505" type="curve" smooth="yes"/>
      <point x="183" y="612"/>
      <point x="290" y="694"/>
      <point x="432" y="694" type="curve" smooth="yes"/>
      <point x="550" y="694"/>
      <point x="627" y="643"/>
      <point x="627" y="564" type="curve" smooth="yes"/>
      <point x="627" y="516"/>
      <point x="599" y="469"/>
      <point x="554" y="441" type="curve" smooth="yes"/>
      <point x="527" y="425"/>
      <point x="505" y="416"/>
      <point x="461" y="403" type="curve"/>
      <point x="564" y="355"/>
      <point x="595" y="322"/>
      <point x="639" y="217" type="curve"/>
      <point x="647" y="200" type="line"/>
      <point x="721" y="257"/>
      <point x="781" y="352"/>
      <point x="781" y="413" type="curve" smooth="yes"/>
      <point x="781" y="427"/>
      <point x="776" y="436"/>
      <point x="764" y="449" type="curve" smooth="yes"/>
      <point x="733" y="480"/>
      <point x="726" y="495"/>
      <point x="726" y="524" type="curve" smooth="yes"/>
      <point x="726" y="573"/>
      <point x="761" y="612"/>
      <point x="806" y="612" type="curve" smooth="yes"/>
      <point x="859" y="612"/>
      <point x="898" y="558"/>
      <point x="898" y="485" type="curve" smooth="yes"/>
      <point x="898" y="372"/>
      <point x="810" y="225"/>
      <point x="690" y="138" type="curve"/>
      <point x="735" y="99"/>
      <point x="769" y="83"/>
      <point x="809" y="83" type="curve" smooth="yes"/>
      <point x="833" y="83"/>
      <point x="858" y="92"/>
      <point x="869" y="104" type="curve" smooth="yes"/>
      <point x="878" y="113"/>
      <point x="879" y="118"/>
      <point x="882" y="145" type="curve" smooth="yes"/>
      <point x="886" y="191"/>
      <point x="917" y="224"/>
      <point x="955" y="224" type="curve" smooth="yes"/>
      <point x="989" y="224"/>
      <point x="1016" y="198"/>
      <point x="1016" y="165" type="curve" smooth="yes"/>
      <point x="1016" y="72"/>
      <point x="898" y="-13"/>
      <point x="768" y="-13" type="curve" smooth="yes"/>
      <point x="720" y="-13"/>
      <point x="664" y="-1"/>
      <point x="628" y="16" type="curve" smooth="yes"/>
      <point x="614" y="23"/>
      <point x="597" y="32"/>
    </contour>
    <contour>
      <point x="428" y="624" type="curve" smooth="yes"/>
      <point x="399" y="624"/>
      <point x="378" y="611"/>
      <point x="360" y="580" type="curve" smooth="yes"/>
      <point x="348" y="559"/>
      <point x="341" y="535"/>
      <point x="341" y="511" type="curve" smooth="yes"/>
      <point x="341" y="471"/>
      <point x="363" y="445"/>
      <point x="397" y="445" type="curve" smooth="yes"/>
      <point x="426" y="445"/>
      <point x="451" y="463"/>
      <point x="468" y="498" type="curve" smooth="yes"/>
      <point x="478" y="519"/>
      <point x="485" y="545"/>
      <point x="485" y="564" type="curve" smooth="yes"/>
      <point x="485" y="600"/>
      <point x="463" y="624"/>
    </contour>
    <contour>
      <point x="509" y="113" type="curve"/>
      <point x="502" y="120" type="line" smooth="yes"/>
      <point x="475" y="148"/>
      <point x="459" y="171"/>
      <point x="438" y="211" type="curve" smooth="yes"/>
      <point x="405" y="275"/>
      <point x="390" y="296"/>
      <point x="368" y="312" type="curve" smooth="yes"/>
      <point x="347" y="328"/>
      <point x="325" y="336"/>
      <point x="306" y="336" type="curve" smooth="yes"/>
      <point x="258" y="336"/>
      <point x="221" y="295"/>
      <point x="221" y="241" type="curve" smooth="yes"/>
      <point x="221" y="155"/>
      <point x="300" y="83"/>
      <point x="394" y="83" type="curve" smooth="yes"/>
      <point x="428" y="83"/>
      <point x="458" y="91"/>
    </contour>
  </outline>
</glyph>
<glyph name="quotesingle" format="1">
  <advance width="180"/>
  <unicode hex="0027"/>
  <outline>
    <contour>
      <point x="170" y="352" type="line"/>
      <point x="126" y="365" type="line"/>
      <point x="138" y="592" type="line" smooth="yes"/>
      <point x="139" y="601"/>
      <point x="139" y="608"/>
      <point x="139" y="613" type="curve" smooth="yes"/>
      <point x="141" y="660"/>
      <point x="163" y="681"/>
      <point x="207" y="681" type="curve" smooth="yes"/>
      <point x="260" y="681"/>
      <point x="295" y="651"/>
      <point x="295" y="606" type="curve" smooth="yes"/>
      <point x="295" y="590"/>
      <point x="291" y="576"/>
      <point x="283" y="561" type="curve" smooth="yes"/>
    </contour>
  </outline>
</glyph>
<glyph name="parenright" format="1">
  <advance width="260"/>
  <unicode hex="0029"/>
  <outline>
    <contour>
      <point x="-35" y="-145" type="curve"/>
      <point x="-22" y="-72" type="line"/>
      <point x="18" y="-66"/>
      <point x="47" y="-39"/>
      <point x="73" y="16" type="curve" smooth="yes"/>
      <point x="122" y="118"/>
      <point x="179" y="395"/>
      <point x="179" y="532" type="curve" smooth="yes"/>
      <point x="179" y="592"/>
      <point x="158" y="624"/>
      <point x="107" y="640" type="curve"/>
      <point x="120" y="710" type="line"/>
      <point x="163" y="710"/>
      <point x="183" y="707"/>
      <point x="210" y="697" type="curve" smooth="yes"/>
      <point x="278" y="671"/>
      <point x="322" y="597"/>
      <point x="322" y="509" type="curve" smooth="yes"/>
      <point x="322" y="445"/>
      <point x="299" y="299"/>
      <point x="268" y="165" type="curve" smooth="yes"/>
      <point x="237" y="33"/>
      <point x="197" y="-43"/>
      <point x="132" y="-94" type="curve" smooth="yes"/>
      <point x="89" y="-128"/>
      <point x="27" y="-148"/>
      <point x="-21" y="-145" type="curve" smooth="yes"/>
      <point x="-28" y="-144"/>
      <point x="-33" y="-145"/>
    </contour>
  </outline>
</glyph>
<glyph name="plus" format="1">
  <advance width="600"/>
  <unicode hex="002B"/>
  <outline>
    <contour>
      <point x="595" y="293" type="line"/>
      <point x="401" y="293" type="line"/>
      <point x="401" y="107" type="line"/>
      <point x="285" y="107" type="line"/>
      <point x="285" y="293" type="line"/>
      <point x="91" y="293" type="line"/>
      <point x="91" y="407" type="line"/>
      <point x="285" y="407" type="line"/>
      <point x="285" y="593" type="line"/>
      <point x="401" y="593" type="line"/>
      <point x="401" y="407" type="line"/>
      <point x="595" y="407" type="line"/>
    </contour>
  </outline>
</glyph>
<glyph name="comma" format="1">
  <advance width="340"/>
  <unicode hex="002C"/>
  <outline>
    <contour>
      <point x="139" y="-130" type="curve"/>
      <point x="101" y="-94" type="line"/>
      <point x="141" y="-59"/>
      <point x="174" y="-23"/>
      <point x="181" y="-6" type="curve"/>
      <point x="174" y="-7"/>
      <point x="171" y="-7"/>
      <point x="166" y="-7" type="curve" smooth="yes"/>
      <point x="126" y="-7"/>
      <point x="100" y="20"/>
      <point x="100" y="64" type="curve" smooth="yes"/>
      <point x="100" y="124"/>
      <point x="157" y="179"/>
      <point x="219" y="179" type="curve" smooth="yes"/>
      <point x="266" y="179"/>
      <point x="298" y="146"/>
      <point x="298" y="98" type="curve" smooth="yes"/>
      <point x="298" y="24"/>
      <point x="236" y="-66"/>
    </contour>
  </outline>
</glyph>
<glyph name="hyphen" format="1">
  <advance width="280"/>
  <unicode hex="002D"/>
  <outline>
    <contour>
      <point x="93" y="314" type="line"/>
      <point x="319" y="314" type="line"/>
      <point x="286" y="224" type="line"/>
      <point x="59" y="224" type="line"/>
    </contour>
  </outline>
</glyph>
<glyph name="period" format="1">
  <advance width="340"/>
  <unicode hex="002E"/>
  <outline>
    <contour>
      <point x="221" y="172" type="curve" smooth="yes"/>
      <point x="264" y="172"/>
      <point x="296" y="139"/>
      <point x="296" y="94" type="curve" smooth="yes"/>
      <point x="296" y="39"/>
      <point x="242" y="-13"/>
      <point x="184" y="-13" type="curve" smooth="yes"/>
      <point x="140" y="-13"/>
      <point x="106" y="19"/>
      <point x="106" y="60" type="curve" smooth="yes"/>
      <point x="106" y="120"/>
      <point x="160" y="172"/>
    </contour>
  </outline>
</glyph>
<glyph name="slash" format="1">
  <advance width="360"/>
  <unicode hex="002F"/>
  <outline>
    <contour>
      <point x="502" y="710" type="line"/>
      <point x="145" y="-145" type="line"/>
      <point x="9" y="-145" type="line"/>
      <point x="368" y="710" type="line"/>
    </contour>
  </outline>
</glyph>
<glyph name="five" format="1">
  <advance width="680"/>
  <unicode hex="0035"/>
  <outline>
    <contour>
      <point x="291" y="548" type="line"/>
      <point x="262" y="431" type="line"/>
      <point x="310" y="459"/>
      <point x="374" y="475"/>
      <point x="440" y="475" type="curve" smooth="yes"/>
      <point x="575" y="475"/>
      <point x="669" y="393"/>
      <point x="669" y="274" type="curve" smooth="yes"/>
      <point x="669" y="189"/>
      <point x="625" y="103"/>
      <point x="555" y="54" type="curve" smooth="yes"/>
      <point x="494" y="11"/>
      <point x="409" y="-13"/>
      <point x="318" y="-13" type="curve" smooth="yes"/>
      <point x="178" y="-13"/>
      <point x="78" y="49"/>
      <point x="78" y="135" type="curve" smooth="yes"/>
      <point x="78" y="194"/>
      <point x="122" y="240"/>
      <point x="177" y="240" type="curve" smooth="yes"/>
      <point x="222" y="240"/>
      <point x="258" y="209"/>
      <point x="258" y="170" type="curve" smooth="yes"/>
      <point x="258" y="157"/>
      <point x="254" y="143"/>
      <point x="243" y="121" type="curve" smooth="yes"/>
      <point x="242" y="118"/>
      <point x="241" y="114"/>
      <point x="241" y="111" type="curve" smooth="yes"/>
      <point x="241" y="91"/>
      <point x="272" y="75"/>
      <point x="311" y="75" type="curve" smooth="yes"/>
      <point x="402" y="75"/>
      <point x="472" y="156"/>
      <point x="472" y="261" type="curve" smooth="yes"/>
      <point x="472" y="334"/>
      <point x="430" y="383"/>
      <point x="367" y="383" type="curve" smooth="yes"/>
      <point x="313" y="383"/>
      <point x="256" y="350"/>
      <point x="214" y="294" type="curve"/>
      <point x="141" y="319" type="line"/>
      <point x="221" y="681" type="line"/>
      <point x="669" y="681" type="line"/>
      <point x="626" y="548" type="line"/>
    </contour>
  </outline>
</glyph>
<glyph name="six" format="1">
  <advance width="680"/>
  <unicode hex="0036"/>
  <outline>
    <contour>
      <point x="271" y="392" type="curve"/>
      <point x="331" y="432"/>
      <point x="385" y="448"/>
      <point x="459" y="448" type="curve" smooth="yes"/>
      <point x="592" y="448"/>
      <point x="681" y="370"/>
      <point x="681" y="253" type="curve" smooth="yes"/>
      <point x="681" y="103"/>
      <point x="540" y="-13"/>
      <point x="359" y="-13" type="curve" smooth="yes"/>
      <point x="280" y="-13"/>
      <point x="205" y="11"/>
      <point x="160" y="51" type="curve" smooth="yes"/>
      <point x="113" y="93"/>
      <point x="88" y="161"/>
      <point x="88" y="246" type="curve" smooth="yes"/>
      <point x="88" y="355"/>
      <point x="122" y="472"/>
      <point x="176" y="552" type="curve" smooth="yes"/>
      <point x="236" y="641"/>
      <point x="348" y="694"/>
      <point x="475" y="694" type="curve" smooth="yes"/>
      <point x="603" y="694"/>
      <point x="704" y="640"/>
      <point x="704" y="571" type="curve" smooth="yes"/>
      <point x="704" y="524"/>
      <point x="664" y="484"/>
      <point x="617" y="484" type="curve" smooth="yes"/>
      <point x="595" y="484"/>
      <point x="574" y="493"/>
      <point x="561" y="507" type="curve" smooth="yes"/>
      <point x="550" y="519"/>
      <point x="546" y="531"/>
      <point x="544" y="560" type="curve" smooth="yes"/>
      <point x="542" y="584"/>
      <point x="541" y="586"/>
      <point x="529" y="592" type="curve" smooth="yes"/>
      <point x="514" y="600"/>
      <point x="487" y="606"/>
      <point x="465" y="606" type="curve" smooth="yes"/>
      <point x="389" y="606"/>
      <point x="329" y="557"/>
      <point x="293" y="469" type="curve" smooth="yes"/>
      <point x="282" y="442"/>
      <point x="282" y="440"/>
    </contour>
    <contour>
      <point x="404" y="360" type="curve" smooth="yes"/>
      <point x="316" y="360"/>
      <point x="251" y="287"/>
      <point x="251" y="188" type="curve" smooth="yes"/>
      <point x="251" y="118"/>
      <point x="294" y="75"/>
      <point x="364" y="75" type="curve" smooth="yes"/>
      <point x="453" y="75"/>
      <point x="513" y="146"/>
      <point x="513" y="249" type="curve" smooth="yes"/>
      <point x="513" y="320"/>
      <point x="474" y="360"/>
    </contour>
  </outline>
</glyph>
<glyph name="seven" format="1">
  <advance width="680"/>
  <unicode hex="0037"/>
  <outline>
    <contour>
      <point x="739" y="681" type="line"/>
      <point x="736" y="590" type="line"/>
      <point x="540" y="355"/>
      <point x="473" y="222"/>
      <point x="437" y="0" type="curve"/>
      <point x="236" y="0" type="line"/>
      <point x="251" y="63"/>
      <point x="280" y="133"/>
      <point x="322" y="207" type="curve" smooth="yes"/>
      <point x="369" y="288"/>
      <point x="418" y="355"/>
      <point x="466" y="406" type="curve" smooth="yes"/>
      <point x="588" y="537" type="line" smooth="yes"/>
      <point x="592" y="540"/>
      <point x="595" y="544"/>
      <point x="598" y="548" type="curve"/>
      <point x="357" y="548" type="line" smooth="yes"/>
      <point x="313" y="548"/>
      <point x="294" y="546"/>
      <point x="278" y="540" type="curve" smooth="yes"/>
      <point x="254" y="530"/>
      <point x="228" y="500"/>
      <point x="197" y="446" type="curve"/>
      <point x="123" y="466" type="line"/>
      <point x="191" y="681" type="line"/>
    </contour>
  </outline>
</glyph>
<glyph name="nine" format="1">
  <advance width="680"/>
  <unicode hex="0039"/>
  <outline>
    <contour>
      <point x="521" y="294" type="curve"/>
      <point x="450" y="251"/>
      <point x="397" y="235"/>
      <point x="325" y="235" type="curve" smooth="yes"/>
      <point x="197" y="235"/>
      <point x="115" y="305"/>
      <point x="115" y="415" type="curve" smooth="yes"/>
      <point x="115" y="569"/>
      <point x="268" y="694"/>
      <point x="455" y="694" type="curve" smooth="yes"/>
      <point x="541" y="694"/>
      <point x="613" y="668"/>
      <point x="655" y="623" type="curve" smooth="yes"/>
      <point x="693" y="582"/>
      <point x="712" y="522"/>
      <point x="712" y="441" type="curve" smooth="yes"/>
      <point x="712" y="302"/>
      <point x="657" y="169"/>
      <point x="566" y="87" type="curve" smooth="yes"/>
      <point x="493" y="20"/>
      <point x="399" y="-13"/>
      <point x="287" y="-13" type="curve" smooth="yes"/>
      <point x="158" y="-13"/>
      <point x="71" y="32"/>
      <point x="71" y="99" type="curve" smooth="yes"/>
      <point x="71" y="147"/>
      <point x="114" y="188"/>
      <point x="163" y="188" type="curve" smooth="yes"/>
      <point x="208" y="188"/>
      <point x="230" y="162"/>
      <point x="234" y="106" type="curve" smooth="yes"/>
      <point x="235" y="94"/>
      <point x="237" y="90"/>
      <point x="247" y="85" type="curve" smooth="yes"/>
      <point x="263" y="78"/>
      <point x="283" y="75"/>
      <point x="307" y="75" type="curve" smooth="yes"/>
      <point x="376" y="75"/>
      <point x="435" y="105"/>
      <point x="467" y="157" type="curve" smooth="yes"/>
      <point x="490" y="194"/>
      <point x="503" y="229"/>
    </contour>
    <contour>
      <point x="443" y="606" type="curve" smooth="yes"/>
      <point x="355" y="606"/>
      <point x="288" y="533"/>
      <point x="288" y="436" type="curve" smooth="yes"/>
      <point x="288" y="367"/>
      <point x="321" y="331"/>
      <point x="385" y="331" type="curve" smooth="yes"/>
      <point x="473" y="331"/>
      <point x="544" y="406"/>
      <point x="544" y="500" type="curve" smooth="yes"/>
      <point x="544" y="566"/>
      <point x="506" y="606"/>
    </contour>
  </outline>
</glyph>
<glyph name="colon" format="1">
  <advance width="340"/>
  <unicode hex="003A"/>
  <outline>
    <contour>
      <point x="281" y="520" type="curve" smooth="yes"/>
      <point x="324" y="520"/>
      <point x="356" y="487"/>
      <point x="356" y="442" type="curve" smooth="yes"/>
      <point x="356" y="387"/>
      <point x="302" y="335"/>
      <point x="244" y="335" type="curve" smooth="yes"/>
      <point x="200" y="335"/>
      <point x="166" y="367"/>
      <point x="166" y="408" type="curve" smooth="yes"/>
      <point x="166" y="468"/>
      <point x="220" y="520"/>
    </contour>
    <contour>
      <point x="221" y="172" type="curve" smooth="yes"/>
      <point x="264" y="172"/>
      <point x="296" y="139"/>
      <point x="296" y="94" type="curve" smooth="yes"/>
      <point x="296" y="39"/>
      <point x="242" y="-13"/>
      <point x="184" y="-13" type="curve" smooth="yes"/>
      <point x="140" y="-13"/>
      <point x="106" y="19"/>
      <point x="106" y="60" type="curve" smooth="yes"/>
      <point x="106" y="120"/>
      <point x="160" y="172"/>
    </contour>
  </outline>
</glyph>
<glyph name="equal" format="1">
  <advance width="600"/>
  <unicode hex="003D"/>
  <outline>
    <contour>
      <point x="595" y="388" type="line"/>
      <point x="91" y="388" type="line"/>
      <point x="91" y="502" type="line"/>
      <point x="595" y="502" type="line"/>
    </contour>
    <contour>
      <point x="595" y="198" type="line"/>
      <point x="91" y="198" type="line"/>
      <point x="91" y="312" type="line"/>
      <point x="595" y="312" type="line"/>
    </contour>
  </outline>
</glyph>
<glyph name="A" format="1">
  <advance width="720"/>
  <unicode hex="0041"/>
  <outline>
    <contour>
      <point x="564" y="681" type="line"/>
      <point x="680" y="178" type="line" smooth="yes"/>
      <point x="691" y="134"/>
      <point x="696" y="119"/>
      <point x="701" y="112" type="curve" smooth="yes"/>
      <point x="712" y="95"/>
      <point x="715" y="94"/>
      <point x="757" y="84" type="curve" smooth="yes"/>
      <point x="759" y="84"/>
      <point x="764" y="82"/>
      <point x="769" y="81" type="curve"/>
      <point x="754" y="0" type="line"/>
      <point x="402" y="0" type="line"/>
      <point x="417" y="81" type="line"/>
      <point x="431" y="83" type="line"/>
      <point x="450" y="85" type="line"/>
      <point x="493" y="91"/>
      <point x="507" y="99"/>
      <point x="507" y="119" type="curve" smooth="yes"/>
      <point x="507" y="128"/>
      <point x="504" y="146"/>
      <point x="500" y="165" type="curve" smooth="yes"/>
      <point x="484" y="242" type="line"/>
      <point x="262" y="242" type="line"/>
      <point x="216" y="155" type="line" smooth="yes"/>
      <point x="201" y="126"/>
      <point x="200" y="125"/>
      <point x="200" y="113" type="curve" smooth="yes"/>
      <point x="200" y="96"/>
      <point x="217" y="88"/>
      <point x="258" y="83" type="curve" smooth="yes"/>
      <point x="277" y="81" type="line"/>
      <point x="262" y="0" type="line"/>
      <point x="-27" y="0" type="line"/>
      <point x="-12" y="81" type="line"/>
      <point x="55" y="97"/>
      <point x="86" y="120"/>
      <point x="116" y="177" type="curve"/>
      <point x="124" y="190"/>
      <point x="130" y="202"/>
      <point x="135" y="210" type="curve" smooth="yes"/>
      <point x="413" y="681" type="line"/>
    </contour>
    <contour>
      <point x="469" y="320" type="line"/>
      <point x="428" y="538" type="line"/>
      <point x="305" y="320" type="line"/>
    </contour>
  </outline>
</glyph>
<glyph name="G" format="1">
  <advance width="760"/>
  <unicode hex="0047"/>
  <outline>
    <contour>
      <point x="726" y="681" type="line"/>
      <point x="768" y="436" type="line"/>
      <point x="694" y="423" type="line"/>
      <point x="690" y="431" type="line"/>
      <point x="646" y="514"/>
      <point x="629" y="536"/>
      <point x="586" y="565" type="curve"/>
      <point x="553" y="586"/>
      <point x="518" y="598"/>
      <point x="484" y="598" type="curve" smooth="yes"/>
      <point x="364" y="598"/>
      <point x="264" y="449"/>
      <point x="264" y="269" type="curve" smooth="yes"/>
      <point x="264" y="154"/>
      <point x="319" y="83"/>
      <point x="409" y="83" type="curve" smooth="yes"/>
      <point x="492" y="83"/>
      <point x="567" y="145"/>
      <point x="567" y="212" type="curve" smooth="yes"/>
      <point x="567" y="231"/>
      <point x="560" y="246"/>
      <point x="547" y="254" type="curve" smooth="yes"/>
      <point x="537" y="260"/>
      <point x="535" y="260"/>
      <point x="503" y="266" type="curve" smooth="yes"/>
      <point x="492" y="268" type="line"/>
      <point x="506" y="349" type="line"/>
      <point x="828" y="349" type="line"/>
      <point x="813" y="268" type="line"/>
      <point x="794" y="264" type="line"/>
      <point x="743" y="252"/>
      <point x="732" y="240"/>
      <point x="724" y="192" type="curve" smooth="yes"/>
      <point x="689" y="0" type="line"/>
      <point x="580" y="0" type="line"/>
      <point x="569" y="51" type="line"/>
      <point x="512" y="9"/>
      <point x="441" y="-13"/>
      <point x="364" y="-13" type="curve" smooth="yes"/>
      <point x="192" y="-13"/>
      <point x="77" y="104"/>
      <point x="77" y="278" type="curve" smooth="yes"/>
      <point x="77" y="505"/>
      <point x="253" y="694"/>
      <point x="465" y="694" type="curve" smooth="yes"/>
      <point x="531" y="694"/>
      <point x="582" y="680"/>
      <point x="652" y="641" type="curve"/>
      <point x="671" y="681" type="line"/>
    </contour>
  </outline>
</glyph>
<glyph name="Q" format="1">
  <advance width="760"/>
  <unicode hex="0051"/>
  <outline>
    <contour>
      <point x="699" y="114" type="curve"/>
      <point x="712" y="93"/>
      <point x="720" y="62"/>
      <point x="720" y="30" type="curve" smooth="yes"/>
      <point x="720" y="-116"/>
      <point x="567" y="-218"/>
      <point x="348" y="-218" type="curve" smooth="yes"/>
      <point x="248" y="-218"/>
      <point x="158" y="-195"/>
      <point x="101" y="-154" type="curve" smooth="yes"/>
      <point x="58" y="-122"/>
      <point x="37" y="-91"/>
      <point x="37" y="-56" type="curve" smooth="yes"/>
      <point x="37" y="-16"/>
      <point x="73" y="18"/>
      <point x="116" y="18" type="curve" smooth="yes"/>
      <point x="147" y="18"/>
      <point x="176" y="-1"/>
      <point x="183" y="-28" type="curve" smooth="yes"/>
      <point x="186" y="-37"/>
      <point x="187" y="-51"/>
      <point x="188" y="-70" type="curve" smooth="yes"/>
      <point x="188" y="-82"/>
      <point x="190" y="-88"/>
      <point x="201" y="-96" type="curve" smooth="yes"/>
      <point x="224" y="-115"/>
      <point x="291" y="-130"/>
      <point x="351" y="-130" type="curve" smooth="yes"/>
      <point x="473" y="-130"/>
      <point x="567" y="-75"/>
      <point x="567" y="-4" type="curve" smooth="yes"/>
      <point x="567" y="4"/>
      <point x="566" y="8"/>
      <point x="563" y="16" type="curve"/>
      <point x="485" y="-8"/>
      <point x="453" y="-13"/>
      <point x="393" y="-13" type="curve" smooth="yes"/>
      <point x="205" y="-13"/>
      <point x="78" y="108"/>
      <point x="78" y="289" type="curve" smooth="yes"/>
      <point x="78" y="513"/>
      <point x="261" y="694"/>
      <point x="489" y="694" type="curve" smooth="yes"/>
      <point x="675" y="694"/>
      <point x="805" y="571"/>
      <point x="805" y="396" type="curve" smooth="yes"/>
      <point x="805" y="293"/>
      <point x="763" y="182"/>
    </contour>
    <contour>
      <point x="577" y="208" type="curve"/>
      <point x="604" y="278"/>
      <point x="618" y="346"/>
      <point x="618" y="411" type="curve" smooth="yes"/>
      <point x="618" y="526"/>
      <point x="565" y="602"/>
      <point x="484" y="602" type="curve" smooth="yes"/>
      <point x="362" y="602"/>
      <point x="265" y="452"/>
      <point x="265" y="263" type="curve" smooth="yes"/>
      <point x="265" y="190"/>
      <point x="282" y="143"/>
      <point x="319" y="109" type="curve"/>
      <point x="317" y="117"/>
      <point x="317" y="121"/>
      <point x="317" y="125" type="curve" smooth="yes"/>
      <point x="317" y="184"/>
      <point x="380" y="225"/>
      <point x="472" y="225" type="curve" smooth="yes"/>
      <point x="508" y="225"/>
      <point x="548" y="219"/>
    </contour>
    <contour>
      <point x="500" y="99" type="curve"/>
      <point x="499" y="100"/>
      <point x="499" y="100"/>
      <point x="497" y="101" type="curve" smooth="yes"/>
      <point x="479" y="116"/>
      <point x="449" y="125"/>
      <point x="421" y="125" type="curve" smooth="yes"/>
      <point x="393" y="125"/>
      <point x="375" y="116"/>
      <point x="375" y="101" type="curve" smooth="yes"/>
      <point x="375" y="86"/>
      <point x="395" y="75"/>
      <point x="424" y="75" type="curve" smooth="yes"/>
      <point x="447" y="75"/>
      <point x="473" y="83"/>
    </contour>
  </outline>
</glyph>
<glyph name="V" format="1">
  <advance width="660"/>
  <unicode hex="0056"/>
  <outline>
    <contour>
      <point x="274" y="0" type="line"/>
      <point x="168" y="512" type="line" smooth="yes"/>
      <point x="154" y="577"/>
      <point x="147" y="585"/>
      <point x="80" y="598" type="curve" smooth="yes"/>
      <point x="79" y="598"/>
      <point x="76" y="599"/>
      <point x="72" y="600" type="curve"/>
      <point x="87" y="681" type="line"/>
      <point x="442" y="681" type="line"/>
      <point x="428" y="600" type="line"/>
      <point x="353" y="597"/>
      <point x="339" y="591"/>
      <point x="339" y="563" type="curve" smooth="yes"/>
      <point x="339" y="556"/>
      <point x="340" y="545"/>
      <point x="342" y="537" type="curve" smooth="yes"/>
      <point x="405" y="183" type="line"/>
      <point x="575" y="506" type="line"/>
      <point x="597" y="545"/>
      <point x="602" y="557"/>
      <point x="602" y="568" type="curve" smooth="yes"/>
      <point x="602" y="585"/>
      <point x="588" y="591"/>
      <point x="531" y="600" type="curve"/>
      <point x="546" y="681" type="line"/>
      <point x="819" y="681" type="line"/>
      <point x="804" y="600" type="line"/>
      <point x="739" y="592"/>
      <point x="715" y="575"/>
      <point x="671" y="499" type="curve"/>
      <point x="396" y="0" type="line"/>
    </contour>
  </outline>
</glyph>
<glyph name="X" format="1">
  <advance width="740"/>
  <unicode hex="0058"/>
  <outline>
    <contour>
      <point x="523" y="363" type="line"/>
      <point x="627" y="180" type="line"/>
      <point x="667" y="115"/>
      <point x="705" y="88"/>
      <point x="766" y="81" type="curve"/>
      <point x="751" y="0" type="line"/>
      <point x="375" y="0" type="line"/>
      <point x="390" y="81" type="line"/>
      <point x="444" y="85"/>
      <point x="455" y="89"/>
      <point x="455" y="103" type="curve" smooth="yes"/>
      <point x="455" y="110"/>
      <point x="450" y="122"/>
      <point x="440" y="143" type="curve" smooth="yes"/>
      <point x="374" y="269" type="line"/>
      <point x="270" y="150" type="line" smooth="yes"/>
      <point x="251" y="129"/>
      <point x="245" y="118"/>
      <point x="245" y="108" type="curve" smooth="yes"/>
      <point x="245" y="94"/>
      <point x="258" y="88"/>
      <point x="303" y="82" type="curve"/>
      <point x="314" y="81" type="line"/>
      <point x="299" y="0" type="line"/>
      <point x="-7" y="0" type="line"/>
      <point x="8" y="81" type="line"/>
      <point x="94" y="102"/>
      <point x="104" y="108"/>
      <point x="182" y="186" type="curve"/>
      <point x="326" y="348" type="line"/>
      <point x="241" y="500" type="line"/>
      <point x="194" y="575"/>
      <point x="179" y="588"/>
      <point x="127" y="597" type="curve" smooth="yes"/>
      <point x="125" y="598"/>
      <point x="120" y="599"/>
      <point x="115" y="600" type="curve"/>
      <point x="130" y="681" type="line"/>
      <point x="487" y="681" type="line"/>
      <point x="473" y="600" type="line"/>
      <point x="423" y="598"/>
      <point x="406" y="592"/>
      <point x="406" y="576" type="curve" smooth="yes"/>
      <point x="406" y="568"/>
      <point x="412" y="553"/>
      <point x="422" y="534" type="curve" smooth="yes"/>
      <point x="473" y="442" type="line"/>
      <point x="568" y="550" type="line" smooth="yes"/>
      <point x="581" y="564"/>
      <point x="585" y="572"/>
      <point x="585" y="579" type="curve" smooth="yes"/>
      <point x="585" y="594"/>
      <point x="575" y="597"/>
      <point x="523" y="600" type="curve"/>
      <point x="537" y="681" type="line"/>
      <point x="835" y="681" type="line"/>
      <point x="820" y="600" type="line"/>
      <point x="754" y="593"/>
      <point x="701" y="563"/>
      <point x="641" y="497" type="curve"/>
    </contour>
  </outline>
</glyph>
<glyph name="bracketleft" format="1">
  <advance width="260"/>
  <unicode hex="005B"/>
  <outline>
    <contour>
      <point x="374" y="710" type="line"/>
      <point x="360" y="632" type="line"/>
      <point x="318" y="632" type="line" smooth="yes"/>
      <point x="284" y="632"/>
      <point x="282" y="630"/>
      <point x="276" y="598" type="curve" smooth="yes"/>
      <point x="165" y="-14" type="line" smooth="yes"/>
      <point x="163" y="-25"/>
      <point x="161" y="-40"/>
      <point x="161" y="-45" type="curve" smooth="yes"/>
      <point x="161" y="-62"/>
      <point x="169" y="-67"/>
      <point x="195" y="-67" type="curve" smooth="yes"/>
      <point x="233" y="-67" type="line"/>
      <point x="219" y="-145" type="line"/>
      <point x="9" y="-145" type="line"/>
      <point x="164" y="710" type="line"/>
    </contour>
  </outline>
</glyph>
<glyph name="bracketright" format="1">
  <advance width="260"/>
  <unicode hex="005D"/>
  <outline>
    <contour>
      <point x="-18" y="-145" type="line"/>
      <point x="-4" y="-67" type="line"/>
      <point x="38" y="-67" type="line" smooth="yes"/>
      <point x="72" y="-67"/>
      <point x="74" y="-65"/>
      <point x="80" y="-33" type="curve" smooth="yes"/>
      <point x="191" y="579" type="line" smooth="yes"/>
      <point x="193" y="590"/>
      <point x="195" y="605"/>
      <point x="195" y="610" type="curve" smooth="yes"/>
      <point x="195" y="627"/>
      <point x="187" y="632"/>
      <point x="161" y="632" type="curve" smooth="yes"/>
      <point x="123" y="632" type="line"/>
      <point x="137" y="710" type="line"/>
      <point x="347" y="710" type="line"/>
      <point x="192" y="-145" type="line"/>
    </contour>
  </outline>
</glyph>
<glyph name="b" format="1">
  <advance width="600"/>
  <unicode hex="0062"/>
  <outline>
    <contour>
      <point x="328" y="732" type="line"/>
      <point x="276" y="447" type="line"/>
      <point x="310" y="494"/>
      <point x="364" y="520"/>
      <point x="427" y="520" type="curve" smooth="yes"/>
      <point x="546" y="520"/>
      <point x="633" y="429"/>
      <point x="633" y="305" type="curve" smooth="yes"/>
      <point x="633" y="143"/>
      <point x="490" y="-9"/>
      <point x="337" y="-9" type="curve" smooth="yes"/>
      <point x="295" y="-9"/>
      <point x="250" y="6"/>
      <point x="201" y="35" type="curve"/>
      <point x="195" y="0" type="line"/>
      <point x="57" y="0" type="line"/>
      <point x="155" y="539" type="line" smooth="yes"/>
      <point x="158" y="556"/>
      <point x="160" y="571"/>
      <point x="160" y="577" type="curve" smooth="yes"/>
      <point x="160" y="585"/>
      <point x="157" y="593"/>
      <point x="154" y="596" type="curve" smooth="yes"/>
      <point x="145" y="604"/>
      <point x="119" y="612"/>
      <point x="102" y="612" type="curve" smooth="yes"/>
      <point x="91" y="612" type="line"/>
      <point x="106" y="694" type="line"/>
      <point x="172" y="694"/>
      <point x="241" y="708"/>
      <point x="295" y="732" type="curve"/>
    </contour>
    <contour>
      <point x="235" y="110" type="curve"/>
      <point x="236" y="109"/>
      <point x="237" y="108"/>
      <point x="238" y="108" type="curve" smooth="yes"/>
      <point x="254" y="91"/>
      <point x="280" y="79"/>
      <point x="303" y="79" type="curve" smooth="yes"/>
      <point x="332" y="79"/>
      <point x="366" y="94"/>
      <point x="386" y="116" type="curve" smooth="yes"/>
      <point x="433" y="165"/>
      <point x="465" y="255"/>
      <point x="465" y="333" type="curve" smooth="yes"/>
      <point x="465" y="388"/>
      <point x="437" y="424"/>
      <point x="395" y="424" type="curve" smooth="yes"/>
      <point x="365" y="424"/>
      <point x="337" y="406"/>
      <point x="315" y="374" type="curve" smooth="yes"/>
      <point x="274" y="313"/>
      <point x="253" y="246"/>
    </contour>
  </outline>
</glyph>
<glyph name="h" format="1">
  <advance width="700"/>
  <unicode hex="0068"/>
  <outline>
    <contour>
      <point x="93" y="0" type="line"/>
      <point x="191" y="539" type="line" smooth="yes"/>
      <point x="194" y="556"/>
      <point x="196" y="570"/>
      <point x="196" y="577" type="curve" smooth="yes"/>
      <point x="196" y="585"/>
      <point x="193" y="593"/>
      <point x="190" y="596" type="curve" smooth="yes"/>
      <point x="181" y="604"/>
      <point x="155" y="612"/>
      <point x="139" y="612" type="curve" smooth="yes"/>
      <point x="127" y="612" type="line"/>
      <point x="142" y="694" type="line"/>
      <point x="208" y="694"/>
      <point x="277" y="708"/>
      <point x="331" y="732" type="curve"/>
      <point x="384" y="732" type="line"/>
      <point x="336" y="468" type="line"/>
      <point x="387" y="502"/>
      <point x="443" y="520"/>
      <point x="501" y="520" type="curve" smooth="yes"/>
      <point x="589" y="520"/>
      <point x="649" y="473"/>
      <point x="649" y="404" type="curve" smooth="yes"/>
      <point x="649" y="399"/>
      <point x="648" y="389"/>
      <point x="646" y="379" type="curve" smooth="yes"/>
      <point x="609" y="177" type="line" smooth="yes"/>
      <point x="603" y="142"/>
      <point x="602" y="135"/>
      <point x="602" y="127" type="curve" smooth="yes"/>
      <point x="602" y="111"/>
      <point x="616" y="99"/>
      <point x="635" y="99" type="curve" smooth="yes"/>
      <point x="652" y="99"/>
      <point x="672" y="105"/>
      <point x="694" y="118" type="curve"/>
      <point x="736" y="61" type="line"/>
      <point x="688" y="18"/>
      <point x="624" y="-9"/>
      <point x="567" y="-9" type="curve" smooth="yes"/>
      <point x="490" y="-9"/>
      <point x="439" y="32"/>
      <point x="439" y="93" type="curve" smooth="yes"/>
      <point x="439" y="110"/>
      <point x="439" y="110"/>
      <point x="448" y="160" type="curve" smooth="yes"/>
      <point x="476" y="312" type="line" smooth="yes"/>
      <point x="480" y="337"/>
      <point x="483" y="356"/>
      <point x="483" y="364" type="curve" smooth="yes"/>
      <point x="483" y="390"/>
      <point x="457" y="408"/>
      <point x="419" y="408" type="curve" smooth="yes"/>
      <point x="387" y="408"/>
      <point x="346" y="396"/>
      <point x="320" y="379" type="curve"/>
      <point x="251" y="0" type="line"/>
    </contour>
  </outline>
</glyph>
<glyph name="q" format="1">
  <advance width="620"/>
  <unicode hex="0071"/>
  <outline>
    <contour>
      <point x="640" y="511" type="line"/>
      <point x="535" y="-69" type="line" smooth="yes"/>
      <point x="534" y="-75"/>
      <point x="533" y="-82"/>
      <point x="533" y="-88" type="curve" smooth="yes"/>
      <point x="533" y="-106"/>
      <point x="539" y="-118"/>
      <point x="550" y="-123" type="curve" smooth="yes"/>
      <point x="560" y="-127"/>
      <point x="578" y="-131"/>
      <point x="591" y="-131" type="curve" smooth="yes"/>
      <point x="607" y="-131" type="line"/>
      <point x="593" y="-213" type="line"/>
      <point x="257" y="-213" type="line"/>
      <point x="271" y="-131" type="line"/>
      <point x="298" y="-131" type="line" smooth="yes"/>
      <point x="320" y="-131"/>
      <point x="346" y="-123"/>
      <point x="357" y="-113" type="curve" smooth="yes"/>
      <point x="365" y="-106"/>
      <point x="373" y="-87"/>
      <point x="377" y="-69" type="curve" smooth="yes"/>
      <point x="401" y="63" type="line"/>
      <point x="360" y="12"/>
      <point x="318" y="-9"/>
      <point x="255" y="-9" type="curve" smooth="yes"/>
      <point x="142" y="-9"/>
      <point x="60" y="81"/>
      <point x="60" y="206" type="curve" smooth="yes"/>
      <point x="60" y="369"/>
      <point x="203" y="520"/>
      <point x="359" y="520" type="curve" smooth="yes"/>
      <point x="412" y="520"/>
      <point x="464" y="502"/>
      <point x="495" y="473" type="curve"/>
      <point x="502" y="511" type="line"/>
    </contour>
    <contour>
      <point x="463" y="405" type="curve"/>
      <point x="461" y="406" type="line"/>
      <point x="460" y="407" type="line"/>
      <point x="444" y="420"/>
      <point x="408" y="432"/>
      <point x="382" y="432" type="curve" smooth="yes"/>
      <point x="346" y="432"/>
      <point x="314" y="413"/>
      <point x="287" y="374" type="curve" smooth="yes"/>
      <point x="256" y="330"/>
      <point x="233" y="247"/>
      <point x="233" y="183" type="curve" smooth="yes"/>
      <point x="233" y="122"/>
      <point x="258" y="87"/>
      <point x="301" y="87" type="curve" smooth="yes"/>
      <point x="338" y="87"/>
      <point x="378" y="119"/>
      <point x="402" y="167" type="curve" smooth="yes"/>
      <point x="431" y="225"/>
      <point x="446" y="284"/>
    </contour>
  </outline>
</glyph>
<glyph name="w" format="1">
  <advance width="860"/>
  <unicode hex="0077"/>
  <outline>
    <contour>
      <point x="400" y="123" type="curve"/>
      <point x="470" y="511" type="line"/>
      <point x="628" y="511" type="line"/>
      <point x="570" y="190" type="line" smooth="yes"/>
      <point x="567" y="175"/>
      <point x="566" y="167"/>
      <point x="566" y="161" type="curve" smooth="yes"/>
      <point x="566" y="128"/>
      <point x="595" y="103"/>
      <point x="634" y="103" type="curve" smooth="yes"/>
      <point x="704" y="103"/>
      <point x="764" y="188"/>
      <point x="764" y="286" type="curve" smooth="yes"/>
      <point x="764" y="328"/>
      <point x="759" y="338"/>
      <point x="721" y="375" type="curve" smooth="yes"/>
      <point x="705" y="391"/>
      <point x="696" y="411"/>
      <point x="696" y="429" type="curve" smooth="yes"/>
      <point x="696" y="478"/>
      <point x="740" y="520"/>
      <point x="792" y="520" type="curve" smooth="yes"/>
      <point x="852" y="520"/>
      <point x="891" y="464"/>
      <point x="891" y="377" type="curve" smooth="yes"/>
      <point x="891" y="263"/>
      <point x="838" y="142"/>
      <point x="757" y="68" type="curve"/>
      <point x="704" y="21"/>
      <point x="625" y="-9"/>
      <point x="552" y="-9" type="curve" smooth="yes"/>
      <point x="490" y="-9"/>
      <point x="450" y="7"/>
      <point x="412" y="48" type="curve"/>
      <point x="353" y="10"/>
      <point x="294" y="-9"/>
      <point x="232" y="-9" type="curve" smooth="yes"/>
      <point x="148" y="-9"/>
      <point x="85" y="40"/>
      <point x="85" y="105" type="curve" smooth="yes"/>
      <point x="85" y="111"/>
      <point x="86" y="117"/>
      <point x="87" y="123" type="curve" smooth="yes"/>
      <point x="123" y="321" type="line" smooth="yes"/>
      <point x="125" y="334"/>
      <point x="127" y="351"/>
      <point x="127" y="358" type="curve" smooth="yes"/>
      <point x="127" y="367"/>
      <point x="125" y="374"/>
      <point x="121" y="378" type="curve" smooth="yes"/>
      <point x="112" y="385"/>
      <point x="85" y="394"/>
      <point x="68" y="394" type="curve" smooth="yes"/>
      <point x="56" y="394" type="line"/>
      <point x="71" y="476" type="line"/>
      <point x="146" y="480"/>
      <point x="187" y="487"/>
      <point x="263" y="511" type="curve"/>
      <point x="315" y="511" type="line"/>
      <point x="256" y="186" type="line" smooth="yes"/>
      <point x="252" y="161"/>
      <point x="251" y="155"/>
      <point x="251" y="148" type="curve" smooth="yes"/>
      <point x="251" y="119"/>
      <point x="277" y="99"/>
      <point x="315" y="99" type="curve" smooth="yes"/>
      <point x="342" y="99"/>
      <point x="377" y="109"/>
    </contour>
  </outline>
</glyph>
<glyph name="x" format="1">
  <advance width="620"/>
  <unicode hex="0078"/>
  <outline>
    <contour>
      <point x="105" y="395" type="curve"/>
      <point x="120" y="476" type="line"/>
      <point x="190" y="479"/>
      <point x="217" y="485"/>
      <point x="279" y="511" type="curve"/>
      <point x="332" y="511" type="line"/>
      <point x="356" y="420"/>
      <point x="367" y="387"/>
      <point x="381" y="353" type="curve"/>
      <point x="450" y="458"/>
      <point x="525" y="520"/>
      <point x="585" y="520" type="curve" smooth="yes"/>
      <point x="625" y="520"/>
      <point x="654" y="495"/>
      <point x="654" y="460" type="curve" smooth="yes"/>
      <point x="654" y="422"/>
      <point x="617" y="390"/>
      <point x="575" y="390" type="curve" smooth="yes"/>
      <point x="570" y="390"/>
      <point x="564" y="390"/>
      <point x="558" y="391" type="curve" smooth="yes"/>
      <point x="549" y="392"/>
      <point x="541" y="393"/>
      <point x="536" y="393" type="curve" smooth="yes"/>
      <point x="502" y="393"/>
      <point x="455" y="347"/>
      <point x="407" y="269" type="curve"/>
      <point x="459" y="141"/>
      <point x="483" y="108"/>
      <point x="524" y="108" type="curve" smooth="yes"/>
      <point x="544" y="108"/>
      <point x="560" y="116"/>
      <point x="591" y="140" type="curve"/>
      <point x="635" y="82" type="line"/>
      <point x="564" y="18"/>
      <point x="511" y="-9"/>
      <point x="455" y="-9" type="curve" smooth="yes"/>
      <point x="401" y="-9"/>
      <point x="355" y="18"/>
      <point x="319" y="71" type="curve" smooth="yes"/>
      <point x="304" y="94"/>
      <point x="291" y="120"/>
      <point x="270" y="173" type="curve"/>
      <point x="224" y="88"/>
      <point x="217" y="78"/>
      <point x="186" y="47" type="curve" smooth="yes"/>
      <point x="149" y="11"/>
      <point x="110" y="-9"/>
      <point x="77" y="-9" type="curve" smooth="yes"/>
      <point x="37" y="-9"/>
      <point x="10" y="17"/>
      <point x="10" y="58" type="curve" smooth="yes"/>
      <point x="10" y="88"/>
      <point x="29" y="115"/>
      <point x="56" y="122" type="curve" smooth="yes"/>
      <point x="66" y="125"/>
      <point x="72" y="125"/>
      <point x="104" y="125" type="curve"/>
      <point x="144" y="119"/>
      <point x="196" y="176"/>
      <point x="236" y="267" type="curve"/>
      <point x="184" y="390"/>
      <point x="183" y="391"/>
    </contour>
  </outline>
</glyph>
<glyph name="y" format="1">
  <advance width="600"/>
  <unicode hex="0079"/>
  <outline>
    <contour>
      <point x="642" y="511" type="line"/>
      <point x="567" y="97" type="line" smooth="yes"/>
      <point x="541" y="-47"/>
      <point x="515" y="-97"/>
      <point x="441" y="-144" type="curve"/>
      <point x="380" y="-184"/>
      <point x="306" y="-204"/>
      <point x="224" y="-204" type="curve" smooth="yes"/>
      <point x="110" y="-204"/>
      <point x="25" y="-160"/>
      <point x="25" y="-101" type="curve" smooth="yes"/>
      <point x="25" y="-61"/>
      <point x="59" y="-30"/>
      <point x="103" y="-30" type="curve" smooth="yes"/>
      <point x="120" y="-30"/>
      <point x="137" y="-35"/>
      <point x="149" y="-44" type="curve" smooth="yes"/>
      <point x="156" y="-49"/>
      <point x="156" y="-49"/>
      <point x="174" y="-80" type="curve" smooth="yes"/>
      <point x="188" y="-104"/>
      <point x="213" y="-116"/>
      <point x="248" y="-116" type="curve" smooth="yes"/>
      <point x="298" y="-116"/>
      <point x="346" y="-85"/>
      <point x="373" y="-34" type="curve" smooth="yes"/>
      <point x="387" y="-9"/>
      <point x="394" y="12"/>
      <point x="400" y="48" type="curve"/>
      <point x="391" y="42" type="line"/>
      <point x="332" y="5"/>
      <point x="289" y="-9"/>
      <point x="238" y="-9" type="curve" smooth="yes"/>
      <point x="158" y="-9"/>
      <point x="97" y="38"/>
      <point x="97" y="99" type="curve" smooth="yes"/>
      <point x="97" y="113"/>
      <point x="99" y="129"/>
      <point x="102" y="148" type="curve" smooth="yes"/>
      <point x="133" y="321" type="line" smooth="yes"/>
      <point x="136" y="336"/>
      <point x="138" y="350"/>
      <point x="138" y="358" type="curve" smooth="yes"/>
      <point x="138" y="366"/>
      <point x="135" y="374"/>
      <point x="132" y="378" type="curve"/>
      <point x="124" y="385"/>
      <point x="95" y="394"/>
      <point x="79" y="394" type="curve" smooth="yes"/>
      <point x="67" y="394" type="line"/>
      <point x="82" y="476" type="line"/>
      <point x="157" y="480"/>
      <point x="198" y="487"/>
      <point x="274" y="511" type="curve"/>
      <point x="326" y="511" type="line"/>
      <point x="270" y="202" type="line" smooth="yes"/>
      <point x="268" y="192"/>
      <point x="267" y="184"/>
      <point x="265" y="179" type="curve" smooth="yes"/>
      <point x="263" y="169"/>
      <point x="262" y="160"/>
      <point x="262" y="155" type="curve" smooth="yes"/>
      <point x="262" y="125"/>
      <point x="285" y="103"/>
      <point x="315" y="103" type="curve" smooth="yes"/>
      <point x="350" y="103"/>
      <point x="394" y="122"/>
      <point x="418" y="148" type="curve"/>
      <point x="484" y="511" type="line"/>
    </contour>
  </outline>
</glyph>
<glyph name="braceleft" format="1">
  <advance width="300"/>
  <unicode hex="007B"/>
  <outline>
    <contour>
      <point x="306" y="568" type="curve"/>
      <point x="274" y="388" type="line"/>
      <point x="263" y="318"/>
      <point x="242" y="298"/>
      <point x="162" y="282" type="curve"/>
      <point x="216" y="270"/>
      <point x="239" y="245"/>
      <point x="239" y="202" type="curve" smooth="yes"/>
      <point x="239" y="192"/>
      <point x="238" y="181"/>
      <point x="236" y="170" type="curve" smooth="yes"/>
      <point x="204" y="-10" type="line"/>
      <point x="204" y="-16" type="line" smooth="yes"/>
      <point x="204" y="-49"/>
      <point x="223" y="-65"/>
      <point x="268" y="-73" type="curve"/>
      <point x="256" y="-145" type="line"/>
      <point x="154" y="-144"/>
      <point x="154" y="-144"/>
      <point x="132" y="-140" type="curve" smooth="yes"/>
      <point x="92" y="-132"/>
      <point x="70" y="-104"/>
      <point x="70" y="-60" type="curve" smooth="yes"/>
      <point x="70" y="-49"/>
      <point x="71" y="-40"/>
      <point x="75" y="-20" type="curve" smooth="yes"/>
      <point x="105" y="152" type="line" smooth="yes"/>
      <point x="107" y="163"/>
      <point x="108" y="175"/>
      <point x="108" y="182" type="curve" smooth="yes"/>
      <point x="108" y="212"/>
      <point x="88" y="234"/>
      <point x="53" y="243" type="curve"/>
      <point x="67" y="321" type="line"/>
      <point x="110" y="332"/>
      <point x="140" y="361"/>
      <point x="149" y="403" type="curve"/>
      <point x="183" y="598" type="line"/>
      <point x="194" y="649"/>
      <point x="213" y="676"/>
      <point x="251" y="694" type="curve" smooth="yes"/>
      <point x="276" y="706"/>
      <point x="291" y="709"/>
      <point x="334" y="709" type="curve"/>
      <point x="368" y="710" type="line"/>
      <point x="409" y="710" type="line"/>
      <point x="396" y="638" type="line"/>
      <point x="338" y="626"/>
      <point x="315" y="609"/>
    </contour>
  </outline>
</glyph>
<glyph name="braceright" format="1">
  <advance width="300"/>
  <unicode hex="007D"/>
  <outline>
    <contour>
      <point x="99" y="-3" type="curve"/>
      <point x="131" y="177" type="line"/>
      <point x="142" y="247"/>
      <point x="163" y="267"/>
      <point x="243" y="283" type="curve"/>
      <point x="189" y="295"/>
      <point x="166" y="320"/>
      <point x="166" y="363" type="curve" smooth="yes"/>
      <point x="166" y="373"/>
      <point x="167" y="384"/>
      <point x="169" y="395" type="curve" smooth="yes"/>
      <point x="201" y="575" type="line"/>
      <point x="201" y="581" type="line" smooth="yes"/>
      <point x="201" y="614"/>
      <point x="182" y="630"/>
      <point x="137" y="638" type="curve"/>
      <point x="149" y="710" type="line"/>
      <point x="251" y="710"/>
      <point x="251" y="710"/>
      <point x="273" y="705" type="curve"/>
      <point x="313" y="698"/>
      <point x="335" y="669"/>
      <point x="335" y="625" type="curve" smooth="yes"/>
      <point x="335" y="614"/>
      <point x="334" y="605"/>
      <point x="330" y="585" type="curve" smooth="yes"/>
      <point x="300" y="413" type="line" smooth="yes"/>
      <point x="298" y="403"/>
      <point x="297" y="390"/>
      <point x="297" y="383" type="curve" smooth="yes"/>
      <point x="297" y="353"/>
      <point x="317" y="331"/>
      <point x="352" y="322" type="curve"/>
      <point x="338" y="244" type="line"/>
      <point x="295" y="233"/>
      <point x="265" y="204"/>
      <point x="256" y="162" type="curve"/>
      <point x="222" y="-33" type="line"/>
      <point x="211" y="-84"/>
      <point x="192" y="-111"/>
      <point x="154" y="-129" type="curve" smooth="yes"/>
      <point x="129" y="-141"/>
      <point x="114" y="-144"/>
      <point x="71" y="-144" type="curve" smooth="yes"/>
      <point x="-4" y="-145" type="line"/>
      <point x="9" y="-73" type="line"/>
      <point x="67" y="-61"/>
      <point x="90" y="-44"/>
    </contour>
  </outline>
</glyph>
<glyph name="asciitilde" format="1">
  <advance width="620"/>
  <unicode hex="007E"/>
  <outline>
    <contour>
      <point x="163" y="251" type="curve"/>
      <point x="101" y="321" type="line"/>
      <point x="149" y="409"/>
      <point x="189" y="441"/>
      <point x="247" y="441" type="curve" smooth="yes"/>
      <point x="269" y="441"/>
      <point x="289" y="436"/>
      <point x="321" y="423" type="curve" smooth="yes"/>
      <point x="386" y="395" type="line" smooth="yes"/>
      <point x="412" y="384"/>
      <point x="441" y="377"/>
      <point x="458" y="377" type="curve" smooth="yes"/>
      <point x="485" y="377"/>
      <point x="512" y="399"/>
      <point x="541" y="443" type="curve"/>
      <point x="605" y="372" type="line"/>
      <point x="571" y="303"/>
      <point x="516" y="260"/>
      <point x="463" y="260" type="curve" smooth="yes"/>
      <point x="439" y="260"/>
      <point x="422" y="265"/>
      <point x="372" y="286" type="curve" smooth="yes"/>
      <point x="317" y="308" type="line" smooth="yes"/>
      <point x="292" y="319"/>
      <point x="270" y="324"/>
      <point x="252" y="324" type="curve" smooth="yes"/>
      <point x="218" y="324"/>
      <point x="199" y="308"/>
    </contour>
  </outline>
</glyph>
<glyph name="exclamdown" format="1">
  <advance width="320"/>
  <unicode hex="00A1"/>
  <outline>
    <contour>
      <point x="191" y="288" type="curve"/>
      <point x="273" y="288" type="line"/>
      <point x="258" y="144"/>
      <point x="258" y="144"/>
      <point x="258" y="90" type="curve" smooth="yes"/>
      <point x="258" y="68"/>
      <point x="259" y="46"/>
      <point x="260" y="21" type="curve" smooth="yes"/>
      <point x="262" y="-4"/>
      <point x="263" y="-21"/>
      <point x="263" y="-29" type="curve" smooth="yes"/>
      <point x="263" y="-70"/>
      <point x="256" y="-108"/>
      <point x="245" y="-128" type="curve" smooth="yes"/>
      <point x="226" y="-164"/>
      <point x="187" y="-187"/>
      <point x="148" y="-187" type="curve" smooth="yes"/>
      <point x="98" y="-187"/>
      <point x="64" y="-153"/>
      <point x="64" y="-104" type="curve" smooth="yes"/>
      <point x="64" y="-79"/>
      <point x="71" y="-51"/>
      <point x="88" y="-10" type="curve" smooth="yes"/>
      <point x="140" y="120" type="line" smooth="yes"/>
      <point x="164" y="181"/>
      <point x="172" y="207"/>
    </contour>
    <contour>
      <point x="266" y="520" type="curve" smooth="yes"/>
      <point x="310" y="520"/>
      <point x="344" y="485"/>
      <point x="344" y="439" type="curve" smooth="yes"/>
      <point x="344" y="386"/>
      <point x="299" y="340"/>
      <point x="247" y="340" type="curve" smooth="yes"/>
      <point x="204" y="340"/>
      <point x="171" y="374"/>
      <point x="171" y="421" type="curve" smooth="yes"/>
      <point x="171" y="473"/>
      <point x="216" y="520"/>
    </contour>
  </outline>
</glyph>
<glyph name="cent" format="1">
  <advance width="680"/>
  <unicode hex="00A2"/>
  <outline>
    <contour>
      <point x="557" y="326" type="curve"/>
      <point x="598" y="286" type="line"/>
      <point x="559" y="231"/>
      <point x="478" y="183"/>
      <point x="400" y="171" type="curve"/>
      <point x="374" y="25" type="line"/>
      <point x="291" y="25" type="line"/>
      <point x="317" y="171" type="line"/>
      <point x="221" y="192"/>
      <point x="161" y="261"/>
      <point x="161" y="349" type="curve" smooth="yes"/>
      <point x="161" y="463"/>
      <point x="262" y="569"/>
      <point x="394" y="595" type="curve"/>
      <point x="417" y="718" type="line"/>
      <point x="500" y="718" type="line"/>
      <point x="477" y="595" type="line"/>
      <point x="564" y="586"/>
      <point x="616" y="547"/>
      <point x="616" y="490" type="curve" smooth="yes"/>
      <point x="616" y="444"/>
      <point x="577" y="403"/>
      <point x="532" y="403" type="curve" smooth="yes"/>
      <point x="505" y="403"/>
      <point x="482" y="416"/>
      <point x="474" y="436" type="curve" smooth="yes"/>
      <point x="468" y="450"/>
      <point x="467" y="456"/>
      <point x="467" y="484" type="curve" smooth="yes"/>
      <point x="467" y="500"/>
      <point x="452" y="510"/>
      <point x="429" y="510" type="curve" smooth="yes"/>
      <point x="372" y="510"/>
      <point x="314" y="437"/>
      <point x="314" y="364" type="curve" smooth="yes"/>
      <point x="314" y="305"/>
      <point x="354" y="266"/>
      <point x="414" y="266" type="curve" smooth="yes"/>
      <point x="458" y="266"/>
      <point x="512" y="289"/>
    </contour>
  </outline>
</glyph>
<glyph name="brokenbar" format="1">
  <advance width="620"/>
  <unicode hex="00A6"/>
  <outline>
    <contour>
      <point x="422" y="293" type="line"/>
      <point x="422" y="0" type="line"/>
      <point x="303" y="0" type="line"/>
      <point x="303" y="293" type="line"/>
    </contour>
    <contour>
      <point x="422" y="722" type="line"/>
      <point x="422" y="429" type="line"/>
      <point x="303" y="429" type="line"/>
      <point x="303" y="722" type="line"/>
    </contour>
  </outline>
</glyph>
<glyph name="copyright" format="1">
  <advance width="780"/>
  <unicode hex="00A9"/>
  <outline>
    <contour>
      <point x="575" y="288" type="curve"/>
      <point x="621" y="264" type="line"/>
      <point x="595" y="194"/>
      <point x="522" y="147"/>
      <point x="438" y="147" type="curve" smooth="yes"/>
      <point x="322" y="147"/>
      <point x="239" y="229"/>
      <point x="239" y="343" type="curve" smooth="yes"/>
      <point x="239" y="459"/>
      <point x="316" y="539"/>
      <point x="429" y="539" type="curve" smooth="yes"/>
      <point x="462" y="539"/>
      <point x="495" y="532"/>
      <point x="521" y="519" type="curve"/>
      <point x="525" y="532" type="line"/>
      <point x="564" y="532" type="line"/>
      <point x="610" y="401" type="line"/>
      <point x="568" y="385" type="line"/>
      <point x="541" y="430"/>
      <point x="535" y="439"/>
      <point x="521" y="453" type="curve" smooth="yes"/>
      <point x="496" y="479"/>
      <point x="470" y="492"/>
      <point x="443" y="492" type="curve" smooth="yes"/>
      <point x="383" y="492"/>
      <point x="345" y="434"/>
      <point x="345" y="344" type="curve" smooth="yes"/>
      <point x="345" y="256"/>
      <point x="387" y="199"/>
      <point x="452" y="199" type="curve" smooth="yes"/>
      <point x="501" y="199"/>
      <point x="539" y="227"/>
    </contour>
    <contour>
      <point x="432" y="700" type="curve" smooth="yes"/>
      <point x="627" y="700"/>
      <point x="783" y="543"/>
      <point x="783" y="346" type="curve" smooth="yes"/>
      <point x="783" y="158"/>
      <point x="623" y="0"/>
      <point x="433" y="0" type="curve" smooth="yes"/>
      <point x="241" y="0"/>
      <point x="83" y="158"/>
      <point x="83" y="350" type="curve" smooth="yes"/>
      <point x="83" y="541"/>
      <point x="241" y="700"/>
    </contour>
    <contour>
      <point x="432" y="653" type="curve" smooth="yes"/>
      <point x="268" y="653"/>
      <point x="134" y="517"/>
      <point x="134" y="350" type="curve" smooth="yes"/>
      <point x="134" y="183"/>
      <point x="268" y="47"/>
      <point x="433" y="47" type="curve" smooth="yes"/>
      <point x="596" y="47"/>
      <point x="732" y="183"/>
      <point x="732" y="346" type="curve" smooth="yes"/>
      <point x="732" y="518"/>
      <point x="600" y="653"/>
    </contour>
  </outline>
</glyph>
<glyph name="ordfeminine" format="1">
  <advance width="440"/>
  <unicode hex="00AA"/>
  <outline>
    <contour>
      <point x="444" y="693" type="line"/>
      <point x="410" y="507" type="line" smooth="yes"/>
      <point x="406" y="487"/>
      <point x="406" y="487"/>
      <point x="406" y="481" type="curve" smooth="yes"/>
      <point x="406" y="468"/>
      <point x="416" y="458"/>
      <point x="429" y="458" type="curve" smooth="yes"/>
      <point x="438" y="458"/>
      <point x="445" y="461"/>
      <point x="458" y="469" type="curve"/>
      <point x="483" y="439" type="line"/>
      <point x="452" y="409"/>
      <point x="419" y="393"/>
      <point x="386" y="393" type="curve" smooth="yes"/>
      <point x="349" y="393"/>
      <point x="325" y="409"/>
      <point x="316" y="439" type="curve"/>
      <point x="284" y="405"/>
      <point x="258" y="393"/>
      <point x="220" y="393" type="curve" smooth="yes"/>
      <point x="154" y="393"/>
      <point x="107" y="445"/>
      <point x="107" y="516" type="curve" smooth="yes"/>
      <point x="107" y="614"/>
      <point x="187" y="698"/>
      <point x="280" y="698" type="curve" smooth="yes"/>
      <point x="308" y="698"/>
      <point x="341" y="687"/>
      <point x="358" y="671" type="curve"/>
      <point x="362" y="693" type="line"/>
    </contour>
    <contour>
      <point x="350" y="629" type="curve"/>
      <point x="330" y="644"/>
      <point x="315" y="651"/>
      <point x="300" y="651" type="curve" smooth="yes"/>
      <point x="252" y="651"/>
      <point x="209" y="581"/>
      <point x="209" y="504" type="curve" smooth="yes"/>
      <point x="209" y="471"/>
      <point x="224" y="450"/>
      <point x="248" y="450" type="curve" smooth="yes"/>
      <point x="270" y="450"/>
      <point x="289" y="465"/>
      <point x="305" y="496" type="curve" smooth="yes"/>
      <point x="315" y="515"/>
      <point x="322" y="536"/>
    </contour>
    <contour>
      <point x="66" y="362" type="line"/>
      <point x="495" y="362" type="line"/>
      <point x="484" y="300" type="line"/>
      <point x="55" y="300" type="line"/>
    </contour>
  </outline>
</glyph>
<glyph name="logicalnot" format="1">
  <advance width="620"/>
  <unicode hex="00AC"/>
  <outline>
    <contour>
      <point x="81" y="367" type="line"/>
      <point x="585" y="367" type="line"/>
      <point x="585" y="80" type="line"/>
      <point x="485" y="80" type="line"/>
      <point x="485" y="267" type="line"/>
      <point x="81" y="267" type="line"/>
    </contour>
  </outline>
</glyph>
<glyph name="registered" format="1">
  <advance width="780"/>
  <unicode hex="00AE"/>
  <outline>
    <contour>
      <point x="527" y="354" type="curve"/>
      <point x="597" y="263" type="line" smooth="yes"/>
      <point x="619" y="233"/>
      <point x="631" y="227"/>
      <point x="663" y="224" type="curve"/>
      <point x="663" y="178" type="line"/>
      <point x="533" y="178" type="line"/>
      <point x="413" y="342" type="line"/>
      <point x="384" y="342" type="line"/>
      <point x="384" y="272" type="line" smooth="yes"/>
      <point x="384" y="236"/>
      <point x="391" y="228"/>
      <point x="422" y="225" type="curve" smooth="yes"/>
      <point x="433" y="224" type="line"/>
      <point x="433" y="178" type="line"/>
      <point x="237" y="178" type="line"/>
      <point x="237" y="224" type="line"/>
      <point x="248" y="225" type="line" smooth="yes"/>
      <point x="279" y="228"/>
      <point x="286" y="236"/>
      <point x="286" y="272" type="curve" smooth="yes"/>
      <point x="286" y="465" type="line" smooth="yes"/>
      <point x="286" y="500"/>
      <point x="279" y="508"/>
      <point x="248" y="511" type="curve" smooth="yes"/>
      <point x="237" y="512" type="line"/>
      <point x="237" y="558" type="line"/>
      <point x="454" y="558" type="line" smooth="yes"/>
      <point x="507" y="558"/>
      <point x="541" y="553"/>
      <point x="569" y="539" type="curve" smooth="yes"/>
      <point x="599" y="525"/>
      <point x="620" y="492"/>
      <point x="620" y="457" type="curve" smooth="yes"/>
      <point x="620" y="406"/>
      <point x="586" y="368"/>
    </contour>
    <contour>
      <point x="384" y="395" type="line"/>
      <point x="423" y="395" type="line" smooth="yes"/>
      <point x="479" y="395"/>
      <point x="508" y="414"/>
      <point x="508" y="451" type="curve" smooth="yes"/>
      <point x="508" y="488"/>
      <point x="482" y="506"/>
      <point x="432" y="506" type="curve" smooth="yes"/>
      <point x="391" y="506"/>
      <point x="384" y="502"/>
      <point x="384" y="481" type="curve" smooth="yes"/>
    </contour>
    <contour>
      <point x="432" y="700" type="curve" smooth="yes"/>
      <point x="627" y="700"/>
      <point x="783" y="543"/>
      <point x="783" y="346" type="curve" smooth="yes"/>
      <point x="783" y="158"/>
      <point x="623" y="0"/>
      <point x="433" y="0" type="curve" smooth="yes"/>
      <point x="241" y="0"/>
      <point x="83" y="158"/>
      <point x="83" y="350" type="curve" smooth="yes"/>
      <point x="83" y="541"/>
      <point x="241" y="700"/>
    </contour>
    <contour>
      <point x="432" y="653" type="curve" smooth="yes"/>
      <point x="268" y="653"/>
      <point x="134" y="517"/>
      <point x="134" y="350" type="curve" smooth="yes"/>
      <point x="134" y="183"/>
      <point x="268" y="47"/>
      <point x="433" y="47" type="curve" smooth="yes"/>
      <point x="596" y="47"/>
      <point x="732" y="183"/>
      <point x="732" y="346" type="curve" smooth="yes"/>
      <point x="732" y="518"/>
      <point x="600" y="653"/>
    </contour>
  </outline>
</glyph>
<glyph name="macron" format="1">
  <advance width="480"/>
  <unicode hex="00AF"/>
  <outline>
    <contour>
      <point x="505" y="603" type="line"/>
      <point x="177" y="603" type="line"/>
      <point x="203" y="691" type="line"/>
      <point x="531" y="691" type="line"/>
    </contour>
  </outline>
</glyph>
<glyph name="plusminus" format="1">
  <advance width="600"/>
  <unicode hex="00B1"/>
  <outline>
    <contour>
      <point x="595" y="328" type="line"/>
      <point x="401" y="328" type="line"/>
      <point x="401" y="160" type="line"/>
      <point x="285" y="160" type="line"/>
      <point x="285" y="328" type="line"/>
      <point x="91" y="328" type="line"/>
      <point x="91" y="442" type="line"/>
      <point x="285" y="442" type="line"/>
      <point x="285" y="628" type="line"/>
      <point x="401" y="628" type="line"/>
      <point x="401" y="442" type="line"/>
      <point x="595" y="442" type="line"/>
    </contour>
    <contour>
      <point x="595" y="0" type="line"/>
      <point x="91" y="0" type="line"/>
      <point x="91" y="114" type="line"/>
      <point x="595" y="114" type="line"/>
    </contour>
  </outline>
</glyph>
<glyph name="twosuperior" format="1">
  <advance width="408"/>
  <unicode hex="00B2"/>
  <outline>
    <contour>
      <point x="482" y="404" type="line"/>
      <point x="421" y="273" type="line"/>
      <point x="98" y="273" type="line"/>
      <point x="91" y="342" type="line"/>
      <point x="139" y="362"/>
      <point x="199" y="397"/>
      <point x="248" y="433" type="curve"/>
      <point x="315" y="484"/>
      <point x="353" y="538"/>
      <point x="353" y="582" type="curve" smooth="yes"/>
      <point x="353" y="610"/>
      <point x="331" y="630"/>
      <point x="300" y="630" type="curve" smooth="yes"/>
      <point x="268" y="630"/>
      <point x="237" y="615"/>
      <point x="237" y="599" type="curve" smooth="yes"/>
      <point x="237" y="597"/>
      <point x="239" y="593"/>
      <point x="242" y="587" type="curve" smooth="yes"/>
      <point x="249" y="576"/>
      <point x="250" y="572"/>
      <point x="250" y="565" type="curve" smooth="yes"/>
      <point x="250" y="536"/>
      <point x="220" y="509"/>
      <point x="188" y="509" type="curve" smooth="yes"/>
      <point x="157" y="509"/>
      <point x="135" y="530"/>
      <point x="135" y="562" type="curve" smooth="yes"/>
      <point x="135" y="588"/>
      <point x="148" y="615"/>
      <point x="174" y="639" type="curve" smooth="yes"/>
      <point x="211" y="672"/>
      <point x="260" y="689"/>
      <point x="321" y="689" type="curve" smooth="yes"/>
      <point x="421" y="689"/>
      <point x="485" y="645"/>
      <point x="485" y="578" type="curve" smooth="yes"/>
      <point x="485" y="512"/>
      <point x="440" y="466"/>
      <point x="298" y="387" type="curve"/>
      <point x="256" y="363" type="line"/>
      <point x="315" y="363" type="line" smooth="yes"/>
      <point x="385" y="363"/>
      <point x="396" y="368"/>
      <point x="427" y="417" type="curve"/>
      <point x="430" y="421" type="line"/>
    </contour>
  </outline>
</glyph>
<glyph name="threesuperior" format="1">
  <advance width="408"/>
  <unicode hex="00B3"/>
  <outline>
    <contour>
      <point x="227" y="463" type="line"/>
      <point x="238" y="523" type="line"/>
      <point x="265" y="523" type="line" smooth="yes"/>
      <point x="327" y="523"/>
      <point x="356" y="542"/>
      <point x="356" y="582" type="curve" smooth="yes"/>
      <point x="356" y="609"/>
      <point x="337" y="624"/>
      <point x="300" y="624" type="curve" smooth="yes"/>
      <point x="276" y="624"/>
      <point x="248" y="613"/>
      <point x="248" y="603" type="curve" smooth="yes"/>
      <point x="248" y="600" type="line"/>
      <point x="250" y="593"/>
      <point x="251" y="587"/>
      <point x="251" y="579" type="curve" smooth="yes"/>
      <point x="251" y="552"/>
      <point x="222" y="529"/>
      <point x="188" y="529" type="curve" smooth="yes"/>
      <point x="157" y="529"/>
      <point x="136" y="547"/>
      <point x="136" y="575" type="curve" smooth="yes"/>
      <point x="136" y="638"/>
      <point x="216" y="689"/>
      <point x="314" y="689" type="curve" smooth="yes"/>
      <point x="413" y="689"/>
      <point x="483" y="646"/>
      <point x="483" y="585" type="curve" smooth="yes"/>
      <point x="483" y="549"/>
      <point x="464" y="522"/>
      <point x="422" y="497" type="curve"/>
      <point x="410" y="491" type="line"/>
      <point x="423" y="485" type="line"/>
      <point x="456" y="466"/>
      <point x="470" y="443"/>
      <point x="470" y="409" type="curve" smooth="yes"/>
      <point x="470" y="327"/>
      <point x="375" y="265"/>
      <point x="249" y="265" type="curve" smooth="yes"/>
      <point x="154" y="265"/>
      <point x="86" y="305"/>
      <point x="86" y="361" type="curve" smooth="yes"/>
      <point x="86" y="398"/>
      <point x="116" y="428"/>
      <point x="151" y="428" type="curve" smooth="yes"/>
      <point x="180" y="428"/>
      <point x="202" y="410"/>
      <point x="202" y="386" type="curve" smooth="yes"/>
      <point x="202" y="381"/>
      <point x="201" y="376"/>
      <point x="199" y="372" type="curve" smooth="yes"/>
      <point x="195" y="363"/>
      <point x="193" y="357"/>
      <point x="193" y="355" type="curve" smooth="yes"/>
      <point x="193" y="343"/>
      <point x="224" y="330"/>
      <point x="254" y="330" type="curve" smooth="yes"/>
      <point x="305" y="330"/>
      <point x="338" y="360"/>
      <point x="338" y="407" type="curve" smooth="yes"/>
      <point x="338" y="447"/>
      <point x="313" y="463"/>
      <point x="248" y="463" type="curve" smooth="yes"/>
    </contour>
  </outline>
</glyph>
<glyph name="paragraph" format="1">
  <advance width="680"/>
  <unicode hex="00B6"/>
  <outline>
    <contour>
      <point x="726" y="681" type="line"/>
      <point x="593" y="-46" type="line" smooth="yes"/>
      <point x="592" y="-55"/>
      <point x="589" y="-79"/>
      <point x="589" y="-84" type="curve" smooth="yes"/>
      <point x="589" y="-104"/>
      <point x="602" y="-110"/>
      <point x="650" y="-114" type="curve"/>
      <point x="667" y="-115" type="line"/>
      <point x="652" y="-201" type="line"/>
      <point x="184" y="-201" type="line"/>
      <point x="199" y="-115" type="line"/>
      <point x="214" y="-114" type="line"/>
      <point x="275" y="-111"/>
      <point x="288" y="-98"/>
      <point x="298" y="-33" type="curve"/>
      <point x="334" y="163" type="line"/>
      <point x="250" y="163"/>
      <point x="209" y="169"/>
      <point x="174" y="187" type="curve" smooth="yes"/>
      <point x="108" y="220"/>
      <point x="70" y="293"/>
      <point x="70" y="384" type="curve" smooth="yes"/>
      <point x="70" y="506"/>
      <point x="144" y="623"/>
      <point x="248" y="663" type="curve" smooth="yes"/>
      <point x="288" y="678"/>
      <point x="312" y="681"/>
      <point x="397" y="681" type="curve" smooth="yes"/>
    </contour>
    <contour>
      <point x="353" y="264" type="line"/>
      <point x="412" y="591" type="line"/>
      <point x="402" y="592"/>
      <point x="391" y="592"/>
      <point x="385" y="592" type="curve" smooth="yes"/>
      <point x="346" y="592"/>
      <point x="316" y="578"/>
      <point x="296" y="551" type="curve" smooth="yes"/>
      <point x="263" y="508"/>
      <point x="243" y="435"/>
      <point x="243" y="361" type="curve" smooth="yes"/>
      <point x="243" y="290"/>
      <point x="269" y="264"/>
      <point x="340" y="264" type="curve" smooth="yes"/>
    </contour>
    <contour>
      <point x="594" y="591" type="line"/>
      <point x="529" y="591" type="line"/>
      <point x="401" y="-111" type="line"/>
      <point x="466" y="-111" type="line"/>
    </contour>
  </outline>
</glyph>
<glyph name="Aacute" format="1">
  <advance width="720"/>
  <unicode hex="00C1"/>
  <outline>
    <contour>
      <point x="564" y="681" type="line"/>
      <point x="680" y="178" type="line" smooth="yes"/>
      <point x="691" y="134"/>
      <point x="696" y="119"/>
      <point x="701" y="112" type="curve" smooth="yes"/>
      <point x="712" y="95"/>
      <point x="715" y="94"/>
      <point x="757" y="84" type="curve" smooth="yes"/>
      <point x="759" y="84"/>
      <point x="764" y="82"/>
      <point x="769" y="81" type="curve"/>
      <point x="754" y="0" type="line"/>
      <point x="402" y="0" type="line"/>
      <point x="417" y="81" type="line"/>
      <point x="431" y="83" type="line"/>
      <point x="450" y="85" type="line"/>
      <point x="493" y="91"/>
      <point x="507" y="99"/>
      <point x="507" y="119" type="curve" smooth="yes"/>
      <point x="507" y="128"/>
      <point x="504" y="146"/>
      <point x="500" y="165" type="curve" smooth="yes"/>
      <point x="484" y="242" type="line"/>
      <point x="262" y="242" type="line"/>
      <point x="216" y="155" type="line" smooth="yes"/>
      <point x="201" y="126"/>
      <point x="200" y="125"/>
      <point x="200" y="113" type="curve" smooth="yes"/>
      <point x="200" y="96"/>
      <point x="217" y="88"/>
      <point x="258" y="83" type="curve" smooth="yes"/>
      <point x="277" y="81" type="line"/>
      <point x="262" y="0" type="line"/>
      <point x="-27" y="0" type="line"/>
      <point x="-12" y="81" type="line"/>
      <point x="55" y="97"/>
      <point x="86" y="120"/>
      <point x="116" y="177" type="curve"/>
      <point x="124" y="190"/>
      <point x="130" y="202"/>
      <point x="135" y="210" type="curve" smooth="yes"/>
      <point x="413" y="681" type="line"/>
    </contour>
    <contour>
      <point x="469" y="320" type="line"/>
      <point x="428" y="538" type="line"/>
      <point x="305" y="320" type="line"/>
    </contour>
    <contour>
      <point x="474" y="727" type="curve"/>
      <point x="433" y="771" type="line"/>
      <point x="467" y="816"/>
      <point x="501" y="855"/>
      <point x="529" y="881" type="curve" smooth="yes"/>
      <point x="554" y="905"/>
      <point x="571" y="914"/>
      <point x="595" y="914" type="curve" smooth="yes"/>
      <point x="634" y="914"/>
      <point x="664" y="888"/>
      <point x="664" y="854" type="curve" smooth="yes"/>
      <point x="664" y="823"/>
      <point x="643" y="798"/>
      <point x="597" y="775" type="curve" smooth="yes"/>
      <point x="573" y="762"/>
      <point x="533" y="747"/>
    </contour>
  </outline>
</glyph>
<glyph name="Igrave" format="1">
  <advance width="380"/>
  <unicode hex="00CC"/>
  <outline>
    <contour>
      <point x="123" y="600" type="line"/>
      <point x="137" y="681" type="line"/>
      <point x="485" y="681" type="line"/>
      <point x="470" y="600" type="line"/>
      <point x="448" y="598" type="line"/>
      <point x="395" y="591"/>
      <point x="381" y="575"/>
      <point x="368" y="513" type="curve"/>
      <point x="305" y="168" type="line" smooth="yes"/>
      <point x="304" y="161"/>
      <point x="302" y="137"/>
      <point x="302" y="128" type="curve" smooth="yes"/>
      <point x="302" y="101"/>
      <point x="319" y="86"/>
      <point x="355" y="83" type="curve" smooth="yes"/>
      <point x="376" y="81" type="line"/>
      <point x="361" y="0" type="line"/>
      <point x="14" y="0" type="line"/>
      <point x="29" y="81" type="line"/>
      <point x="51" y="83" type="line"/>
      <point x="104" y="90"/>
      <point x="118" y="106"/>
      <point x="131" y="168" type="curve"/>
      <point x="194" y="513" type="line" smooth="yes"/>
      <point x="195" y="521"/>
      <point x="197" y="543"/>
      <point x="197" y="552" type="curve" smooth="yes"/>
      <point x="197" y="580"/>
      <point x="180" y="595"/>
      <point x="144" y="598" type="curve" smooth="yes"/>
    </contour>
    <contour>
      <point x="384" y="771" type="curve"/>
      <point x="343" y="727" type="line"/>
      <point x="274" y="751"/>
      <point x="234" y="767"/>
      <point x="208" y="781" type="curve" smooth="yes"/>
      <point x="171" y="802"/>
      <point x="153" y="826"/>
      <point x="153" y="854" type="curve" smooth="yes"/>
      <point x="153" y="888"/>
      <point x="183" y="914"/>
      <point x="222" y="914" type="curve" smooth="yes"/>
      <point x="246" y="914"/>
      <point x="263" y="906"/>
      <point x="288" y="881" type="curve"/>
      <point x="316" y="855"/>
      <point x="350" y="816"/>
    </contour>
  </outline>
</glyph>
<glyph name="Ograve" format="1">
  <advance width="760"/>
  <unicode hex="00D2"/>
  <outline>
    <contour>
      <point x="485" y="694" type="curve" smooth="yes"/>
      <point x="678" y="694"/>
      <point x="806" y="571"/>
      <point x="806" y="386" type="curve" smooth="yes"/>
      <point x="806" y="297"/>
      <point x="765" y="192"/>
      <point x="704" y="123" type="curve" smooth="yes"/>
      <point x="630" y="38"/>
      <point x="514" y="-13"/>
      <point x="394" y="-13" type="curve" smooth="yes"/>
      <point x="206" y="-13"/>
      <point x="78" y="110"/>
      <point x="78" y="291" type="curve" smooth="yes"/>
      <point x="78" y="395"/>
      <point x="123" y="506"/>
      <point x="193" y="575" type="curve" smooth="yes"/>
      <point x="269" y="650"/>
      <point x="376" y="694"/>
    </contour>
    <contour>
      <point x="473" y="602" type="curve" smooth="yes"/>
      <point x="360" y="602"/>
      <point x="266" y="449"/>
      <point x="266" y="265" type="curve" smooth="yes"/>
      <point x="266" y="152"/>
      <point x="317" y="83"/>
      <point x="400" y="83" type="curve" smooth="yes"/>
      <point x="461" y="83"/>
      <point x="516" y="119"/>
      <point x="557" y="187" type="curve" smooth="yes"/>
      <point x="588" y="239"/>
      <point x="613" y="339"/>
      <point x="613" y="412" type="curve" smooth="yes"/>
      <point x="613" y="533"/>
      <point x="563" y="602"/>
    </contour>
    <contour>
      <point x="594" y="771" type="curve"/>
      <point x="553" y="727" type="line"/>
      <point x="484" y="751"/>
      <point x="444" y="767"/>
      <point x="418" y="781" type="curve" smooth="yes"/>
      <point x="381" y="802"/>
      <point x="363" y="826"/>
      <point x="363" y="854" type="curve" smooth="yes"/>
      <point x="363" y="888"/>
      <point x="393" y="914"/>
      <point x="432" y="914" type="curve" smooth="yes"/>
      <point x="456" y="914"/>
      <point x="473" y="906"/>
      <point x="498" y="881" type="curve"/>
      <point x="526" y="855"/>
      <point x="560" y="816"/>
    </contour>
  </outline>
</glyph>
<glyph name="Oacute" format="1">
  <advance width="760"/>
  <unicode hex="00D3"/>
  <outline>
    <contour>
      <point x="485" y="694" type="curve" smooth="yes"/>
      <point x="678" y="694"/>
      <point x="806" y="571"/>
      <point x="806" y="386" type="curve" smooth="yes"/>
      <point x="806" y="297"/>
      <point x="765" y="192"/>
      <point x="704" y="123" type="curve" smooth="yes"/>
      <point x="630" y="38"/>
      <point x="514" y="-13"/>
      <point x="394" y="-13" type="curve" smooth="yes"/>
      <point x="206" y="-13"/>
      <point x="78" y="110"/>
      <point x="78" y="291" type="curve" smooth="yes"/>
      <point x="78" y="395"/>
      <point x="123" y="506"/>
      <point x="193" y="575" type="curve" smooth="yes"/>
      <point x="269" y="650"/>
      <point x="376" y="694"/>
    </contour>
    <contour>
      <point x="473" y="602" type="curve" smooth="yes"/>
      <point x="360" y="602"/>
      <point x="266" y="449"/>
      <point x="266" y="265" type="curve" smooth="yes"/>
      <point x="266" y="152"/>
      <point x="317" y="83"/>
      <point x="400" y="83" type="curve" smooth="yes"/>
      <point x="461" y="83"/>
      <point x="516" y="119"/>
      <point x="557" y="187" type="curve" smooth="yes"/>
      <point x="588" y="239"/>
      <point x="613" y="339"/>
      <point x="613" y="412" type="curve" smooth="yes"/>
      <point x="613" y="533"/>
      <point x="563" y="602"/>
    </contour>
    <contour>
      <point x="460" y="727" type="curve"/>
      <point x="419" y="771" type="line"/>
      <point x="453" y="816"/>
      <point x="487" y="855"/>
      <point x="515" y="881" type="curve" smooth="yes"/>
      <point x="540" y="905"/>
      <point x="557" y="914"/>
      <point x="581" y="914" type="curve" smooth="yes"/>
      <point x="620" y="914"/>
      <point x="650" y="888"/>
      <point x="650" y="854" type="curve" smooth="yes"/>
      <point x="650" y="823"/>
      <point x="629" y="798"/>
      <point x="583" y="775" type="curve" smooth="yes"/>
      <point x="559" y="762"/>
      <point x="519" y="747"/>
    </contour>
  </outline>
</glyph>
<glyph name="Ocircumflex" format="1">
  <advance width="760"/>
  <unicode hex="00D4"/>
  <outline>
    <contour>
      <point x="485" y="694" type="curve" smooth="yes"/>
      <point x="678" y="694"/>
      <point x="806" y="571"/>
      <point x="806" y="386" type="curve" smooth="yes"/>
      <point x="806" y="297"/>
      <point x="765" y="192"/>
      <point x="704" y="123" type="curve" smooth="yes"/>
      <point x="630" y="38"/>
      <point x="514" y="-13"/>
      <point x="394" y="-13" type="curve" smooth="yes"/>
      <point x="206" y="-13"/>
      <point x="78" y="110"/>
      <point x="78" y="291" type="curve" smooth="yes"/>
      <point x="78" y="395"/>
      <point x="123" y="506"/>
      <point x="193" y="575" type="curve" smooth="yes"/>
      <point x="269" y="650"/>
      <point x="376" y="694"/>
    </contour>
    <contour>
      <point x="473" y="602" type="curve" smooth="yes"/>
      <point x="360" y="602"/>
      <point x="266" y="449"/>
      <point x="266" y="265" type="curve" smooth="yes"/>
      <point x="266" y="152"/>
      <point x="317" y="83"/>
      <point x="400" y="83" type="curve" smooth="yes"/>
      <point x="461" y="83"/>
      <point x="516" y="119"/>
      <point x="557" y="187" type="curve" smooth="yes"/>
      <point x="588" y="239"/>
      <point x="613" y="339"/>
      <point x="613" y="412" type="curve" smooth="yes"/>
      <point x="613" y="533"/>
      <point x="563" y="602"/>
    </contour>
    <contour>
      <point x="336" y="797" type="line"/>
      <point x="520" y="900" type="line"/>
      <point x="676" y="791" type="line"/>
      <point x="634" y="730" type="line"/>
      <point x="504" y="786" type="line"/>
      <point x="367" y="730" type="line"/>
    </contour>
  </outline>
</glyph>
<glyph name="Oslash" format="1">
  <advance width="760"/>
  <unicode hex="00D8"/>
  <outline>
    <contour>
      <point x="847" y="725" type="line"/>
      <point x="728" y="602" type="line"/>
      <point x="780" y="547"/>
      <point x="808" y="474"/>
      <point x="808" y="391" type="curve" smooth="yes"/>
      <point x="808" y="297"/>
      <point x="769" y="194"/>
      <point x="706" y="123" type="curve" smooth="yes"/>
      <point x="632" y="38"/>
      <point x="516" y="-13"/>
      <point x="397" y="-13" type="curve" smooth="yes"/>
      <point x="317" y="-13"/>
      <point x="249" y="8"/>
      <point x="191" y="50" type="curve"/>
      <point x="114" y="-29" type="line"/>
      <point x="21" y="-29" type="line"/>
      <point x="143" y="97" type="line"/>
      <point x="101" y="152"/>
      <point x="80" y="216"/>
      <point x="80" y="291" type="curve" smooth="yes"/>
      <point x="80" y="395"/>
      <point x="124" y="503"/>
      <point x="195" y="575" type="curve" smooth="yes"/>
      <point x="268" y="650"/>
      <point x="378" y="694"/>
      <point x="488" y="694" type="curve" smooth="yes"/>
      <point x="559" y="694"/>
      <point x="620" y="678"/>
      <point x="676" y="644" type="curve"/>
      <point x="754" y="725" type="line"/>
    </contour>
    <contour>
      <point x="609" y="480" type="curve"/>
      <point x="291" y="152" type="line"/>
      <point x="315" y="106"/>
      <point x="351" y="83"/>
      <point x="402" y="83" type="curve" smooth="yes"/>
      <point x="463" y="83"/>
      <point x="518" y="120"/>
      <point x="558" y="187" type="curve" smooth="yes"/>
      <point x="590" y="240"/>
      <point x="615" y="340"/>
      <point x="615" y="416" type="curve" smooth="yes"/>
      <point x="615" y="438"/>
      <point x="613" y="455"/>
    </contour>
    <contour>
      <point x="270" y="227" type="curve"/>
      <point x="583" y="548" type="line"/>
      <point x="557" y="584"/>
      <point x="522" y="602"/>
      <point x="476" y="602" type="curve" smooth="yes"/>
      <point x="362" y="602"/>
      <point x="268" y="448"/>
      <point x="268" y="264" type="curve" smooth="yes"/>
      <point x="268" y="250"/>
      <point x="268" y="242"/>
    </contour>
  </outline>
</glyph>
<glyph name="Udieresis" format="1">
  <advance width="740"/>
  <unicode hex="00DC"/>
  <outline>
    <contour>
      <point x="571" y="600" type="line"/>
      <point x="586" y="681" type="line"/>
      <point x="855" y="681" type="line"/>
      <point x="840" y="600" type="line"/>
      <point x="818" y="598" type="line"/>
      <point x="765" y="591"/>
      <point x="750" y="576"/>
      <point x="738" y="513" type="curve" smooth="yes"/>
      <point x="687" y="232" type="line" smooth="yes"/>
      <point x="673" y="158"/>
      <point x="652" y="110"/>
      <point x="616" y="74" type="curve" smooth="yes"/>
      <point x="561" y="19"/>
      <point x="467" y="-13"/>
      <point x="362" y="-13" type="curve" smooth="yes"/>
      <point x="218" y="-13"/>
      <point x="122" y="51"/>
      <point x="122" y="147" type="curve" smooth="yes"/>
      <point x="122" y="162"/>
      <point x="126" y="195"/>
      <point x="130" y="220" type="curve" smooth="yes"/>
      <point x="183" y="513" type="line" smooth="yes"/>
      <point x="185" y="524"/>
      <point x="187" y="543"/>
      <point x="187" y="552" type="curve" smooth="yes"/>
      <point x="187" y="580"/>
      <point x="170" y="595"/>
      <point x="134" y="598" type="curve" smooth="yes"/>
      <point x="112" y="600" type="line"/>
      <point x="127" y="681" type="line"/>
      <point x="475" y="681" type="line"/>
      <point x="460" y="600" type="line"/>
      <point x="438" y="598" type="line"/>
      <point x="385" y="591"/>
      <point x="370" y="576"/>
      <point x="357" y="513" type="curve"/>
      <point x="315" y="278" type="line" smooth="yes"/>
      <point x="311" y="260"/>
      <point x="307" y="209"/>
      <point x="307" y="188" type="curve" smooth="yes"/>
      <point x="307" y="124"/>
      <point x="350" y="87"/>
      <point x="426" y="87" type="curve" smooth="yes"/>
      <point x="478" y="87"/>
      <point x="529" y="107"/>
      <point x="554" y="138" type="curve" smooth="yes"/>
      <point x="574" y="162"/>
      <point x="585" y="196"/>
      <point x="598" y="270" type="curve" smooth="yes"/>
      <point x="642" y="513" type="line" smooth="yes"/>
      <point x="644" y="522"/>
      <point x="646" y="543"/>
      <point x="646" y="552" type="curve" smooth="yes"/>
      <point x="646" y="580"/>
      <point x="629" y="595"/>
      <point x="593" y="598" type="curve" smooth="yes"/>
    </contour>
    <contour>
      <point x="424" y="895" type="curve" smooth="yes"/>
      <point x="463" y="895"/>
      <point x="489" y="869"/>
      <point x="489" y="830" type="curve" smooth="yes"/>
      <point x="489" y="783"/>
      <point x="440" y="735"/>
      <point x="393" y="735" type="curve" smooth="yes"/>
      <point x="356" y="735"/>
      <point x="329" y="762"/>
      <point x="329" y="800" type="curve" smooth="yes"/>
      <point x="329" y="849"/>
      <point x="375" y="895"/>
    </contour>
    <contour>
      <point x="653" y="895" type="curve" smooth="yes"/>
      <point x="692" y="895"/>
      <point x="718" y="869"/>
      <point x="718" y="830" type="curve" smooth="yes"/>
      <point x="718" y="783"/>
      <point x="669" y="735"/>
      <point x="622" y="735" type="curve" smooth="yes"/>
      <point x="585" y="735"/>
      <point x="558" y="762"/>
      <point x="558" y="800" type="curve" smooth="yes"/>
      <point x="558" y="849"/>
      <point x="604" y="895"/>
    </contour>
  </outline>
</glyph>
<glyph name="Yacute" format="1">
  <advance width="660"/>
  <unicode hex="00DD"/>
  <outline>
    <contour>
      <point x="459" y="286" type="line"/>
      <point x="438" y="168" type="line" smooth="yes"/>
      <point x="436" y="156"/>
      <point x="434" y="139"/>
      <point x="434" y="129" type="curve" smooth="yes"/>
      <point x="434" y="101"/>
      <point x="453" y="85"/>
      <point x="487" y="83" type="curve" smooth="yes"/>
      <point x="517" y="81" type="line"/>
      <point x="502" y="0" type="line"/>
      <point x="141" y="0" type="line"/>
      <point x="156" y="81" type="line"/>
      <point x="187" y="83" type="line"/>
      <point x="239" y="90"/>
      <point x="254" y="106"/>
      <point x="267" y="168" type="curve"/>
      <point x="288" y="286" type="line"/>
      <point x="199" y="476" type="line"/>
      <point x="153" y="570"/>
      <point x="138" y="585"/>
      <point x="81" y="597" type="curve" smooth="yes"/>
      <point x="80" y="598"/>
      <point x="76" y="599"/>
      <point x="72" y="600" type="curve"/>
      <point x="87" y="681" type="line"/>
      <point x="440" y="681" type="line"/>
      <point x="425" y="600" type="line"/>
      <point x="390" y="597"/>
      <point x="370" y="595"/>
      <point x="363" y="593" type="curve" smooth="yes"/>
      <point x="350" y="590"/>
      <point x="341" y="582"/>
      <point x="341" y="573" type="curve" smooth="yes"/>
      <point x="341" y="569"/>
      <point x="342" y="565"/>
      <point x="348" y="550" type="curve" smooth="yes"/>
      <point x="425" y="369" type="line"/>
      <point x="564" y="545" type="line"/>
      <point x="583" y="567"/>
      <point x="583" y="568"/>
      <point x="583" y="576" type="curve" smooth="yes"/>
      <point x="583" y="591"/>
      <point x="573" y="594"/>
      <point x="516" y="600" type="curve"/>
      <point x="531" y="681" type="line"/>
      <point x="817" y="681" type="line"/>
      <point x="802" y="600" type="line"/>
      <point x="731" y="589"/>
      <point x="705" y="571"/>
      <point x="617" y="475" type="curve"/>
    </contour>
    <contour>
      <point x="437" y="727" type="curve"/>
      <point x="396" y="771" type="line"/>
      <point x="430" y="816"/>
      <point x="464" y="855"/>
      <point x="492" y="881" type="curve" smooth="yes"/>
      <point x="517" y="905"/>
      <point x="534" y="914"/>
      <point x="558" y="914" type="curve" smooth="yes"/>
      <point x="597" y="914"/>
      <point x="627" y="888"/>
      <point x="627" y="854" type="curve" smooth="yes"/>
      <point x="627" y="823"/>
      <point x="606" y="798"/>
      <point x="560" y="775" type="curve" smooth="yes"/>
      <point x="536" y="762"/>
      <point x="496" y="747"/>
    </contour>
  </outline>
</glyph>
<glyph name="Thorn" format="1">
  <advance width="640"/>
  <unicode hex="00DE"/>
  <outline>
    <contour>
      <point x="383" y="153" type="curve" smooth="yes"/>
      <point x="285" y="153" type="line"/>
      <point x="283" y="143"/>
      <point x="282" y="132"/>
      <point x="282" y="125" type="curve" smooth="yes"/>
      <point x="282" y="101"/>
      <point x="300" y="88"/>
      <point x="340" y="84" type="curve" smooth="yes"/>
      <point x="359" y="82" type="line"/>
      <point x="345" y="0" type="line"/>
      <point x="-6" y="0" type="line"/>
      <point x="8" y="82" type="line"/>
      <point x="29" y="84" type="line"/>
      <point x="88" y="92"/>
      <point x="101" y="105"/>
      <point x="112" y="168" type="curve" smooth="yes"/>
      <point x="172" y="512" type="line" smooth="yes"/>
      <point x="176" y="530"/>
      <point x="178" y="547"/>
      <point x="178" y="554" type="curve" smooth="yes"/>
      <point x="178" y="578"/>
      <point x="159" y="592"/>
      <point x="119" y="596" type="curve" smooth="yes"/>
      <point x="100" y="598" type="line"/>
      <point x="114" y="681" type="line"/>
      <point x="470" y="681" type="line"/>
      <point x="456" y="598" type="line"/>
      <point x="432" y="596" type="line"/>
      <point x="380" y="589"/>
      <point x="363" y="576"/>
      <point x="356" y="539" type="curve"/>
      <point x="452" y="539" type="line" smooth="yes"/>
      <point x="553" y="539"/>
      <point x="608" y="528"/>
      <point x="647" y="499" type="curve"/>
      <point x="685" y="472"/>
      <point x="701" y="439"/>
      <point x="701" y="390" type="curve" smooth="yes"/>
      <point x="701" y="235"/>
      <point x="590" y="153"/>
    </contour>
    <contour>
      <point x="300" y="243" type="line"/>
      <point x="343" y="243" type="line" smooth="yes"/>
      <point x="395" y="243"/>
      <point x="439" y="254"/>
      <point x="465" y="273" type="curve" smooth="yes"/>
      <point x="490" y="291"/>
      <point x="506" y="325"/>
      <point x="506" y="361" type="curve" smooth="yes"/>
      <point x="506" y="418"/>
      <point x="462" y="449"/>
      <point x="379" y="449" type="curve" smooth="yes"/>
      <point x="336" y="449" type="line"/>
    </contour>
  </outline>
</glyph>
<glyph name="atilde" format="1">
  <advance width="680"/>
  <unicode hex="00E3"/>
  <outline>
    <contour>
      <point x="667" y="511" type="line"/>
      <point x="609" y="189" type="line"/>
      <point x="601" y="152"/>
      <point x="601" y="151"/>
      <point x="601" y="139" type="curve" smooth="yes"/>
      <point x="601" y="116"/>
      <point x="617" y="99"/>
      <point x="639" y="99" type="curve" smooth="yes"/>
      <point x="655" y="99"/>
      <point x="670" y="106"/>
      <point x="692" y="123" type="curve"/>
      <point x="735" y="70" type="line"/>
      <point x="680" y="18"/>
      <point x="623" y="-9"/>
      <point x="567" y="-9" type="curve" smooth="yes"/>
      <point x="503" y="-9"/>
      <point x="460" y="19"/>
      <point x="446" y="70" type="curve"/>
      <point x="403" y="19"/>
      <point x="343" y="-9"/>
      <point x="279" y="-9" type="curve" smooth="yes"/>
      <point x="166" y="-9"/>
      <point x="84" y="80"/>
      <point x="84" y="204" type="curve" smooth="yes"/>
      <point x="84" y="374"/>
      <point x="222" y="520"/>
      <point x="382" y="520" type="curve" smooth="yes"/>
      <point x="432" y="520"/>
      <point x="482" y="503"/>
      <point x="518" y="473" type="curve"/>
      <point x="525" y="511" type="line"/>
    </contour>
    <contour>
      <point x="494" y="400" type="curve"/>
      <point x="459" y="422"/>
      <point x="434" y="432"/>
      <point x="409" y="432" type="curve" smooth="yes"/>
      <point x="373" y="432"/>
      <point x="338" y="411"/>
      <point x="311" y="373" type="curve" smooth="yes"/>
      <point x="278" y="328"/>
      <point x="253" y="245"/>
      <point x="253" y="182" type="curve" smooth="yes"/>
      <point x="253" y="126"/>
      <point x="280" y="91"/>
      <point x="322" y="91" type="curve" smooth="yes"/>
      <point x="360" y="91"/>
      <point x="394" y="117"/>
      <point x="425" y="170" type="curve" smooth="yes"/>
      <point x="450" y="213"/>
      <point x="465" y="264"/>
    </contour>
    <contour>
      <point x="600" y="699" type="curve"/>
      <point x="646" y="662" type="line"/>
      <point x="605" y="595"/>
      <point x="584" y="580"/>
      <point x="530" y="580" type="curve" smooth="yes"/>
      <point x="506" y="580"/>
      <point x="495" y="583"/>
      <point x="445" y="600" type="curve" smooth="yes"/>
      <point x="419" y="609"/>
      <point x="407" y="612"/>
      <point x="392" y="612" type="curve" smooth="yes"/>
      <point x="367" y="612"/>
      <point x="352" y="604"/>
      <point x="337" y="583" type="curve"/>
      <point x="291" y="619" type="line"/>
      <point x="322" y="679"/>
      <point x="355" y="703"/>
      <point x="409" y="703" type="curve" smooth="yes"/>
      <point x="436" y="703"/>
      <point x="455" y="699"/>
      <point x="491" y="686" type="curve" smooth="yes"/>
      <point x="519" y="675"/>
      <point x="532" y="672"/>
      <point x="547" y="672" type="curve" smooth="yes"/>
      <point x="572" y="672"/>
      <point x="578" y="675"/>
    </contour>
  </outline>
</glyph>
<glyph name="otilde" format="1">
  <advance width="600"/>
  <unicode hex="00F5"/>
  <outline>
    <contour>
      <point x="384" y="520" type="curve" smooth="yes"/>
      <point x="540" y="520"/>
      <point x="627" y="444"/>
      <point x="627" y="308" type="curve" smooth="yes"/>
      <point x="627" y="233"/>
      <point x="590" y="143"/>
      <point x="537" y="87" type="curve" smooth="yes"/>
      <point x="479" y="25"/>
      <point x="395" y="-9"/>
      <point x="301" y="-9" type="curve" smooth="yes"/>
      <point x="152" y="-9"/>
      <point x="59" y="70"/>
      <point x="59" y="195" type="curve" smooth="yes"/>
      <point x="59" y="284"/>
      <point x="99" y="379"/>
      <point x="162" y="439" type="curve" smooth="yes"/>
      <point x="217" y="491"/>
      <point x="296" y="520"/>
    </contour>
    <contour>
      <point x="380" y="432" type="curve" smooth="yes"/>
      <point x="335" y="432"/>
      <point x="305" y="410"/>
      <point x="278" y="358" type="curve" smooth="yes"/>
      <point x="254" y="312"/>
      <point x="232" y="220"/>
      <point x="232" y="165" type="curve" smooth="yes"/>
      <point x="232" y="111"/>
      <point x="260" y="79"/>
      <point x="309" y="79" type="curve" smooth="yes"/>
      <point x="353" y="79"/>
      <point x="388" y="104"/>
      <point x="413" y="153" type="curve" smooth="yes"/>
      <point x="436" y="197"/>
      <point x="459" y="289"/>
      <point x="459" y="337" type="curve" smooth="yes"/>
      <point x="459" y="403"/>
      <point x="435" y="432"/>
    </contour>
    <contour>
      <point x="560" y="699" type="curve"/>
      <point x="606" y="662" type="line"/>
      <point x="565" y="595"/>
      <point x="544" y="580"/>
      <point x="490" y="580" type="curve" smooth="yes"/>
      <point x="466" y="580"/>
      <point x="455" y="583"/>
      <point x="405" y="600" type="curve" smooth="yes"/>
      <point x="379" y="609"/>
      <point x="367" y="612"/>
      <point x="352" y="612" type="curve" smooth="yes"/>
      <point x="327" y="612"/>
      <point x="312" y="604"/>
      <point x="297" y="583" type="curve"/>
      <point x="251" y="619" type="line"/>
      <point x="282" y="679"/>
      <point x="315" y="703"/>
      <point x="369" y="703" type="curve" smooth="yes"/>
      <point x="396" y="703"/>
      <point x="415" y="699"/>
      <point x="451" y="686" type="curve" smooth="yes"/>
      <point x="479" y="675"/>
      <point x="492" y="672"/>
      <point x="507" y="672" type="curve" smooth="yes"/>
      <point x="532" y="672"/>
      <point x="538" y="675"/>
    </contour>
  </outline>
</glyph>
<glyph name="divide" format="1">
  <advance width="600"/>
  <unicode hex="00F7"/>
  <outline>
    <contour>
      <point x="595" y="293" type="line"/>
      <point x="91" y="293" type="line"/>
      <point x="91" y="407" type="line"/>
      <point x="595" y="407" type="line"/>
    </contour>
    <contour>
      <point x="344" y="231" type="curve" smooth="yes"/>
      <point x="388" y="231"/>
      <point x="424" y="194"/>
      <point x="424" y="150" type="curve" smooth="yes"/>
      <point x="424" y="105"/>
      <point x="387" y="69"/>
      <point x="343" y="69" type="curve" smooth="yes"/>
      <point x="298" y="69"/>
      <point x="262" y="106"/>
      <point x="262" y="151" type="curve" smooth="yes"/>
      <point x="262" y="195"/>
      <point x="299" y="231"/>
    </contour>
    <contour>
      <point x="344" y="631" type="curve" smooth="yes"/>
      <point x="388" y="631"/>
      <point x="424" y="594"/>
      <point x="424" y="550" type="curve" smooth="yes"/>
      <point x="424" y="505"/>
      <point x="388" y="469"/>
      <point x="343" y="469" type="curve" smooth="yes"/>
      <point x="298" y="469"/>
      <point x="262" y="506"/>
      <point x="262" y="551" type="curve" smooth="yes"/>
      <point x="262" y="595"/>
      <point x="299" y="631"/>
    </contour>
  </outline>
</glyph>
<glyph name="thorn" format="1">
  <advance width="660"/>
  <unicode hex="00FE"/>
  <outline>
    <contour>
      <point x="262" y="27" type="curve"/>
      <point x="244" y="-69" type="line" smooth="yes"/>
      <point x="243" y="-75"/>
      <point x="242" y="-82"/>
      <point x="242" y="-88" type="curve" smooth="yes"/>
      <point x="241" y="-116"/>
      <point x="260" y="-131"/>
      <point x="300" y="-131" type="curve" smooth="yes"/>
      <point x="327" y="-131" type="line"/>
      <point x="312" y="-213" type="line"/>
      <point x="-24" y="-213" type="line"/>
      <point x="-9" y="-131" type="line"/>
      <point x="8" y="-131" type="line" smooth="yes"/>
      <point x="29" y="-131"/>
      <point x="55" y="-123"/>
      <point x="66" y="-113" type="curve" smooth="yes"/>
      <point x="75" y="-106"/>
      <point x="83" y="-87"/>
      <point x="86" y="-69" type="curve" smooth="yes"/>
      <point x="197" y="542" type="line" smooth="yes"/>
      <point x="201" y="564"/>
      <point x="202" y="570"/>
      <point x="202" y="579" type="curve" smooth="yes"/>
      <point x="202" y="588"/>
      <point x="199" y="595"/>
      <point x="196" y="599" type="curve"/>
      <point x="187" y="606"/>
      <point x="159" y="615"/>
      <point x="143" y="615" type="curve" smooth="yes"/>
      <point x="131" y="615" type="line"/>
      <point x="145" y="697" type="line"/>
      <point x="220" y="701"/>
      <point x="262" y="708"/>
      <point x="337" y="732" type="curve"/>
      <point x="390" y="732" type="line"/>
      <point x="339" y="451" type="line"/>
      <point x="391" y="501"/>
      <point x="434" y="520"/>
      <point x="491" y="520" type="curve" smooth="yes"/>
      <point x="603" y="520"/>
      <point x="682" y="432"/>
      <point x="682" y="308" type="curve" smooth="yes"/>
      <point x="682" y="140"/>
      <point x="543" y="-9"/>
      <point x="388" y="-9" type="curve" smooth="yes"/>
      <point x="346" y="-9"/>
      <point x="330" y="-5"/>
      <point x="272" y="22" type="curve" smooth="yes"/>
      <point x="271" y="23"/>
      <point x="267" y="24"/>
    </contour>
    <contour>
      <point x="278" y="110" type="curve"/>
      <point x="304" y="91"/>
      <point x="337" y="79"/>
      <point x="368" y="79" type="curve" smooth="yes"/>
      <point x="410" y="79"/>
      <point x="445" y="105"/>
      <point x="472" y="158" type="curve" smooth="yes"/>
      <point x="496" y="203"/>
      <point x="513" y="273"/>
      <point x="513" y="323" type="curve" smooth="yes"/>
      <point x="513" y="389"/>
      <point x="490" y="424"/>
      <point x="447" y="424" type="curve" smooth="yes"/>
      <point x="404" y="424"/>
      <point x="361" y="382"/>
      <point x="332" y="312" type="curve" smooth="yes"/>
      <point x="315" y="270"/>
      <point x="299" y="210"/>
    </contour>
  </outline>
</glyph>
<glyph name="Aogonek" format="1">
  <advance width="720"/>
  <unicode hex="0104"/>
  <outline>
    <contour>
      <point x="769" y="81" type="curve"/>
      <point x="754" y="0" type="line"/>
      <point x="716" y="-34"/>
      <point x="705" y="-49"/>
      <point x="705" y="-70" type="curve" smooth="yes"/>
      <point x="705" y="-93"/>
      <point x="725" y="-109"/>
      <point x="754" y="-109" type="curve" smooth="yes"/>
      <point x="766" y="-109"/>
      <point x="778" y="-106"/>
      <point x="797" y="-100" type="curve"/>
      <point x="784" y="-161" type="line"/>
      <point x="757" y="-174"/>
      <point x="735" y="-179"/>
      <point x="708" y="-179" type="curve" smooth="yes"/>
      <point x="650" y="-179"/>
      <point x="612" y="-148"/>
      <point x="612" y="-101" type="curve" smooth="yes"/>
      <point x="612" y="-58"/>
      <point x="630" y="-38"/>
      <point x="701" y="0" type="curve"/>
      <point x="402" y="0" type="line"/>
      <point x="417" y="81" type="line"/>
      <point x="431" y="83" type="line"/>
      <point x="450" y="85" type="line"/>
      <point x="493" y="91"/>
      <point x="507" y="99"/>
      <point x="507" y="119" type="curve" smooth="yes"/>
      <point x="507" y="128"/>
      <point x="504" y="146"/>
      <point x="500" y="165" type="curve" smooth="yes"/>
      <point x="484" y="242" type="line"/>
      <point x="262" y="242" type="line"/>
      <point x="216" y="155" type="line" smooth="yes"/>
      <point x="201" y="126"/>
      <point x="200" y="125"/>
      <point x="200" y="113" type="curve" smooth="yes"/>
      <point x="200" y="96"/>
      <point x="217" y="88"/>
      <point x="258" y="83" type="curve" smooth="yes"/>
      <point x="277" y="81" type="line"/>
      <point x="262" y="0" type="line"/>
      <point x="-27" y="0" type="line"/>
      <point x="-12" y="81" type="line"/>
      <point x="55" y="97"/>
      <point x="86" y="120"/>
      <point x="116" y="177" type="curve"/>
      <point x="124" y="190"/>
      <point x="130" y="202"/>
      <point x="135" y="210" type="curve" smooth="yes"/>
      <point x="413" y="681" type="line"/>
      <point x="564" y="681" type="line"/>
      <point x="680" y="178" type="line" smooth="yes"/>
      <point x="691" y="134"/>
      <point x="696" y="119"/>
      <point x="701" y="112" type="curve" smooth="yes"/>
      <point x="712" y="95"/>
      <point x="715" y="94"/>
      <point x="757" y="84" type="curve" smooth="yes"/>
      <point x="759" y="84"/>
      <point x="764" y="82"/>
    </contour>
    <contour>
      <point x="469" y="320" type="line"/>
      <point x="428" y="538" type="line"/>
      <point x="305" y="320" type="line"/>
    </contour>
  </outline>
</glyph>
<glyph name="dcroat" format="1">
  <advance width="680"/>
  <unicode hex="0111"/>
  <outline>
    <contour>
      <point x="650" y="532" type="line"/>
      <point x="591" y="209" type="line" smooth="yes"/>
      <point x="586" y="179"/>
      <point x="583" y="156"/>
      <point x="583" y="141" type="curve" smooth="yes"/>
      <point x="583" y="119"/>
      <point x="599" y="103"/>
      <point x="620" y="103" type="curve" smooth="yes"/>
      <point x="636" y="103"/>
      <point x="638" y="104"/>
      <point x="666" y="125" type="curve"/>
      <point x="671" y="129" type="line"/>
      <point x="714" y="72" type="line"/>
      <point x="665" y="22"/>
      <point x="599" y="-9"/>
      <point x="542" y="-9" type="curve" smooth="yes"/>
      <point x="478" y="-9"/>
      <point x="435" y="20"/>
      <point x="422" y="72" type="curve"/>
      <point x="382" y="35" type="line"/>
      <point x="349" y="8"/>
      <point x="301" y="-9"/>
      <point x="257" y="-9" type="curve" smooth="yes"/>
      <point x="144" y="-9"/>
      <point x="60" y="83"/>
      <point x="60" y="205" type="curve" smooth="yes"/>
      <point x="60" y="360"/>
      <point x="195" y="494"/>
      <point x="353" y="494" type="curve" smooth="yes"/>
      <point x="393" y="494"/>
      <point x="439" y="481"/>
      <point x="475" y="460" type="curve"/>
      <point x="488" y="532" type="line"/>
      <point x="313" y="532" type="line"/>
      <point x="321" y="579" type="line"/>
      <point x="496" y="579" type="line"/>
      <point x="497" y="585"/>
      <point x="497" y="588"/>
      <point x="497" y="591" type="curve" smooth="yes"/>
      <point x="497" y="599"/>
      <point x="494" y="608"/>
      <point x="491" y="611" type="curve" smooth="yes"/>
      <point x="483" y="619"/>
      <point x="456" y="627"/>
      <point x="440" y="627" type="curve" smooth="yes"/>
      <point x="428" y="627" type="line"/>
      <point x="440" y="693" type="line"/>
      <point x="508" y="694"/>
      <point x="574" y="708"/>
      <point x="629" y="732" type="curve"/>
      <point x="686" y="732" type="line"/>
      <point x="659" y="579" type="line"/>
      <point x="742" y="579" type="line"/>
      <point x="734" y="532" type="line"/>
    </contour>
    <contour>
      <point x="459" y="376" type="curve"/>
      <point x="431" y="398"/>
      <point x="408" y="406"/>
      <point x="377" y="406" type="curve" smooth="yes"/>
      <point x="297" y="406"/>
      <point x="228" y="305"/>
      <point x="228" y="189" type="curve" smooth="yes"/>
      <point x="228" y="123"/>
      <point x="253" y="87"/>
      <point x="298" y="87" type="curve" smooth="yes"/>
      <point x="327" y="87"/>
      <point x="356" y="105"/>
      <point x="383" y="139" type="curve" smooth="yes"/>
      <point x="417" y="183"/>
      <point x="435" y="240"/>
    </contour>
  </outline>
</glyph>
<glyph name="Hbar" format="1">
  <advance width="800"/>
  <unicode hex="0126"/>
  <outline>
    <contour>
      <point x="334" y="323" type="line"/>
      <point x="305" y="168" type="line" smooth="yes"/>
      <point x="304" y="160"/>
      <point x="302" y="137"/>
      <point x="302" y="128" type="curve" smooth="yes"/>
      <point x="302" y="101"/>
      <point x="319" y="86"/>
      <point x="355" y="83" type="curve" smooth="yes"/>
      <point x="377" y="81" type="line"/>
      <point x="362" y="0" type="line"/>
      <point x="14" y="0" type="line"/>
      <point x="29" y="81" type="line"/>
      <point x="51" y="83" type="line"/>
      <point x="104" y="90"/>
      <point x="119" y="106"/>
      <point x="131" y="168" type="curve" smooth="yes"/>
      <point x="184" y="457" type="line"/>
      <point x="109" y="457" type="line"/>
      <point x="123" y="533" type="line"/>
      <point x="197" y="533" type="line"/>
      <point x="197" y="540"/>
      <point x="198" y="547"/>
      <point x="198" y="552" type="curve" smooth="yes"/>
      <point x="198" y="580"/>
      <point x="181" y="595"/>
      <point x="145" y="598" type="curve" smooth="yes"/>
      <point x="123" y="600" type="line"/>
      <point x="137" y="681" type="line"/>
      <point x="485" y="681" type="line"/>
      <point x="471" y="600" type="line"/>
      <point x="448" y="598" type="line"/>
      <point x="402" y="592"/>
      <point x="385" y="579"/>
      <point x="373" y="533" type="curve"/>
      <point x="621" y="533" type="line"/>
      <point x="622" y="540"/>
      <point x="622" y="547"/>
      <point x="622" y="552" type="curve" smooth="yes"/>
      <point x="622" y="580"/>
      <point x="605" y="595"/>
      <point x="569" y="598" type="curve" smooth="yes"/>
      <point x="547" y="600" type="line"/>
      <point x="562" y="681" type="line"/>
      <point x="910" y="681" type="line"/>
      <point x="895" y="600" type="line"/>
      <point x="873" y="598" type="line"/>
      <point x="826" y="592"/>
      <point x="809" y="579"/>
      <point x="797" y="533" type="curve"/>
      <point x="867" y="533" type="line"/>
      <point x="853" y="457" type="line"/>
      <point x="783" y="457" type="line"/>
      <point x="730" y="168" type="line" smooth="yes"/>
      <point x="728" y="157"/>
      <point x="726" y="138"/>
      <point x="726" y="129" type="curve" smooth="yes"/>
      <point x="726" y="101"/>
      <point x="743" y="86"/>
      <point x="779" y="83" type="curve" smooth="yes"/>
      <point x="801" y="81" type="line"/>
      <point x="786" y="0" type="line"/>
      <point x="438" y="0" type="line"/>
      <point x="453" y="81" type="line"/>
      <point x="476" y="83" type="line"/>
      <point x="528" y="90"/>
      <point x="543" y="105"/>
      <point x="556" y="168" type="curve"/>
      <point x="584" y="323" type="line"/>
    </contour>
    <contour>
      <point x="608" y="457" type="line"/>
      <point x="358" y="457" type="line"/>
      <point x="350" y="413" type="line"/>
      <point x="600" y="413" type="line"/>
    </contour>
  </outline>
</glyph>
<glyph name="Itilde" format="1">
  <advance width="380"/>
  <unicode hex="0128"/>
  <outline>
    <contour>
      <point x="472" y="900" type="curve"/>
      <point x="518" y="863" type="line"/>
      <point x="477" y="796"/>
      <point x="456" y="781"/>
      <point x="402" y="781" type="curve" smooth="yes"/>
      <point x="378" y="781"/>
      <point x="367" y="784"/>
      <point x="317" y="801" type="curve" smooth="yes"/>
      <point x="291" y="810"/>
      <point x="279" y="813"/>
      <point x="264" y="813" type="curve" smooth="yes"/>
      <point x="239" y="813"/>
      <point x="224" y="805"/>
      <point x="209" y="784" type="curve"/>
      <point x="163" y="820" type="line"/>
      <point x="194" y="880"/>
      <point x="227" y="904"/>
      <point x="281" y="904" type="curve" smooth="yes"/>
      <point x="308" y="904"/>
      <point x="327" y="900"/>
      <point x="363" y="887" type="curve" smooth="yes"/>
      <point x="391" y="876"/>
      <point x="404" y="873"/>
      <point x="419" y="873" type="curve" smooth="yes"/>
      <point x="444" y="873"/>
      <point x="450" y="876"/>
    </contour>
    <contour>
      <point x="123" y="600" type="line"/>
      <point x="137" y="681" type="line"/>
      <point x="485" y="681" type="line"/>
      <point x="470" y="600" type="line"/>
      <point x="448" y="598" type="line"/>
      <point x="395" y="591"/>
      <point x="381" y="575"/>
      <point x="368" y="513" type="curve"/>
      <point x="305" y="168" type="line" smooth="yes"/>
      <point x="304" y="161"/>
      <point x="302" y="137"/>
      <point x="302" y="128" type="curve" smooth="yes"/>
      <point x="302" y="101"/>
      <point x="319" y="86"/>
      <point x="355" y="83" type="curve" smooth="yes"/>
      <point x="376" y="81" type="line"/>
      <point x="361" y="0" type="line"/>
      <point x="14" y="0" type="line"/>
      <point x="29" y="81" type="line"/>
      <point x="51" y="83" type="line"/>
      <point x="104" y="90"/>
      <point x="118" y="106"/>
      <point x="131" y="168" type="curve"/>
      <point x="194" y="513" type="line" smooth="yes"/>
      <point x="195" y="521"/>
      <point x="197" y="543"/>
      <point x="197" y="552" type="curve" smooth="yes"/>
      <point x="197" y="580"/>
      <point x="180" y="595"/>
      <point x="144" y="598" type="curve" smooth="yes"/>
    </contour>
  </outline>
</glyph>
<glyph name="Ibreve" format="1">
  <advance width="380"/>
  <unicode hex="012C"/>
  <outline>
    <contour>
      <point x="451" y="921" type="curve"/>
      <point x="524" y="921" type="line"/>
      <point x="512" y="865"/>
      <point x="501" y="842"/>
      <point x="476" y="820" type="curve" smooth="yes"/>
      <point x="448" y="794"/>
      <point x="403" y="781"/>
      <point x="347" y="781" type="curve" smooth="yes"/>
      <point x="242" y="781"/>
      <point x="197" y="820"/>
      <point x="185" y="921" type="curve"/>
      <point x="258" y="921" type="line"/>
      <point x="272" y="878"/>
      <point x="295" y="864"/>
      <point x="351" y="864" type="curve" smooth="yes"/>
      <point x="406" y="864"/>
      <point x="433" y="880"/>
    </contour>
    <contour>
      <point x="123" y="600" type="line"/>
      <point x="137" y="681" type="line"/>
      <point x="485" y="681" type="line"/>
      <point x="470" y="600" type="line"/>
      <point x="448" y="598" type="line"/>
      <point x="395" y="591"/>
      <point x="381" y="575"/>
      <point x="368" y="513" type="curve"/>
      <point x="305" y="168" type="line" smooth="yes"/>
      <point x="304" y="161"/>
      <point x="302" y="137"/>
      <point x="302" y="128" type="curve" smooth="yes"/>
      <point x="302" y="101"/>
      <point x="319" y="86"/>
      <point x="355" y="83" type="curve" smooth="yes"/>
      <point x="376" y="81" type="line"/>
      <point x="361" y="0" type="line"/>
      <point x="14" y="0" type="line"/>
      <point x="29" y="81" type="line"/>
      <point x="51" y="83" type="line"/>
      <point x="104" y="90"/>
      <point x="118" y="106"/>
      <point x="131" y="168" type="curve"/>
      <point x="194" y="513" type="line" smooth="yes"/>
      <point x="195" y="521"/>
      <point x="197" y="543"/>
      <point x="197" y="552" type="curve" smooth="yes"/>
      <point x="197" y="580"/>
      <point x="180" y="595"/>
      <point x="144" y="598" type="curve" smooth="yes"/>
    </contour>
  </outline>
</glyph>
<glyph name="iogonek" format="1">
  <advance width="380"/>
  <unicode hex="012F"/>
  <outline>
    <contour>
      <point x="378" y="121" type="curve"/>
      <point x="420" y="65" type="line"/>
      <point x="404" y="52"/>
      <point x="392" y="43"/>
      <point x="371" y="30" type="curve" smooth="yes"/>
      <point x="314" y="-4"/>
      <point x="314" y="-4"/>
      <point x="299" y="-19" type="curve" smooth="yes"/>
      <point x="278" y="-41"/>
      <point x="271" y="-53"/>
      <point x="271" y="-70" type="curve" smooth="yes"/>
      <point x="271" y="-93"/>
      <point x="291" y="-109"/>
      <point x="320" y="-109" type="curve" smooth="yes"/>
      <point x="332" y="-109"/>
      <point x="344" y="-106"/>
      <point x="363" y="-100" type="curve"/>
      <point x="350" y="-161" type="line"/>
      <point x="323" y="-174"/>
      <point x="301" y="-179"/>
      <point x="274" y="-179" type="curve" smooth="yes"/>
      <point x="217" y="-179"/>
      <point x="178" y="-148"/>
      <point x="178" y="-101" type="curve" smooth="yes"/>
      <point x="178" y="-61"/>
      <point x="195" y="-40"/>
      <point x="251" y="-9" type="curve"/>
      <point x="240" y="-9" type="line" smooth="yes"/>
      <point x="163" y="-9"/>
      <point x="111" y="31"/>
      <point x="111" y="90" type="curve" smooth="yes"/>
      <point x="111" y="104"/>
      <point x="112" y="116"/>
      <point x="117" y="139" type="curve" smooth="yes"/>
      <point x="150" y="321" type="line" smooth="yes"/>
      <point x="152" y="334"/>
      <point x="154" y="351"/>
      <point x="154" y="358" type="curve" smooth="yes"/>
      <point x="154" y="367"/>
      <point x="152" y="374"/>
      <point x="148" y="378" type="curve" smooth="yes"/>
      <point x="139" y="385"/>
      <point x="112" y="394"/>
      <point x="95" y="394" type="curve" smooth="yes"/>
      <point x="83" y="394" type="line"/>
      <point x="98" y="476" type="line"/>
      <point x="173" y="480"/>
      <point x="214" y="487"/>
      <point x="290" y="511" type="curve"/>
      <point x="342" y="511" type="line"/>
      <point x="285" y="195" type="line" smooth="yes"/>
      <point x="282" y="181"/>
      <point x="281" y="172"/>
      <point x="280" y="168" type="curve" smooth="yes"/>
      <point x="277" y="154"/>
      <point x="275" y="141"/>
      <point x="275" y="134" type="curve" smooth="yes"/>
      <point x="275" y="115"/>
      <point x="293" y="99"/>
      <point x="314" y="99" type="curve" smooth="yes"/>
      <point x="327" y="99"/>
      <point x="350" y="107"/>
    </contour>
    <contour>
      <point x="297" y="762" type="curve" smooth="yes"/>
      <point x="345" y="762"/>
      <point x="377" y="729"/>
      <point x="377" y="682" type="curve" smooth="yes"/>
      <point x="377" y="625"/>
      <point x="320" y="569"/>
      <point x="262" y="569" type="curve" smooth="yes"/>
      <point x="216" y="569"/>
      <point x="184" y="602"/>
      <point x="184" y="649" type="curve" smooth="yes"/>
      <point x="184" y="707"/>
      <point x="240" y="762"/>
    </contour>
  </outline>
</glyph>
<glyph name="lacute" format="1">
  <advance width="380"/>
  <unicode hex="013A"/>
  <outline>
    <contour>
      <point x="370" y="117" type="curve"/>
      <point x="410" y="57" type="line"/>
      <point x="355" y="14"/>
      <point x="296" y="-9"/>
      <point x="239" y="-9" type="curve" smooth="yes"/>
      <point x="161" y="-9"/>
      <point x="109" y="28"/>
      <point x="109" y="84" type="curve" smooth="yes"/>
      <point x="109" y="91"/>
      <point x="110" y="103"/>
      <point x="113" y="117" type="curve" smooth="yes"/>
      <point x="189" y="539" type="line" smooth="yes"/>
      <point x="192" y="551"/>
      <point x="194" y="571"/>
      <point x="194" y="577" type="curve" smooth="yes"/>
      <point x="194" y="585"/>
      <point x="191" y="593"/>
      <point x="188" y="596" type="curve" smooth="yes"/>
      <point x="179" y="604"/>
      <point x="154" y="612"/>
      <point x="137" y="612" type="curve" smooth="yes"/>
      <point x="126" y="612" type="line"/>
      <point x="140" y="694" type="line"/>
      <point x="206" y="694"/>
      <point x="276" y="708"/>
      <point x="329" y="732" type="curve"/>
      <point x="383" y="732" type="line"/>
      <point x="279" y="160" type="line" smooth="yes"/>
      <point x="277" y="150"/>
      <point x="276" y="141"/>
      <point x="276" y="134" type="curve" smooth="yes"/>
      <point x="276" y="114"/>
      <point x="292" y="99"/>
      <point x="312" y="99" type="curve" smooth="yes"/>
      <point x="327" y="99"/>
      <point x="346" y="105"/>
    </contour>
    <contour>
      <point x="237" y="727" type="curve"/>
      <point x="196" y="771" type="line"/>
      <point x="230" y="816"/>
      <point x="264" y="855"/>
      <point x="292" y="881" type="curve" smooth="yes"/>
      <point x="317" y="905"/>
      <point x="334" y="914"/>
      <point x="358" y="914" type="curve" smooth="yes"/>
      <point x="397" y="914"/>
      <point x="427" y="888"/>
      <point x="427" y="854" type="curve" smooth="yes"/>
      <point x="427" y="823"/>
      <point x="406" y="798"/>
      <point x="360" y="775" type="curve" smooth="yes"/>
      <point x="336" y="762"/>
      <point x="296" y="747"/>
    </contour>
  </outline>
</glyph>
<glyph name="lcaron" format="1">
  <advance width="509"/>
  <unicode hex="013E"/>
  <outline>
    <contour>
      <point x="370" y="117" type="curve"/>
      <point x="410" y="57" type="line"/>
      <point x="355" y="14"/>
      <point x="296" y="-9"/>
      <point x="239" y="-9" type="curve" smooth="yes"/>
      <point x="161" y="-9"/>
      <point x="109" y="28"/>
      <point x="109" y="84" type="curve" smooth="yes"/>
      <point x="109" y="91"/>
      <point x="110" y="103"/>
      <point x="113" y="117" type="curve" smooth="yes"/>
      <point x="189" y="539" type="line" smooth="yes"/>
      <point x="192" y="551"/>
      <point x="194" y="571"/>
      <point x="194" y="577" type="curve" smooth="yes"/>
      <point x="194" y="585"/>
      <point x="191" y="593"/>
      <point x="188" y="596" type="curve" smooth="yes"/>
      <point x="179" y="604"/>
      <point x="154" y="612"/>
      <point x="137" y="612" type="curve" smooth="yes"/>
      <point x="126" y="612" type="line"/>
      <point x="140" y="694" type="line"/>
      <point x="206" y="694"/>
      <point x="276" y="708"/>
      <point x="329" y="732" type="curve"/>
      <point x="383" y="732" type="line"/>
      <point x="279" y="160" type="line" smooth="yes"/>
      <point x="277" y="150"/>
      <point x="276" y="141"/>
      <point x="276" y="134" type="curve" smooth="yes"/>
      <point x="276" y="114"/>
      <point x="292" y="99"/>
      <point x="312" y="99" type="curve" smooth="yes"/>
      <point x="327" y="99"/>
      <point x="346" y="105"/>
    </contour>
    <contour>
      <point x="426" y="462" type="curve"/>
      <point x="392" y="494" type="line"/>
      <point x="429" y="527"/>
      <point x="457" y="558"/>
      <point x="464" y="573" type="curve"/>
      <point x="458" y="572"/>
      <point x="455" y="572"/>
      <point x="451" y="572" type="curve" smooth="yes"/>
      <point x="414" y="572"/>
      <point x="391" y="597"/>
      <point x="391" y="636" type="curve" smooth="yes"/>
      <point x="391" y="690"/>
      <point x="442" y="740"/>
      <point x="499" y="740" type="curve" smooth="yes"/>
      <point x="540" y="740"/>
      <point x="569" y="710"/>
      <point x="569" y="666" type="curve" smooth="yes"/>
      <point x="569" y="600"/>
      <point x="512" y="518"/>
    </contour>
  </outline>
</glyph>
<glyph name="ldot" format="1">
  <advance width="586"/>
  <unicode hex="0140"/>
  <outline>
    <contour>
      <point x="483" y="388" type="curve" smooth="yes"/>
      <point x="526" y="388"/>
      <point x="558" y="355"/>
      <point x="558" y="310" type="curve" smooth="yes"/>
      <point x="558" y="255"/>
      <point x="504" y="203"/>
      <point x="446" y="203" type="curve" smooth="yes"/>
      <point x="402" y="203"/>
      <point x="368" y="235"/>
      <point x="368" y="276" type="curve" smooth="yes"/>
      <point x="368" y="336"/>
      <point x="422" y="388"/>
    </contour>
    <contour>
      <point x="370" y="117" type="curve"/>
      <point x="410" y="57" type="line"/>
      <point x="355" y="14"/>
      <point x="296" y="-9"/>
      <point x="239" y="-9" type="curve" smooth="yes"/>
      <point x="161" y="-9"/>
      <point x="109" y="28"/>
      <point x="109" y="84" type="curve" smooth="yes"/>
      <point x="109" y="91"/>
      <point x="110" y="103"/>
      <point x="113" y="117" type="curve" smooth="yes"/>
      <point x="189" y="539" type="line" smooth="yes"/>
      <point x="192" y="551"/>
      <point x="194" y="571"/>
      <point x="194" y="577" type="curve" smooth="yes"/>
      <point x="194" y="585"/>
      <point x="191" y="593"/>
      <point x="188" y="596" type="curve" smooth="yes"/>
      <point x="179" y="604"/>
      <point x="154" y="612"/>
      <point x="137" y="612" type="curve" smooth="yes"/>
      <point x="126" y="612" type="line"/>
      <point x="140" y="694" type="line"/>
      <point x="206" y="694"/>
      <point x="276" y="708"/>
      <point x="329" y="732" type="curve"/>
      <point x="383" y="732" type="line"/>
      <point x="279" y="160" type="line" smooth="yes"/>
      <point x="277" y="150"/>
      <point x="276" y="141"/>
      <point x="276" y="134" type="curve" smooth="yes"/>
      <point x="276" y="114"/>
      <point x="292" y="99"/>
      <point x="312" y="99" type="curve" smooth="yes"/>
      <point x="327" y="99"/>
      <point x="346" y="105"/>
    </contour>
  </outline>
</glyph>
<glyph name="ncommaaccent" format="1">
  <advance width="680"/>
  <unicode hex="0146"/>
  <outline>
    <contour>
      <point x="249" y="0" type="line"/>
      <point x="91" y="0" type="line"/>
      <point x="150" y="321" type="line" smooth="yes"/>
      <point x="152" y="334"/>
      <point x="154" y="351"/>
      <point x="154" y="358" type="curve" smooth="yes"/>
      <point x="154" y="367"/>
      <point x="152" y="374"/>
      <point x="148" y="378" type="curve" smooth="yes"/>
      <point x="139" y="385"/>
      <point x="112" y="394"/>
      <point x="95" y="394" type="curve" smooth="yes"/>
      <point x="83" y="394" type="line"/>
      <point x="98" y="476" type="line"/>
      <point x="173" y="480"/>
      <point x="214" y="487"/>
      <point x="290" y="511" type="curve"/>
      <point x="342" y="511" type="line"/>
      <point x="333" y="460" type="line"/>
      <point x="376" y="496"/>
      <point x="442" y="520"/>
      <point x="499" y="520" type="curve" smooth="yes"/>
      <point x="583" y="520"/>
      <point x="643" y="475"/>
      <point x="643" y="412" type="curve" smooth="yes"/>
      <point x="643" y="398"/>
      <point x="642" y="387"/>
      <point x="636" y="358" type="curve" smooth="yes"/>
      <point x="605" y="183" type="line" smooth="yes"/>
      <point x="597" y="142"/>
      <point x="597" y="142"/>
      <point x="597" y="133" type="curve" smooth="yes"/>
      <point x="597" y="112"/>
      <point x="611" y="99"/>
      <point x="634" y="99" type="curve" smooth="yes"/>
      <point x="647" y="99"/>
      <point x="655" y="102"/>
      <point x="676" y="115" type="curve"/>
      <point x="715" y="59" type="line"/>
      <point x="658" y="12"/>
      <point x="609" y="-9"/>
      <point x="557" y="-9" type="curve" smooth="yes"/>
      <point x="483" y="-9"/>
      <point x="432" y="31"/>
      <point x="432" y="89" type="curve" smooth="yes"/>
      <point x="432" y="100"/>
      <point x="434" y="116"/>
      <point x="437" y="134" type="curve" smooth="yes"/>
      <point x="476" y="341" type="line" smooth="yes"/>
      <point x="477" y="347"/>
      <point x="477" y="349"/>
      <point x="477" y="359" type="curve" smooth="yes"/>
      <point x="477" y="390"/>
      <point x="454" y="408"/>
      <point x="416" y="408" type="curve" smooth="yes"/>
      <point x="381" y="408"/>
      <point x="345" y="395"/>
      <point x="317" y="373" type="curve"/>
    </contour>
    <contour>
      <point x="271" y="-328" type="curve"/>
      <point x="237" y="-296" type="line"/>
      <point x="274" y="-263"/>
      <point x="302" y="-232"/>
      <point x="309" y="-217" type="curve"/>
      <point x="303" y="-218"/>
      <point x="300" y="-218"/>
      <point x="296" y="-218" type="curve" smooth="yes"/>
      <point x="259" y="-218"/>
      <point x="236" y="-193"/>
      <point x="236" y="-154" type="curve" smooth="yes"/>
      <point x="236" y="-100"/>
      <point x="287" y="-50"/>
      <point x="344" y="-50" type="curve" smooth="yes"/>
      <point x="385" y="-50"/>
      <point x="414" y="-80"/>
      <point x="414" y="-124" type="curve" smooth="yes"/>
      <point x="414" y="-190"/>
      <point x="357" y="-272"/>
    </contour>
  </outline>
</glyph>
<glyph name="napostrophe" format="1">
  <advance width="680"/>
  <unicode hex="0149"/>
  <outline>
    <contour>
      <point x="222" y="523" type="curve"/>
      <point x="188" y="555" type="line"/>
      <point x="225" y="588"/>
      <point x="253" y="619"/>
      <point x="260" y="634" type="curve"/>
      <point x="254" y="633"/>
      <point x="251" y="633"/>
      <point x="247" y="633" type="curve" smooth="yes"/>
      <point x="210" y="633"/>
      <point x="187" y="658"/>
      <point x="187" y="697" type="curve" smooth="yes"/>
      <point x="187" y="751"/>
      <point x="238" y="801"/>
      <point x="295" y="801" type="curve" smooth="yes"/>
      <point x="336" y="801"/>
      <point x="365" y="771"/>
      <point x="365" y="728" type="curve" smooth="yes"/>
      <point x="365" y="661"/>
      <point x="308" y="579"/>
    </contour>
    <contour>
      <point x="249" y="0" type="line"/>
      <point x="91" y="0" type="line"/>
      <point x="150" y="321" type="line" smooth="yes"/>
      <point x="152" y="334"/>
      <point x="154" y="351"/>
      <point x="154" y="358" type="curve" smooth="yes"/>
      <point x="154" y="367"/>
      <point x="152" y="374"/>
      <point x="148" y="378" type="curve" smooth="yes"/>
      <point x="139" y="385"/>
      <point x="112" y="394"/>
      <point x="95" y="394" type="curve" smooth="yes"/>
      <point x="83" y="394" type="line"/>
      <point x="98" y="476" type="line"/>
      <point x="173" y="480"/>
      <point x="214" y="487"/>
      <point x="290" y="511" type="curve"/>
      <point x="342" y="511" type="line"/>
      <point x="333" y="460" type="line"/>
      <point x="376" y="496"/>
      <point x="442" y="520"/>
      <point x="499" y="520" type="curve" smooth="yes"/>
      <point x="583" y="520"/>
      <point x="643" y="475"/>
      <point x="643" y="412" type="curve" smooth="yes"/>
      <point x="643" y="398"/>
      <point x="642" y="387"/>
      <point x="636" y="358" type="curve" smooth="yes"/>
      <point x="605" y="183" type="line" smooth="yes"/>
      <point x="597" y="142"/>
      <point x="597" y="142"/>
      <point x="597" y="133" type="curve" smooth="yes"/>
      <point x="597" y="112"/>
      <point x="611" y="99"/>
      <point x="634" y="99" type="curve" smooth="yes"/>
      <point x="647" y="99"/>
      <point x="655" y="102"/>
      <point x="676" y="115" type="curve"/>
      <point x="715" y="59" type="line"/>
      <point x="658" y="12"/>
      <point x="609" y="-9"/>
      <point x="557" y="-9" type="curve" smooth="yes"/>
      <point x="483" y="-9"/>
      <point x="432" y="31"/>
      <point x="432" y="89" type="curve" smooth="yes"/>
      <point x="432" y="100"/>
      <point x="434" y="116"/>
      <point x="437" y="134" type="curve" smooth="yes"/>
      <point x="476" y="341" type="line" smooth="yes"/>
      <point x="477" y="347"/>
      <point x="477" y="349"/>
      <point x="477" y="359" type="curve" smooth="yes"/>
      <point x="477" y="390"/>
      <point x="454" y="408"/>
      <point x="416" y="408" type="curve" smooth="yes"/>
      <point x="381" y="408"/>
      <point x="345" y="395"/>
      <point x="317" y="373" type="curve"/>
    </contour>
  </outline>
</glyph>
<glyph name="OE" format="1">
  <advance width="1180"/>
  <unicode hex="0152"/>
  <outline>
    <contour>
      <point x="706" y="681" type="line"/>
      <point x="1192" y="681" type="line"/>
      <point x="1245" y="464" type="line"/>
      <point x="1179" y="440" type="line"/>
      <point x="1132" y="547"/>
      <point x="1056" y="599"/>
      <point x="949" y="599" type="curve" smooth="yes"/>
      <point x="903" y="599"/>
      <point x="870" y="591"/>
      <point x="855" y="575" type="curve" smooth="yes"/>
      <point x="843" y="563"/>
      <point x="841" y="559"/>
      <point x="833" y="511" type="curve" smooth="yes"/>
      <point x="814" y="407" type="line"/>
      <point x="830" y="406"/>
      <point x="843" y="406"/>
      <point x="850" y="406" type="curve" smooth="yes"/>
      <point x="925" y="406"/>
      <point x="948" y="427"/>
      <point x="967" y="511" type="curve"/>
      <point x="1037" y="511" type="line"/>
      <point x="981" y="206" type="line"/>
      <point x="911" y="206" type="line"/>
      <point x="912" y="228"/>
      <point x="912" y="228"/>
      <point x="912" y="231" type="curve" smooth="yes"/>
      <point x="912" y="272"/>
      <point x="901" y="298"/>
      <point x="879" y="309" type="curve" smooth="yes"/>
      <point x="868" y="314"/>
      <point x="833" y="319"/>
      <point x="807" y="319" type="curve" smooth="yes"/>
      <point x="798" y="319" type="line"/>
      <point x="767" y="150" type="line" smooth="yes"/>
      <point x="762" y="119"/>
      <point x="762" y="119"/>
      <point x="762" y="114" type="curve" smooth="yes"/>
      <point x="762" y="93"/>
      <point x="787" y="84"/>
      <point x="844" y="84" type="curve" smooth="yes"/>
      <point x="960" y="84"/>
      <point x="1057" y="136"/>
      <point x="1165" y="256" type="curve"/>
      <point x="1229" y="221" type="line"/>
      <point x="1118" y="0" type="line"/>
      <point x="582" y="0" type="line"/>
      <point x="591" y="51" type="line"/>
      <point x="535" y="8"/>
      <point x="473" y="-13"/>
      <point x="403" y="-13" type="curve" smooth="yes"/>
      <point x="222" y="-13"/>
      <point x="94" y="112"/>
      <point x="94" y="290" type="curve" smooth="yes"/>
      <point x="94" y="394"/>
      <point x="138" y="504"/>
      <point x="208" y="576" type="curve"/>
      <point x="279" y="647"/>
      <point x="390" y="694"/>
      <point x="490" y="694" type="curve" smooth="yes"/>
      <point x="562" y="694"/>
      <point x="641" y="669"/>
      <point x="696" y="629" type="curve"/>
    </contour>
    <contour>
      <point x="490" y="602" type="curve" smooth="yes"/>
      <point x="438" y="602"/>
      <point x="392" y="574"/>
      <point x="352" y="517" type="curve" smooth="yes"/>
      <point x="310" y="457"/>
      <point x="281" y="355"/>
      <point x="281" y="264" type="curve" smooth="yes"/>
      <point x="281" y="151"/>
      <point x="332" y="83"/>
      <point x="416" y="83" type="curve" smooth="yes"/>
      <point x="478" y="83"/>
      <point x="534" y="119"/>
      <point x="575" y="186" type="curve" smooth="yes"/>
      <point x="607" y="239"/>
      <point x="632" y="338"/>
      <point x="632" y="412" type="curve" smooth="yes"/>
      <point x="632" y="534"/>
      <point x="581" y="602"/>
    </contour>
  </outline>
</glyph>
<glyph name="oe" format="1">
  <advance width="920"/>
  <unicode hex="0153"/>
  <outline>
    <contour>
      <point x="881" y="177" type="curve"/>
      <point x="930" y="119" type="line"/>
      <point x="850" y="37"/>
      <point x="750" y="-9"/>
      <point x="654" y="-9" type="curve" smooth="yes"/>
      <point x="593" y="-9"/>
      <point x="545" y="9"/>
      <point x="490" y="53" type="curve"/>
      <point x="406" y="5"/>
      <point x="361" y="-9"/>
      <point x="288" y="-9" type="curve" smooth="yes"/>
      <point x="141" y="-9"/>
      <point x="48" y="70"/>
      <point x="48" y="195" type="curve" smooth="yes"/>
      <point x="48" y="284"/>
      <point x="89" y="381"/>
      <point x="150" y="439" type="curve" smooth="yes"/>
      <point x="206" y="491"/>
      <point x="284" y="520"/>
      <point x="369" y="520" type="curve" smooth="yes"/>
      <point x="450" y="520"/>
      <point x="506" y="499"/>
      <point x="562" y="449" type="curve"/>
      <point x="636" y="500"/>
      <point x="699" y="520"/>
      <point x="781" y="520" type="curve" smooth="yes"/>
      <point x="891" y="520"/>
      <point x="961" y="472"/>
      <point x="961" y="397" type="curve" smooth="yes"/>
      <point x="961" y="337"/>
      <point x="921" y="288"/>
      <point x="850" y="261" type="curve" smooth="yes"/>
      <point x="783" y="236"/>
      <point x="703" y="222"/>
      <point x="622" y="222" type="curve" smooth="yes"/>
      <point x="618" y="222"/>
      <point x="608" y="222"/>
      <point x="597" y="223" type="curve"/>
      <point x="595" y="207"/>
      <point x="594" y="193"/>
      <point x="594" y="183" type="curve" smooth="yes"/>
      <point x="594" y="124"/>
      <point x="634" y="83"/>
      <point x="691" y="83" type="curve" smooth="yes"/>
      <point x="728" y="83"/>
      <point x="774" y="98"/>
      <point x="811" y="123" type="curve" smooth="yes"/>
      <point x="829" y="136"/>
      <point x="843" y="146"/>
    </contour>
    <contour>
      <point x="611" y="292" type="curve"/>
      <point x="623" y="292" type="line" smooth="yes"/>
      <point x="727" y="292"/>
      <point x="813" y="338"/>
      <point x="813" y="394" type="curve" smooth="yes"/>
      <point x="813" y="423"/>
      <point x="790" y="442"/>
      <point x="757" y="442" type="curve" smooth="yes"/>
      <point x="721" y="442"/>
      <point x="686" y="422"/>
      <point x="656" y="383" type="curve" smooth="yes"/>
      <point x="633" y="353"/>
      <point x="618" y="323"/>
    </contour>
    <contour>
      <point x="367" y="432" type="curve" smooth="yes"/>
      <point x="322" y="432"/>
      <point x="293" y="411"/>
      <point x="266" y="358" type="curve" smooth="yes"/>
      <point x="242" y="311"/>
      <point x="221" y="221"/>
      <point x="221" y="164" type="curve" smooth="yes"/>
      <point x="221" y="111"/>
      <point x="249" y="79"/>
      <point x="296" y="79" type="curve" smooth="yes"/>
      <point x="340" y="79"/>
      <point x="375" y="104"/>
      <point x="400" y="153" type="curve" smooth="yes"/>
      <point x="424" y="199"/>
      <point x="445" y="285"/>
      <point x="445" y="335" type="curve" smooth="yes"/>
      <point x="445" y="402"/>
      <point x="421" y="432"/>
    </contour>
  </outline>
</glyph>
<glyph name="Racute" format="1">
  <advance width="740"/>
  <unicode hex="0154"/>
  <outline>
    <contour>
      <point x="329" y="299" type="line"/>
      <point x="305" y="168" type="line" smooth="yes"/>
      <point x="304" y="160"/>
      <point x="302" y="137"/>
      <point x="302" y="128" type="curve" smooth="yes"/>
      <point x="302" y="101"/>
      <point x="319" y="86"/>
      <point x="355" y="83" type="curve" smooth="yes"/>
      <point x="377" y="81" type="line"/>
      <point x="362" y="0" type="line"/>
      <point x="14" y="0" type="line"/>
      <point x="29" y="81" type="line"/>
      <point x="51" y="83" type="line"/>
      <point x="104" y="90"/>
      <point x="119" y="106"/>
      <point x="131" y="168" type="curve" smooth="yes"/>
      <point x="194" y="513" type="line" smooth="yes"/>
      <point x="196" y="525"/>
      <point x="198" y="542"/>
      <point x="198" y="552" type="curve" smooth="yes"/>
      <point x="198" y="580"/>
      <point x="181" y="595"/>
      <point x="145" y="598" type="curve" smooth="yes"/>
      <point x="123" y="600" type="line"/>
      <point x="137" y="681" type="line"/>
      <point x="512" y="681" type="line" smooth="yes"/>
      <point x="607" y="681"/>
      <point x="661" y="671"/>
      <point x="699" y="647" type="curve" smooth="yes"/>
      <point x="738" y="622"/>
      <point x="762" y="577"/>
      <point x="762" y="526" type="curve" smooth="yes"/>
      <point x="762" y="470"/>
      <point x="734" y="410"/>
      <point x="689" y="374" type="curve" smooth="yes"/>
      <point x="658" y="349"/>
      <point x="627" y="334"/>
      <point x="582" y="324" type="curve"/>
      <point x="655" y="173" type="line"/>
      <point x="693" y="102"/>
      <point x="701" y="95"/>
      <point x="765" y="81" type="curve"/>
      <point x="750" y="0" type="line"/>
      <point x="547" y="0" type="line"/>
      <point x="404" y="299" type="line"/>
    </contour>
    <contour>
      <point x="372" y="537" type="curve"/>
      <point x="346" y="391" type="line"/>
      <point x="354" y="390"/>
      <point x="358" y="390"/>
      <point x="363" y="390" type="curve" smooth="yes"/>
      <point x="446" y="390"/>
      <point x="488" y="397"/>
      <point x="517" y="415" type="curve" smooth="yes"/>
      <point x="553" y="437"/>
      <point x="576" y="478"/>
      <point x="576" y="517" type="curve" smooth="yes"/>
      <point x="576" y="572"/>
      <point x="535" y="600"/>
      <point x="457" y="600" type="curve" smooth="yes"/>
      <point x="422" y="600"/>
      <point x="397" y="594"/>
      <point x="387" y="582" type="curve"/>
      <point x="381" y="577"/>
      <point x="381" y="577"/>
    </contour>
    <contour>
      <point x="417" y="727" type="curve"/>
      <point x="376" y="771" type="line"/>
      <point x="410" y="816"/>
      <point x="444" y="855"/>
      <point x="472" y="881" type="curve" smooth="yes"/>
      <point x="497" y="905"/>
      <point x="514" y="914"/>
      <point x="538" y="914" type="curve" smooth="yes"/>
      <point x="577" y="914"/>
      <point x="607" y="888"/>
      <point x="607" y="854" type="curve" smooth="yes"/>
      <point x="607" y="823"/>
      <point x="586" y="798"/>
      <point x="540" y="775" type="curve" smooth="yes"/>
      <point x="516" y="762"/>
      <point x="476" y="747"/>
    </contour>
  </outline>
</glyph>
<glyph name="racute" format="1">
  <advance width="500"/>
  <unicode hex="0155"/>
  <outline>
    <contour>
      <point x="92" y="0" type="line"/>
      <point x="151" y="321" type="line" smooth="yes"/>
      <point x="153" y="334"/>
      <point x="155" y="351"/>
      <point x="155" y="358" type="curve" smooth="yes"/>
      <point x="155" y="367"/>
      <point x="153" y="374"/>
      <point x="149" y="378" type="curve" smooth="yes"/>
      <point x="140" y="385"/>
      <point x="113" y="394"/>
      <point x="96" y="394" type="curve" smooth="yes"/>
      <point x="84" y="394" type="line"/>
      <point x="99" y="476" type="line"/>
      <point x="174" y="480"/>
      <point x="215" y="487"/>
      <point x="291" y="511" type="curve"/>
      <point x="343" y="511" type="line"/>
      <point x="329" y="435" type="line"/>
      <point x="374" y="491"/>
      <point x="428" y="520"/>
      <point x="484" y="520" type="curve" smooth="yes"/>
      <point x="541" y="520"/>
      <point x="582" y="487"/>
      <point x="582" y="442" type="curve" smooth="yes"/>
      <point x="582" y="395"/>
      <point x="543" y="359"/>
      <point x="492" y="359" type="curve" smooth="yes"/>
      <point x="468" y="359"/>
      <point x="452" y="365"/>
      <point x="428" y="383" type="curve" smooth="yes"/>
      <point x="415" y="393"/>
      <point x="409" y="396"/>
      <point x="399" y="396" type="curve" smooth="yes"/>
      <point x="380" y="396"/>
      <point x="357" y="379"/>
      <point x="341" y="355" type="curve" smooth="yes"/>
      <point x="321" y="323"/>
      <point x="312" y="297"/>
      <point x="295" y="227" type="curve" smooth="yes"/>
      <point x="287" y="193"/>
      <point x="276" y="139"/>
      <point x="271" y="112" type="curve" smooth="yes"/>
      <point x="250" y="0" type="line"/>
    </contour>
    <contour>
      <point x="337" y="561" type="curve"/>
      <point x="296" y="605" type="line"/>
      <point x="330" y="650"/>
      <point x="364" y="689"/>
      <point x="392" y="715" type="curve" smooth="yes"/>
      <point x="417" y="739"/>
      <point x="434" y="748"/>
      <point x="458" y="748" type="curve" smooth="yes"/>
      <point x="497" y="748"/>
      <point x="527" y="722"/>
      <point x="527" y="688" type="curve" smooth="yes"/>
      <point x="527" y="657"/>
      <point x="506" y="632"/>
      <point x="460" y="609" type="curve" smooth="yes"/>
      <point x="436" y="596"/>
      <point x="396" y="581"/>
    </contour>
  </outline>
</glyph>
<glyph name="rcommaaccent" format="1">
  <advance width="500"/>
  <unicode hex="0157"/>
  <outline>
    <contour>
      <point x="93" y="0" type="line"/>
      <point x="151" y="321" type="line" smooth="yes"/>
      <point x="153" y="331"/>
      <point x="155" y="352"/>
      <point x="155" y="358" type="curve" smooth="yes"/>
      <point x="155" y="367"/>
      <point x="153" y="374"/>
      <point x="149" y="378" type="curve" smooth="yes"/>
      <point x="140" y="385"/>
      <point x="113" y="394"/>
      <point x="97" y="394" type="curve" smooth="yes"/>
      <point x="84" y="394" type="line"/>
      <point x="99" y="476" type="line"/>
      <point x="174" y="480"/>
      <point x="215" y="487"/>
      <point x="291" y="511" type="curve"/>
      <point x="343" y="511" type="line"/>
      <point x="330" y="435" type="line"/>
      <point x="375" y="491"/>
      <point x="428" y="520"/>
      <point x="484" y="520" type="curve" smooth="yes"/>
      <point x="541" y="520"/>
      <point x="582" y="487"/>
      <point x="582" y="442" type="curve" smooth="yes"/>
      <point x="582" y="395"/>
      <point x="543" y="359"/>
      <point x="492" y="359" type="curve" smooth="yes"/>
      <point x="468" y="359"/>
      <point x="452" y="365"/>
      <point x="428" y="383" type="curve" smooth="yes"/>
      <point x="415" y="393"/>
      <point x="409" y="396"/>
      <point x="399" y="396" type="curve" smooth="yes"/>
      <point x="380" y="396"/>
      <point x="357" y="379"/>
      <point x="341" y="355" type="curve" smooth="yes"/>
      <point x="321" y="323"/>
      <point x="312" y="297"/>
      <point x="295" y="227" type="curve" smooth="yes"/>
      <point x="287" y="194"/>
      <point x="276" y="139"/>
      <point x="271" y="112" type="curve" smooth="yes"/>
      <point x="251" y="0" type="line"/>
    </contour>
    <contour>
      <point x="101" y="-328" type="curve"/>
      <point x="67" y="-296" type="line"/>
      <point x="104" y="-263"/>
      <point x="132" y="-232"/>
      <point x="139" y="-217" type="curve"/>
      <point x="133" y="-218"/>
      <point x="130" y="-218"/>
      <point x="126" y="-218" type="curve" smooth="yes"/>
      <point x="89" y="-218"/>
      <point x="66" y="-193"/>
      <point x="66" y="-154" type="curve" smooth="yes"/>
      <point x="66" y="-100"/>
      <point x="117" y="-50"/>
      <point x="174" y="-50" type="curve" smooth="yes"/>
      <point x="215" y="-50"/>
      <point x="244" y="-80"/>
      <point x="244" y="-124" type="curve" smooth="yes"/>
      <point x="244" y="-190"/>
      <point x="187" y="-272"/>
    </contour>
  </outline>
</glyph>
<glyph name="rcaron" format="1">
  <advance width="500"/>
  <unicode hex="0159"/>
  <outline>
    <contour>
      <point x="92" y="0" type="line"/>
      <point x="151" y="321" type="line" smooth="yes"/>
      <point x="153" y="334"/>
      <point x="155" y="351"/>
      <point x="155" y="358" type="curve" smooth="yes"/>
      <point x="155" y="367"/>
      <point x="153" y="374"/>
      <point x="149" y="378" type="curve" smooth="yes"/>
      <point x="140" y="385"/>
      <point x="113" y="394"/>
      <point x="96" y="394" type="curve" smooth="yes"/>
      <point x="84" y="394" type="line"/>
      <point x="99" y="476" type="line"/>
      <point x="174" y="480"/>
      <point x="215" y="487"/>
      <point x="291" y="511" type="curve"/>
      <point x="343" y="511" type="line"/>
      <point x="329" y="435" type="line"/>
      <point x="374" y="491"/>
      <point x="428" y="520"/>
      <point x="484" y="520" type="curve" smooth="yes"/>
      <point x="541" y="520"/>
      <point x="582" y="487"/>
      <point x="582" y="442" type="curve" smooth="yes"/>
      <point x="582" y="395"/>
      <point x="543" y="359"/>
      <point x="492" y="359" type="curve" smooth="yes"/>
      <point x="468" y="359"/>
      <point x="452" y="365"/>
      <point x="428" y="383" type="curve" smooth="yes"/>
      <point x="415" y="393"/>
      <point x="409" y="396"/>
      <point x="399" y="396" type="curve" smooth="yes"/>
      <point x="380" y="396"/>
      <point x="357" y="379"/>
      <point x="341" y="355" type="curve" smooth="yes"/>
      <point x="321" y="323"/>
      <point x="312" y="297"/>
      <point x="295" y="227" type="curve" smooth="yes"/>
      <point x="287" y="193"/>
      <point x="276" y="139"/>
      <point x="271" y="112" type="curve" smooth="yes"/>
      <point x="250" y="0" type="line"/>
    </contour>
    <contour>
      <point x="533" y="667" type="line"/>
      <point x="349" y="564" type="line"/>
      <point x="193" y="672" type="line"/>
      <point x="235" y="734" type="line"/>
      <point x="365" y="678" type="line"/>
      <point x="502" y="734" type="line"/>
    </contour>
  </outline>
</glyph>
<glyph name="Scedilla" format="1">
  <advance width="700"/>
  <unicode hex="015E"/>
  <outline>
    <contour>
      <point x="377" y="-12" type="curve"/>
      <point x="356" y="-59" type="line"/>
      <point x="374" y="-55"/>
      <point x="383" y="-53"/>
      <point x="393" y="-53" type="curve" smooth="yes"/>
      <point x="433" y="-53"/>
      <point x="459" y="-77"/>
      <point x="459" y="-114" type="curve" smooth="yes"/>
      <point x="459" y="-173"/>
      <point x="408" y="-215"/>
      <point x="335" y="-215" type="curve" smooth="yes"/>
      <point x="277" y="-215"/>
      <point x="238" y="-194"/>
      <point x="238" y="-162" type="curve" smooth="yes"/>
      <point x="238" y="-141"/>
      <point x="255" y="-123"/>
      <point x="275" y="-123" type="curve" smooth="yes"/>
      <point x="290" y="-123"/>
      <point x="296" y="-128"/>
      <point x="306" y="-150" type="curve" smooth="yes"/>
      <point x="311" y="-161"/>
      <point x="322" y="-168"/>
      <point x="336" y="-168" type="curve" smooth="yes"/>
      <point x="361" y="-168"/>
      <point x="381" y="-146"/>
      <point x="381" y="-119" type="curve" smooth="yes"/>
      <point x="381" y="-99"/>
      <point x="369" y="-86"/>
      <point x="352" y="-86" type="curve" smooth="yes"/>
      <point x="345" y="-86"/>
      <point x="339" y="-88"/>
      <point x="328" y="-93" type="curve"/>
      <point x="304" y="-69" type="line"/>
      <point x="332" y="-6" type="line"/>
      <point x="277" y="3"/>
      <point x="235" y="18"/>
      <point x="191" y="45" type="curve"/>
      <point x="169" y="0" type="line"/>
      <point x="103" y="0" type="line"/>
      <point x="59" y="256" type="line"/>
      <point x="136" y="269" type="line"/>
      <point x="182" y="140"/>
      <point x="267" y="75"/>
      <point x="390" y="75" type="curve" smooth="yes"/>
      <point x="474" y="75"/>
      <point x="534" y="116"/>
      <point x="534" y="172" type="curve" smooth="yes"/>
      <point x="534" y="194"/>
      <point x="524" y="216"/>
      <point x="508" y="230" type="curve" smooth="yes"/>
      <point x="493" y="242"/>
      <point x="482" y="247"/>
      <point x="444" y="256" type="curve" smooth="yes"/>
      <point x="314" y="287" type="line" smooth="yes"/>
      <point x="246" y="304"/>
      <point x="205" y="322"/>
      <point x="175" y="350" type="curve" smooth="yes"/>
      <point x="142" y="380"/>
      <point x="122" y="428"/>
      <point x="122" y="477" type="curve" smooth="yes"/>
      <point x="122" y="604"/>
      <point x="243" y="694"/>
      <point x="414" y="694" type="curve" smooth="yes"/>
      <point x="492" y="694"/>
      <point x="565" y="676"/>
      <point x="631" y="638" type="curve"/>
      <point x="652" y="681" type="line"/>
      <point x="715" y="681" type="line"/>
      <point x="723" y="452" type="line"/>
      <point x="647" y="452" type="line"/>
      <point x="631" y="501"/>
      <point x="616" y="526"/>
      <point x="589" y="550" type="curve" smooth="yes"/>
      <point x="549" y="586"/>
      <point x="494" y="606"/>
      <point x="436" y="606" type="curve" smooth="yes"/>
      <point x="364" y="606"/>
      <point x="309" y="571"/>
      <point x="309" y="526" type="curve" smooth="yes"/>
      <point x="309" y="508"/>
      <point x="318" y="492"/>
      <point x="334" y="480" type="curve" smooth="yes"/>
      <point x="344" y="473"/>
      <point x="367" y="465"/>
      <point x="415" y="452" type="curve" smooth="yes"/>
      <point x="541" y="419" type="line" smooth="yes"/>
      <point x="606" y="402"/>
      <point x="648" y="382"/>
      <point x="675" y="357" type="curve" smooth="yes"/>
      <point x="712" y="323"/>
      <point x="731" y="278"/>
      <point x="731" y="228" type="curve" smooth="yes"/>
      <point x="731" y="93"/>
      <point x="589" y="-13"/>
      <point x="409" y="-13" type="curve" smooth="yes"/>
      <point x="398" y="-13"/>
      <point x="391" y="-13"/>
    </contour>
  </outline>
</glyph>
<glyph name="scedilla" format="1">
  <advance width="540"/>
  <unicode hex="015F"/>
  <outline>
    <contour>
      <point x="299" y="-8" type="curve"/>
      <point x="276" y="-59" type="line"/>
      <point x="294" y="-55"/>
      <point x="303" y="-53"/>
      <point x="314" y="-53" type="curve" smooth="yes"/>
      <point x="353" y="-53"/>
      <point x="379" y="-77"/>
      <point x="379" y="-114" type="curve" smooth="yes"/>
      <point x="379" y="-173"/>
      <point x="328" y="-215"/>
      <point x="255" y="-215" type="curve" smooth="yes"/>
      <point x="197" y="-215"/>
      <point x="158" y="-194"/>
      <point x="158" y="-162" type="curve" smooth="yes"/>
      <point x="158" y="-141"/>
      <point x="175" y="-123"/>
      <point x="195" y="-123" type="curve" smooth="yes"/>
      <point x="210" y="-123"/>
      <point x="216" y="-128"/>
      <point x="226" y="-150" type="curve" smooth="yes"/>
      <point x="231" y="-161"/>
      <point x="242" y="-168"/>
      <point x="256" y="-168" type="curve" smooth="yes"/>
      <point x="281" y="-168"/>
      <point x="301" y="-146"/>
      <point x="301" y="-119" type="curve" smooth="yes"/>
      <point x="301" y="-99"/>
      <point x="289" y="-86"/>
      <point x="272" y="-86" type="curve" smooth="yes"/>
      <point x="265" y="-86"/>
      <point x="259" y="-88"/>
      <point x="248" y="-93" type="curve"/>
      <point x="224" y="-69" type="line"/>
      <point x="251" y="-9" type="line"/>
      <point x="121" y="-3"/>
      <point x="32" y="42"/>
      <point x="32" y="103" type="curve" smooth="yes"/>
      <point x="32" y="137"/>
      <point x="60" y="163"/>
      <point x="98" y="163" type="curve" smooth="yes"/>
      <point x="134" y="163"/>
      <point x="154" y="151"/>
      <point x="192" y="108" type="curve" smooth="yes"/>
      <point x="213" y="83"/>
      <point x="235" y="73"/>
      <point x="267" y="73" type="curve" smooth="yes"/>
      <point x="318" y="73"/>
      <point x="357" y="100"/>
      <point x="357" y="138" type="curve" smooth="yes"/>
      <point x="357" y="164"/>
      <point x="343" y="176"/>
      <point x="299" y="189" type="curve" smooth="yes"/>
      <point x="228" y="209" type="line" smooth="yes"/>
      <point x="138" y="235"/>
      <point x="97" y="275"/>
      <point x="97" y="338" type="curve" smooth="yes"/>
      <point x="97" y="444"/>
      <point x="206" y="520"/>
      <point x="357" y="520" type="curve" smooth="yes"/>
      <point x="478" y="520"/>
      <point x="573" y="474"/>
      <point x="573" y="416" type="curve" smooth="yes"/>
      <point x="573" y="385"/>
      <point x="546" y="361"/>
      <point x="512" y="361" type="curve" smooth="yes"/>
      <point x="480" y="361"/>
      <point x="462" y="371"/>
      <point x="433" y="407" type="curve" smooth="yes"/>
      <point x="414" y="430"/>
      <point x="395" y="438"/>
      <point x="360" y="438" type="curve" smooth="yes"/>
      <point x="318" y="438"/>
      <point x="290" y="417"/>
      <point x="290" y="385" type="curve" smooth="yes"/>
      <point x="290" y="372"/>
      <point x="295" y="359"/>
      <point x="304" y="352" type="curve"/>
      <point x="313" y="343"/>
      <point x="318" y="341"/>
      <point x="358" y="328" type="curve" smooth="yes"/>
      <point x="437" y="303" type="line" smooth="yes"/>
      <point x="470" y="293"/>
      <point x="493" y="282"/>
      <point x="510" y="270" type="curve" smooth="yes"/>
      <point x="536" y="251"/>
      <point x="554" y="216"/>
      <point x="554" y="183" type="curve" smooth="yes"/>
      <point x="554" y="114"/>
      <point x="500" y="50"/>
      <point x="414" y="17" type="curve" smooth="yes"/>
      <point x="379" y="4"/>
      <point x="344" y="-4"/>
    </contour>
  </outline>
</glyph>
<glyph name="Tcommaaccent" format="1">
  <advance width="700"/>
  <unicode hex="0162"/>
  <outline>
    <contour>
      <point x="538" y="600" type="curve"/>
      <point x="459" y="168" type="line" smooth="yes"/>
      <point x="458" y="161"/>
      <point x="456" y="139"/>
      <point x="456" y="129" type="curve" smooth="yes"/>
      <point x="456" y="98"/>
      <point x="472" y="86"/>
      <point x="518" y="83" type="curve" smooth="yes"/>
      <point x="550" y="81" type="line"/>
      <point x="536" y="0" type="line"/>
      <point x="148" y="0" type="line"/>
      <point x="162" y="81" type="line"/>
      <point x="195" y="83" type="line" smooth="yes"/>
      <point x="255" y="87"/>
      <point x="272" y="102"/>
      <point x="285" y="168" type="curve" smooth="yes"/>
      <point x="364" y="600" type="line"/>
      <point x="260" y="592"/>
      <point x="208" y="558"/>
      <point x="129" y="448" type="curve"/>
      <point x="70" y="477" type="line"/>
      <point x="171" y="681" type="line"/>
      <point x="753" y="681" type="line"/>
      <point x="802" y="464" type="line"/>
      <point x="730" y="448" type="line"/>
      <point x="692" y="546"/>
      <point x="631" y="594"/>
    </contour>
    <contour>
      <point x="281" y="-332" type="curve"/>
      <point x="247" y="-299" type="line"/>
      <point x="284" y="-266"/>
      <point x="312" y="-235"/>
      <point x="319" y="-220" type="curve"/>
      <point x="313" y="-222"/>
      <point x="310" y="-222"/>
      <point x="306" y="-222" type="curve" smooth="yes"/>
      <point x="269" y="-222"/>
      <point x="246" y="-197"/>
      <point x="246" y="-158" type="curve" smooth="yes"/>
      <point x="246" y="-103"/>
      <point x="297" y="-53"/>
      <point x="354" y="-53" type="curve" smooth="yes"/>
      <point x="395" y="-53"/>
      <point x="424" y="-83"/>
      <point x="424" y="-127" type="curve" smooth="yes"/>
      <point x="424" y="-193"/>
      <point x="367" y="-275"/>
    </contour>
  </outline>
</glyph>
<glyph name="tcommaaccent" format="1">
  <advance width="440"/>
  <unicode hex="0163"/>
  <outline>
    <contour>
      <point x="333" y="421" type="line"/>
      <point x="284" y="152" type="line" smooth="yes"/>
      <point x="283" y="144"/>
      <point x="282" y="135"/>
      <point x="282" y="130" type="curve" smooth="yes"/>
      <point x="282" y="111"/>
      <point x="295" y="99"/>
      <point x="315" y="99" type="curve" smooth="yes"/>
      <point x="336" y="99"/>
      <point x="387" y="122"/>
      <point x="421" y="147" type="curve"/>
      <point x="463" y="80" type="line"/>
      <point x="406" y="25"/>
      <point x="324" y="-9"/>
      <point x="248" y="-9" type="curve" smooth="yes"/>
      <point x="165" y="-9"/>
      <point x="118" y="27"/>
      <point x="118" y="90" type="curve" smooth="yes"/>
      <point x="118" y="101"/>
      <point x="120" y="115"/>
      <point x="126" y="147" type="curve" smooth="yes"/>
      <point x="175" y="421" type="line"/>
      <point x="106" y="421" type="line"/>
      <point x="118" y="487" type="line"/>
      <point x="208" y="511"/>
      <point x="253" y="557"/>
      <point x="287" y="659" type="curve"/>
      <point x="377" y="659" type="line"/>
      <point x="350" y="511" type="line"/>
      <point x="488" y="511" type="line"/>
      <point x="472" y="421" type="line"/>
    </contour>
    <contour>
      <point x="151" y="-328" type="curve"/>
      <point x="117" y="-296" type="line"/>
      <point x="154" y="-263"/>
      <point x="182" y="-232"/>
      <point x="189" y="-217" type="curve"/>
      <point x="183" y="-218"/>
      <point x="180" y="-218"/>
      <point x="176" y="-218" type="curve" smooth="yes"/>
      <point x="139" y="-218"/>
      <point x="116" y="-193"/>
      <point x="116" y="-154" type="curve" smooth="yes"/>
      <point x="116" y="-100"/>
      <point x="167" y="-50"/>
      <point x="224" y="-50" type="curve" smooth="yes"/>
      <point x="265" y="-50"/>
      <point x="294" y="-80"/>
      <point x="294" y="-124" type="curve" smooth="yes"/>
      <point x="294" y="-190"/>
      <point x="237" y="-272"/>
    </contour>
  </outline>
</glyph>
<glyph name="tcaron" format="1">
  <advance width="520"/>
  <unicode hex="0165"/>
  <outline>
    <contour>
      <point x="350" y="511" type="line"/>
      <point x="422" y="511" type="line"/>
      <point x="451" y="540"/>
      <point x="469" y="560"/>
      <point x="475" y="573" type="curve"/>
      <point x="469" y="572"/>
      <point x="466" y="572"/>
      <point x="462" y="572" type="curve" smooth="yes"/>
      <point x="425" y="572"/>
      <point x="402" y="597"/>
      <point x="402" y="636" type="curve" smooth="yes"/>
      <point x="402" y="690"/>
      <point x="453" y="740"/>
      <point x="510" y="740" type="curve" smooth="yes"/>
      <point x="551" y="740"/>
      <point x="580" y="710"/>
      <point x="580" y="666" type="curve" smooth="yes"/>
      <point x="580" y="614"/>
      <point x="546" y="554"/>
      <point x="486" y="499" type="curve"/>
      <point x="472" y="421" type="line"/>
      <point x="333" y="421" type="line"/>
      <point x="284" y="152" type="line" smooth="yes"/>
      <point x="283" y="144"/>
      <point x="282" y="135"/>
      <point x="282" y="130" type="curve" smooth="yes"/>
      <point x="282" y="111"/>
      <point x="295" y="99"/>
      <point x="315" y="99" type="curve" smooth="yes"/>
      <point x="336" y="99"/>
      <point x="387" y="122"/>
      <point x="421" y="147" type="curve"/>
      <point x="463" y="80" type="line"/>
      <point x="406" y="25"/>
      <point x="324" y="-9"/>
      <point x="248" y="-9" type="curve" smooth="yes"/>
      <point x="165" y="-9"/>
      <point x="118" y="27"/>
      <point x="118" y="90" type="curve" smooth="yes"/>
      <point x="118" y="101"/>
      <point x="120" y="115"/>
      <point x="126" y="147" type="curve" smooth="yes"/>
      <point x="175" y="421" type="line"/>
      <point x="106" y="421" type="line"/>
      <point x="118" y="487" type="line"/>
      <point x="208" y="511"/>
      <point x="253" y="557"/>
      <point x="287" y="659" type="curve"/>
      <point x="377" y="659" type="line"/>
    </contour>
  </outline>
</glyph>
<glyph name="Zdotaccent" format="1">
  <advance width="680"/>
  <unicode hex="017B"/>
  <outline>
    <contour>
      <point x="172" y="681" type="line"/>
      <point x="720" y="681" type="line"/>
      <point x="740" y="621" type="line"/>
      <point x="266" y="86" type="line"/>
      <point x="297" y="82"/>
      <point x="317" y="80"/>
      <point x="342" y="80" type="curve" smooth="yes"/>
      <point x="480" y="80"/>
      <point x="574" y="136"/>
      <point x="643" y="258" type="curve"/>
      <point x="719" y="233" type="line"/>
      <point x="616" y="0" type="line"/>
      <point x="49" y="0" type="line"/>
      <point x="23" y="62" type="line"/>
      <point x="501" y="597" type="line"/>
      <point x="480" y="601"/>
      <point x="469" y="602"/>
      <point x="450" y="602" type="curve" smooth="yes"/>
      <point x="371" y="602"/>
      <point x="298" y="580"/>
      <point x="247" y="541" type="curve"/>
      <point x="220" y="522"/>
      <point x="197" y="496"/>
      <point x="158" y="445" type="curve"/>
      <point x="84" y="472" type="line"/>
    </contour>
    <contour>
      <point x="468" y="898" type="curve" smooth="yes"/>
      <point x="508" y="898"/>
      <point x="535" y="871"/>
      <point x="535" y="831" type="curve" smooth="yes"/>
      <point x="535" y="782"/>
      <point x="484" y="732"/>
      <point x="435" y="732" type="curve" smooth="yes"/>
      <point x="397" y="732"/>
      <point x="369" y="761"/>
      <point x="369" y="800" type="curve" smooth="yes"/>
      <point x="369" y="851"/>
      <point x="417" y="898"/>
    </contour>
  </outline>
</glyph>
<glyph name="zdotaccent" format="1">
  <advance width="560"/>
  <unicode hex="017C"/>
  <outline>
    <contour>
      <point x="586" y="431" type="line"/>
      <point x="253" y="91" type="line"/>
      <point x="274" y="85"/>
      <point x="289" y="83"/>
      <point x="314" y="83" type="curve" smooth="yes"/>
      <point x="348" y="83"/>
      <point x="378" y="90"/>
      <point x="399" y="101" type="curve" smooth="yes"/>
      <point x="414" y="109"/>
      <point x="415" y="112"/>
      <point x="423" y="134" type="curve" smooth="yes"/>
      <point x="436" y="169"/>
      <point x="465" y="191"/>
      <point x="499" y="191" type="curve" smooth="yes"/>
      <point x="539" y="191"/>
      <point x="570" y="160"/>
      <point x="570" y="120" type="curve" smooth="yes"/>
      <point x="570" y="50"/>
      <point x="492" y="-9"/>
      <point x="401" y="-9" type="curve" smooth="yes"/>
      <point x="387" y="-9"/>
      <point x="364" y="-8"/>
      <point x="337" y="-5" type="curve" smooth="yes"/>
      <point x="278" y="1"/>
      <point x="193" y="5"/>
      <point x="143" y="5" type="curve" smooth="yes"/>
      <point x="116" y="5"/>
      <point x="113" y="5"/>
      <point x="64" y="-1" type="curve"/>
      <point x="36" y="79" type="line"/>
      <point x="371" y="422" type="line"/>
      <point x="352" y="430"/>
      <point x="336" y="432"/>
      <point x="308" y="432" type="curve" smooth="yes"/>
      <point x="262" y="432"/>
      <point x="244" y="421"/>
      <point x="229" y="383" type="curve" smooth="yes"/>
      <point x="213" y="343"/>
      <point x="184" y="319"/>
      <point x="149" y="319" type="curve" smooth="yes"/>
      <point x="112" y="319"/>
      <point x="87" y="348"/>
      <point x="87" y="390" type="curve" smooth="yes"/>
      <point x="87" y="465"/>
      <point x="166" y="520"/>
      <point x="273" y="520" type="curve" smooth="yes"/>
      <point x="308" y="520"/>
      <point x="341" y="518"/>
      <point x="423" y="509" type="curve" smooth="yes"/>
      <point x="477" y="504"/>
      <point x="503" y="502"/>
      <point x="534" y="502" type="curve" smooth="yes"/>
      <point x="563" y="502" type="line"/>
    </contour>
    <contour>
      <point x="368" y="732" type="curve" smooth="yes"/>
      <point x="408" y="732"/>
      <point x="435" y="705"/>
      <point x="435" y="665" type="curve" smooth="yes"/>
      <point x="435" y="616"/>
      <point x="385" y="566"/>
      <point x="336" y="566" type="curve" smooth="yes"/>
      <point x="298" y="566"/>
      <point x="270" y="595"/>
      <point x="270" y="634" type="curve" smooth="yes"/>
      <point x="270" y="685"/>
      <point x="317" y="732"/>
    </contour>
  </outline>
</glyph>
<glyph name="Zcaron" format="1">
  <advance width="680"/>
  <unicode hex="017D"/>
  <outline>
    <contour>
      <point x="172" y="681" type="line"/>
      <point x="720" y="681" type="line"/>
      <point x="740" y="621" type="line"/>
      <point x="266" y="86" type="line"/>
      <point x="297" y="82"/>
      <point x="317" y="80"/>
      <point x="342" y="80" type="curve" smooth="yes"/>
      <point x="480" y="80"/>
      <point x="574" y="136"/>
      <point x="643" y="258" type="curve"/>
      <point x="719" y="233" type="line"/>
      <point x="616" y="0" type="line"/>
      <point x="49" y="0" type="line"/>
      <point x="23" y="62" type="line"/>
      <point x="501" y="597" type="line"/>
      <point x="480" y="601"/>
      <point x="469" y="602"/>
      <point x="450" y="602" type="curve" smooth="yes"/>
      <point x="371" y="602"/>
      <point x="298" y="580"/>
      <point x="247" y="541" type="curve"/>
      <point x="220" y="522"/>
      <point x="197" y="496"/>
      <point x="158" y="445" type="curve"/>
      <point x="84" y="472" type="line"/>
    </contour>
    <contour>
      <point x="635" y="832" type="line"/>
      <point x="455" y="736" type="line"/>
      <point x="295" y="843" type="line"/>
      <point x="337" y="900" type="line"/>
      <point x="467" y="843" type="line"/>
      <point x="604" y="900" type="line"/>
    </contour>
  </outline>
</glyph>
<glyph name="longs" format="1">
  <advance width="420"/>
  <unicode hex="017F"/>
  <outline>
    <contour>
      <point x="328" y="242" type="line" smooth="yes"/>
      <point x="296" y="66"/>
      <point x="288" y="36"/>
      <point x="261" y="-15" type="curve" smooth="yes"/>
      <point x="196" y="-138"/>
      <point x="78" y="-208"/>
      <point x="-63" y="-208" type="curve" smooth="yes"/>
      <point x="-145" y="-208"/>
      <point x="-192" y="-180"/>
      <point x="-192" y="-130" type="curve" smooth="yes"/>
      <point x="-192" y="-87"/>
      <point x="-153" y="-52"/>
      <point x="-105" y="-52" type="curve" smooth="yes"/>
      <point x="-81" y="-52"/>
      <point x="-61" y="-62"/>
      <point x="-41" y="-83" type="curve" smooth="yes"/>
      <point x="-17" y="-108"/>
      <point x="-11" y="-112"/>
      <point x="10" y="-112" type="curve" smooth="yes"/>
      <point x="46" y="-112"/>
      <point x="79" y="-87"/>
      <point x="103" y="-42" type="curve" smooth="yes"/>
      <point x="120" y="-9"/>
      <point x="134" y="41"/>
      <point x="151" y="136" type="curve" smooth="yes"/>
      <point x="203" y="421" type="line"/>
      <point x="119" y="421" type="line"/>
      <point x="135" y="511" type="line"/>
      <point x="219" y="511" type="line"/>
      <point x="244" y="658"/>
      <point x="351" y="745"/>
      <point x="509" y="745" type="curve" smooth="yes"/>
      <point x="591" y="745"/>
      <point x="641" y="714"/>
      <point x="641" y="664" type="curve" smooth="yes"/>
      <point x="641" y="627"/>
      <point x="609" y="600"/>
      <point x="566" y="600" type="curve" smooth="yes"/>
      <point x="532" y="600"/>
      <point x="515" y="609"/>
      <point x="493" y="639" type="curve" smooth="yes"/>
      <point x="483" y="653"/>
      <point x="476" y="657"/>
      <point x="460" y="657" type="curve" smooth="yes"/>
      <point x="419" y="657"/>
      <point x="398" y="626"/>
      <point x="384" y="547" type="curve" smooth="yes"/>
    </contour>
  </outline>
</glyph>
<glyph name="breve" format="1">
  <advance width="460"/>
  <unicode hex="02D8"/>
  <outline>
    <contour>
      <point x="443" y="710" type="curve"/>
      <point x="516" y="710" type="line"/>
      <point x="504" y="654"/>
      <point x="493" y="631"/>
      <point x="468" y="609" type="curve" smooth="yes"/>
      <point x="440" y="583"/>
      <point x="395" y="570"/>
      <point x="339" y="570" type="curve" smooth="yes"/>
      <point x="234" y="570"/>
      <point x="189" y="609"/>
      <point x="177" y="710" type="curve"/>
      <point x="250" y="710" type="line"/>
      <point x="264" y="667"/>
      <point x="287" y="653"/>
      <point x="343" y="653" type="curve" smooth="yes"/>
      <point x="398" y="653"/>
      <point x="425" y="669"/>
    </contour>
  </outline>
</glyph>
<glyph name="ring" format="1">
  <advance width="360"/>
  <unicode hex="02DA"/>
  <outline>
    <contour>
      <point x="296" y="769" type="curve" smooth="yes"/>
      <point x="357" y="769"/>
      <point x="406" y="721"/>
      <point x="406" y="660" type="curve" smooth="yes"/>
      <point x="406" y="602"/>
      <point x="356" y="553"/>
      <point x="295" y="553" type="curve" smooth="yes"/>
      <point x="235" y="553"/>
      <point x="185" y="601"/>
      <point x="185" y="660" type="curve" smooth="yes"/>
      <point x="185" y="720"/>
      <point x="235" y="769"/>
    </contour>
    <contour>
      <point x="295" y="711" type="curve" smooth="yes"/>
      <point x="269" y="711"/>
      <point x="247" y="689"/>
      <point x="247" y="662" type="curve" smooth="yes"/>
      <point x="247" y="634"/>
      <point x="268" y="611"/>
      <point x="295" y="611" type="curve" smooth="yes"/>
      <point x="321" y="611"/>
      <point x="343" y="634"/>
      <point x="343" y="661" type="curve" smooth="yes"/>
      <point x="343" y="689"/>
      <point x="321" y="711"/>
    </contour>
  </outline>
</glyph>
<glyph name="tilde" format="1">
  <advance width="480"/>
  <unicode hex="02DC"/>
  <outline>
    <contour>
      <point x="487" y="699" type="curve"/>
      <point x="533" y="662" type="line"/>
      <point x="492" y="595"/>
      <point x="471" y="580"/>
      <point x="417" y="580" type="curve" smooth="yes"/>
      <point x="393" y="580"/>
      <point x="382" y="583"/>
      <point x="332" y="600" type="curve" smooth="yes"/>
      <point x="306" y="609"/>
      <point x="294" y="612"/>
      <point x="279" y="612" type="curve" smooth="yes"/>
      <point x="254" y="612"/>
      <point x="239" y="604"/>
      <point x="224" y="583" type="curve"/>
      <point x="178" y="619" type="line"/>
      <point x="209" y="679"/>
      <point x="242" y="703"/>
      <point x="296" y="703" type="curve" smooth="yes"/>
      <point x="323" y="703"/>
      <point x="342" y="699"/>
      <point x="378" y="686" type="curve" smooth="yes"/>
      <point x="406" y="675"/>
      <point x="419" y="672"/>
      <point x="434" y="672" type="curve" smooth="yes"/>
      <point x="459" y="672"/>
      <point x="465" y="675"/>
    </contour>
  </outline>
</glyph>
<glyph name="afii10051" format="1">
  <advance width="955"/>
  <unicode hex="0402"/>
  <outline>
    <contour>
      <point x="557" y="-166" type="line"/>
      <point x="573" y="-75" type="line"/>
      <point x="586" y="-75"/>
      <point x="649" y="-67"/>
      <point x="656" y="-22" type="curve"/>
      <point x="708" y="268" type="line"/>
      <point x="715" y="313"/>
      <point x="638" y="321"/>
      <point x="625" y="321" type="curve" smooth="yes"/>
      <point x="557" y="321"/>
      <point x="529" y="299"/>
      <point x="478" y="268" type="curve"/>
      <point x="459" y="168" type="line" smooth="yes"/>
      <point x="458" y="161"/>
      <point x="456" y="139"/>
      <point x="456" y="129" type="curve" smooth="yes"/>
      <point x="456" y="98"/>
      <point x="472" y="86"/>
      <point x="518" y="83" type="curve" smooth="yes"/>
      <point x="550" y="81" type="line"/>
      <point x="536" y="0" type="line"/>
      <point x="148" y="0" type="line"/>
      <point x="162" y="81" type="line"/>
      <point x="195" y="83" type="line" smooth="yes"/>
      <point x="255" y="87"/>
      <point x="272" y="102"/>
      <point x="285" y="168" type="curve" smooth="yes"/>
      <point x="364" y="600" type="line"/>
      <point x="260" y="592"/>
      <point x="208" y="558"/>
      <point x="129" y="448" type="curve"/>
      <point x="70" y="477" type="line"/>
      <point x="171" y="681" type="line"/>
      <point x="753" y="681" type="line"/>
      <point x="802" y="464" type="line"/>
      <point x="730" y="448" type="line"/>
      <point x="692" y="546"/>
      <point x="631" y="594"/>
      <point x="538" y="600" type="curve"/>
      <point x="495" y="365" type="line"/>
      <point x="548" y="388"/>
      <point x="625" y="415"/>
      <point x="702" y="415" type="curve" smooth="yes"/>
      <point x="839" y="415"/>
      <point x="895" y="342"/>
      <point x="884" y="272" type="curve"/>
      <point x="832" y="-23" type="line"/>
      <point x="821" y="-96"/>
      <point x="787" y="-166"/>
      <point x="650" y="-166" type="curve" smooth="yes"/>
    </contour>
  </outline>
</glyph>
<glyph name="afii10060" format="1">
  <advance width="955"/>
  <unicode hex="040B"/>
  <outline>
    <contour>
      <point x="495" y="365" type="line"/>
      <point x="548" y="388"/>
      <point x="625" y="415"/>
      <point x="702" y="415" type="curve" smooth="yes"/>
      <point x="839" y="415"/>
      <point x="897" y="342"/>
      <point x="884" y="272" type="curve" smooth="yes"/>
      <point x="866" y="168" type="line" smooth="yes"/>
      <point x="854" y="104"/>
      <point x="864" y="90"/>
      <point x="919" y="84" type="curve" smooth="yes"/>
      <point x="938" y="82" type="line"/>
      <point x="924" y="0" type="line"/>
      <point x="573" y="0" type="line"/>
      <point x="587" y="82" type="line"/>
      <point x="608" y="84" type="line" smooth="yes"/>
      <point x="665" y="90"/>
      <point x="679" y="104"/>
      <point x="691" y="168" type="curve"/>
      <point x="708" y="268" type="line"/>
      <point x="717" y="313"/>
      <point x="638" y="321"/>
      <point x="625" y="321" type="curve" smooth="yes"/>
      <point x="557" y="321"/>
      <point x="529" y="299"/>
      <point x="478" y="268" type="curve"/>
      <point x="459" y="168" type="line" smooth="yes"/>
      <point x="458" y="161"/>
      <point x="456" y="139"/>
      <point x="456" y="129" type="curve" smooth="yes"/>
      <point x="456" y="98"/>
      <point x="472" y="86"/>
      <point x="518" y="83" type="curve" smooth="yes"/>
      <point x="550" y="81" type="line"/>
      <point x="536" y="0" type="line"/>
      <point x="148" y="0" type="line"/>
      <point x="162" y="81" type="line"/>
      <point x="195" y="83" type="line" smooth="yes"/>
      <point x="255" y="87"/>
      <point x="272" y="102"/>
      <point x="285" y="168" type="curve" smooth="yes"/>
      <point x="364" y="600" type="line"/>
      <point x="260" y="592"/>
      <point x="208" y="558"/>
      <point x="129" y="448" type="curve"/>
      <point x="70" y="477" type="line"/>
      <point x="171" y="681" type="line"/>
      <point x="753" y="681" type="line"/>
      <point x="802" y="464" type="line"/>
      <point x="730" y="448" type="line"/>
      <point x="692" y="546"/>
      <point x="631" y="594"/>
      <point x="538" y="600" type="curve"/>
    </contour>
  </outline>
</glyph>
<glyph name="afii10061" format="1">
  <advance width="732"/>
  <unicode hex="040C"/>
  <outline>
    <contour>
      <point x="737" y="756" type="curve"/>
      <point x="696" y="800" type="line"/>
      <point x="730" y="845"/>
      <point x="764" y="884"/>
      <point x="792" y="910" type="curve" smooth="yes"/>
      <point x="817" y="934"/>
      <point x="834" y="943"/>
      <point x="858" y="943" type="curve" smooth="yes"/>
      <point x="897" y="943"/>
      <point x="927" y="917"/>
      <point x="927" y="883" type="curve" smooth="yes"/>
      <point x="927" y="852"/>
      <point x="906" y="827"/>
      <point x="860" y="804" type="curve" smooth="yes"/>
      <point x="836" y="791"/>
      <point x="796" y="776"/>
    </contour>
    <contour>
      <point x="335" y="325" type="line"/>
      <point x="313" y="196" type="line" smooth="yes"/>
      <point x="299" y="115"/>
      <point x="297" y="91"/>
      <point x="346" y="86" type="curve" smooth="yes"/>
      <point x="375" y="83" type="line"/>
      <point x="360" y="0" type="line"/>
      <point x="14" y="0" type="line"/>
      <point x="28" y="80" type="line"/>
      <point x="54" y="83" type="line" smooth="yes"/>
      <point x="107" y="89"/>
      <point x="124" y="111"/>
      <point x="138" y="193" type="curve" smooth="yes"/>
      <point x="190" y="487" type="line" smooth="yes"/>
      <point x="204" y="569"/>
      <point x="195" y="591"/>
      <point x="144" y="597" type="curve" smooth="yes"/>
      <point x="120" y="600" type="line"/>
      <point x="134" y="681" type="line"/>
      <point x="480" y="681" type="line"/>
      <point x="465" y="597" type="line"/>
      <point x="436" y="594" type="line" smooth="yes"/>
      <point x="385" y="589"/>
      <point x="377" y="565"/>
      <point x="363" y="484" type="curve" smooth="yes"/>
      <point x="349" y="401" type="line"/>
      <point x="429" y="401" type="line" smooth="yes"/>
      <point x="497" y="401"/>
      <point x="534" y="472"/>
      <point x="570" y="572" type="curve" smooth="yes"/>
      <point x="597" y="647"/>
      <point x="663" y="696"/>
      <point x="726" y="696" type="curve" smooth="yes"/>
      <point x="811" y="696"/>
      <point x="831" y="652"/>
      <point x="830" y="591" type="curve" smooth="yes"/>
      <point x="830" y="548"/>
      <point x="795" y="514"/>
      <point x="756" y="513" type="curve" smooth="yes"/>
      <point x="704" y="512"/>
      <point x="695" y="525"/>
      <point x="690" y="543" type="curve" smooth="yes"/>
      <point x="684" y="565"/>
      <point x="695" y="595"/>
      <point x="673" y="595" type="curve" smooth="yes"/>
      <point x="657" y="595"/>
      <point x="649" y="585"/>
      <point x="643" y="563" type="curve" smooth="yes"/>
      <point x="620" y="476"/>
      <point x="583" y="399"/>
      <point x="506" y="363" type="curve"/>
      <point x="635" y="364"/>
      <point x="651" y="224"/>
      <point x="651" y="150" type="curve" smooth="yes"/>
      <point x="651" y="109"/>
      <point x="650" y="94"/>
      <point x="683" y="93" type="curve" smooth="yes"/>
      <point x="727" y="92"/>
      <point x="737" y="150"/>
      <point x="737" y="150" type="curve"/>
      <point x="788" y="140" type="line"/>
      <point x="788" y="140"/>
      <point x="741" y="-16"/>
      <point x="609" y="-16" type="curve" smooth="yes"/>
      <point x="514" y="-16"/>
      <point x="480" y="24"/>
      <point x="480" y="76" type="curve" smooth="yes"/>
      <point x="481" y="246"/>
      <point x="539" y="324"/>
      <point x="399" y="325" type="curve"/>
    </contour>
  </outline>
</glyph>
<glyph name="afii10062" format="1">
  <advance width="676"/>
  <unicode hex="040E"/>
  <outline>
    <contour>
      <point x="618" y="894" type="curve"/>
      <point x="691" y="894" type="line"/>
      <point x="679" y="838"/>
      <point x="668" y="815"/>
      <point x="643" y="793" type="curve" smooth="yes"/>
      <point x="615" y="767"/>
      <point x="570" y="754"/>
      <point x="514" y="754" type="curve" smooth="yes"/>
      <point x="409" y="754"/>
      <point x="364" y="793"/>
      <point x="352" y="894" type="curve"/>
      <point x="425" y="894" type="line"/>
      <point x="439" y="851"/>
      <point x="462" y="837"/>
      <point x="518" y="837" type="curve" smooth="yes"/>
      <point x="573" y="837"/>
      <point x="600" y="853"/>
    </contour>
    <contour>
      <point x="452" y="318" type="line"/>
      <point x="566" y="483" type="line" smooth="yes"/>
      <point x="588" y="514"/>
      <point x="602" y="545"/>
      <point x="604" y="559" type="curve" smooth="yes"/>
      <point x="607" y="587"/>
      <point x="572" y="593"/>
      <point x="521" y="603" type="curve"/>
      <point x="534" y="681" type="line"/>
      <point x="833" y="681" type="line"/>
      <point x="819" y="600" type="line"/>
      <point x="765" y="592"/>
      <point x="736" y="589"/>
      <point x="669" y="492" type="curve" smooth="yes"/>
      <point x="435" y="154" type="line"/>
      <point x="336" y="28"/>
      <point x="286" y="-14"/>
      <point x="170" y="-14" type="curve" smooth="yes"/>
      <point x="113" y="-14"/>
      <point x="72" y="18"/>
      <point x="72" y="64" type="curve" smooth="yes"/>
      <point x="72" y="114"/>
      <point x="120" y="142"/>
      <point x="157" y="142" type="curve" smooth="yes"/>
      <point x="180" y="142"/>
      <point x="204" y="134"/>
      <point x="212" y="109" type="curve" smooth="yes"/>
      <point x="217" y="94"/>
      <point x="218" y="79"/>
      <point x="234" y="79" type="curve" smooth="yes"/>
      <point x="291" y="79"/>
      <point x="345" y="172"/>
      <point x="345" y="172" type="curve"/>
      <point x="207" y="557" type="line"/>
      <point x="187" y="600"/>
      <point x="167" y="595"/>
      <point x="119" y="602" type="curve"/>
      <point x="133" y="681" type="line"/>
      <point x="473" y="681" type="line"/>
      <point x="459" y="601" type="line"/>
      <point x="419" y="596"/>
      <point x="365" y="582"/>
      <point x="374" y="558" type="curve" smooth="yes"/>
      <point x="376" y="552"/>
      <point x="377" y="545"/>
      <point x="379" y="538" type="curve" smooth="yes"/>
    </contour>
  </outline>
</glyph>
<glyph name="afii10145" format="1">
  <advance width="800"/>
  <unicode hex="040F"/>
  <outline>
    <contour>
      <point x="333" y="0" type="line"/>
      <point x="14" y="0" type="line"/>
      <point x="29" y="81" type="line"/>
      <point x="51" y="83" type="line" smooth="yes"/>
      <point x="104" y="88"/>
      <point x="119" y="106"/>
      <point x="131" y="168" type="curve" smooth="yes"/>
      <point x="194" y="513" type="line" smooth="yes"/>
      <point x="196" y="524"/>
      <point x="198" y="543"/>
      <point x="198" y="552" type="curve" smooth="yes"/>
      <point x="198" y="580"/>
      <point x="181" y="595"/>
      <point x="145" y="598" type="curve" smooth="yes"/>
      <point x="123" y="600" type="line"/>
      <point x="138" y="681" type="line"/>
      <point x="486" y="681" type="line"/>
      <point x="471" y="600" type="line"/>
      <point x="448" y="598" type="line" smooth="yes"/>
      <point x="396" y="593"/>
      <point x="381" y="576"/>
      <point x="368" y="513" type="curve"/>
      <point x="290" y="90" type="line"/>
      <point x="540" y="90" type="line"/>
      <point x="619" y="513" type="line" smooth="yes"/>
      <point x="620" y="521"/>
      <point x="622" y="544"/>
      <point x="622" y="553" type="curve" smooth="yes"/>
      <point x="622" y="580"/>
      <point x="605" y="595"/>
      <point x="569" y="598" type="curve" smooth="yes"/>
      <point x="547" y="600" type="line"/>
      <point x="562" y="681" type="line"/>
      <point x="910" y="681" type="line"/>
      <point x="895" y="600" type="line"/>
      <point x="873" y="598" type="line" smooth="yes"/>
      <point x="820" y="593"/>
      <point x="805" y="575"/>
      <point x="793" y="513" type="curve" smooth="yes"/>
      <point x="730" y="168" type="line" smooth="yes"/>
      <point x="728" y="156"/>
      <point x="726" y="139"/>
      <point x="726" y="129" type="curve" smooth="yes"/>
      <point x="726" y="101"/>
      <point x="743" y="86"/>
      <point x="779" y="83" type="curve" smooth="yes"/>
      <point x="801" y="81" type="line"/>
      <point x="787" y="0" type="line"/>
      <point x="479" y="0" type="line"/>
      <point x="450" y="-154" type="line"/>
      <point x="304" y="-154" type="line"/>
    </contour>
  </outline>
</glyph>
<glyph name="afii10018" format="1">
  <advance width="731"/>
  <unicode hex="0411"/>
  <outline>
    <contour>
      <point x="137" y="681" type="line"/>
      <point x="709" y="681" type="line"/>
      <point x="763" y="445" type="line"/>
      <point x="694" y="427" type="line"/>
      <point x="664" y="493"/>
      <point x="622" y="532"/>
      <point x="605" y="546" type="curve" smooth="yes"/>
      <point x="565" y="578"/>
      <point x="521" y="593"/>
      <point x="463" y="593" type="curve" smooth="yes"/>
      <point x="394" y="593"/>
      <point x="380" y="582"/>
      <point x="368" y="511" type="curve" smooth="yes"/>
      <point x="351" y="417" type="line"/>
      <point x="351" y="417"/>
      <point x="394" y="425"/>
      <point x="423" y="425" type="curve" smooth="yes"/>
      <point x="720" y="425"/>
      <point x="739" y="320"/>
      <point x="739" y="242" type="curve" smooth="yes"/>
      <point x="739" y="182"/>
      <point x="707" y="108"/>
      <point x="657" y="66" type="curve" smooth="yes"/>
      <point x="604" y="22"/>
      <point x="530" y="0"/>
      <point x="435" y="0" type="curve" smooth="yes"/>
      <point x="14" y="0" type="line"/>
      <point x="29" y="81" type="line"/>
      <point x="51" y="83" type="line" smooth="yes"/>
      <point x="104" y="88"/>
      <point x="119" y="106"/>
      <point x="131" y="168" type="curve" smooth="yes"/>
      <point x="194" y="513" type="line" smooth="yes"/>
      <point x="196" y="525"/>
      <point x="198" y="542"/>
      <point x="198" y="552" type="curve" smooth="yes"/>
      <point x="198" y="580"/>
      <point x="181" y="595"/>
      <point x="145" y="598" type="curve" smooth="yes"/>
      <point x="123" y="600" type="line"/>
    </contour>
    <contour>
      <point x="336" y="334" type="curve"/>
      <point x="311" y="201" type="line"/>
      <point x="304" y="151"/>
      <point x="301" y="124"/>
      <point x="301" y="121" type="curve" smooth="yes"/>
      <point x="301" y="96"/>
      <point x="326" y="84"/>
      <point x="378" y="84" type="curve" smooth="yes"/>
      <point x="430" y="84"/>
      <point x="463" y="95"/>
      <point x="495" y="125" type="curve" smooth="yes"/>
      <point x="528" y="155"/>
      <point x="545" y="202"/>
      <point x="545" y="243" type="curve" smooth="yes"/>
      <point x="545" y="308"/>
      <point x="512" y="342"/>
      <point x="417" y="342" type="curve" smooth="yes"/>
      <point x="384" y="342"/>
      <point x="336" y="334"/>
    </contour>
  </outline>
</glyph>
<glyph name="afii10019" format="1">
  <advance width="720"/>
  <unicode hex="0412"/>
  <outline>
    <contour>
      <point x="137" y="681" type="line"/>
      <point x="514" y="681" type="line" smooth="yes"/>
      <point x="614" y="681"/>
      <point x="660" y="674"/>
      <point x="696" y="654" type="curve" smooth="yes"/>
      <point x="737" y="631"/>
      <point x="762" y="587"/>
      <point x="762" y="538" type="curve" smooth="yes"/>
      <point x="762" y="449"/>
      <point x="688" y="379"/>
      <point x="581" y="366" type="curve"/>
      <point x="675" y="364"/>
      <point x="739" y="310"/>
      <point x="739" y="232" type="curve" smooth="yes"/>
      <point x="739" y="172"/>
      <point x="707" y="108"/>
      <point x="657" y="66" type="curve" smooth="yes"/>
      <point x="604" y="22"/>
      <point x="530" y="0"/>
      <point x="435" y="0" type="curve" smooth="yes"/>
      <point x="14" y="0" type="line"/>
      <point x="29" y="81" type="line"/>
      <point x="51" y="83" type="line"/>
      <point x="104" y="90"/>
      <point x="119" y="106"/>
      <point x="131" y="168" type="curve" smooth="yes"/>
      <point x="194" y="513" type="line" smooth="yes"/>
      <point x="196" y="525"/>
      <point x="198" y="542"/>
      <point x="198" y="552" type="curve" smooth="yes"/>
      <point x="198" y="580"/>
      <point x="181" y="595"/>
      <point x="145" y="598" type="curve" smooth="yes"/>
      <point x="123" y="600" type="line"/>
    </contour>
    <contour>
      <point x="333" y="322" type="line"/>
      <point x="311" y="201" type="line"/>
      <point x="304" y="151"/>
      <point x="301" y="124"/>
      <point x="301" y="121" type="curve" smooth="yes"/>
      <point x="301" y="96"/>
      <point x="326" y="84"/>
      <point x="378" y="84" type="curve" smooth="yes"/>
      <point x="430" y="84"/>
      <point x="463" y="95"/>
      <point x="495" y="125" type="curve" smooth="yes"/>
      <point x="528" y="155"/>
      <point x="545" y="192"/>
      <point x="545" y="233" type="curve" smooth="yes"/>
      <point x="545" y="298"/>
      <point x="510" y="322"/>
      <point x="417" y="322" type="curve" smooth="yes"/>
    </contour>
    <contour>
      <point x="348" y="405" type="line"/>
      <point x="410" y="405" type="line" smooth="yes"/>
      <point x="523" y="405"/>
      <point x="585" y="444"/>
      <point x="585" y="517" type="curve" smooth="yes"/>
      <point x="585" y="572"/>
      <point x="544" y="600"/>
      <point x="465" y="600" type="curve" smooth="yes"/>
      <point x="434" y="600"/>
      <point x="413" y="597"/>
      <point x="398" y="589" type="curve" smooth="yes"/>
      <point x="385" y="583"/>
      <point x="378" y="567"/>
      <point x="370" y="525" type="curve" smooth="yes"/>
    </contour>
  </outline>
</glyph>
<glyph name="afii10020" format="1">
  <advance width="660"/>
  <unicode hex="0413"/>
  <outline>
    <contour>
      <point x="695" y="681" type="line"/>
      <point x="749" y="445" type="line"/>
      <point x="680" y="427" type="line"/>
      <point x="648" y="490"/>
      <point x="611" y="534"/>
      <point x="591" y="546" type="curve"/>
      <point x="551" y="578"/>
      <point x="517" y="593"/>
      <point x="459" y="593" type="curve" smooth="yes"/>
      <point x="390" y="593"/>
      <point x="380" y="582"/>
      <point x="368" y="511" type="curve" smooth="yes"/>
      <point x="306" y="168" type="line" smooth="yes"/>
      <point x="305" y="160"/>
      <point x="302" y="138"/>
      <point x="302" y="129" type="curve" smooth="yes"/>
      <point x="302" y="99"/>
      <point x="318" y="86"/>
      <point x="361" y="83" type="curve" smooth="yes"/>
      <point x="389" y="81" type="line"/>
      <point x="374" y="0" type="line"/>
      <point x="14" y="0" type="line"/>
      <point x="29" y="81" type="line"/>
      <point x="51" y="83" type="line" smooth="yes"/>
      <point x="104" y="88"/>
      <point x="119" y="106"/>
      <point x="131" y="168" type="curve" smooth="yes"/>
      <point x="194" y="513" type="line" smooth="yes"/>
      <point x="196" y="525"/>
      <point x="198" y="542"/>
      <point x="198" y="552" type="curve" smooth="yes"/>
      <point x="198" y="580"/>
      <point x="181" y="595"/>
      <point x="145" y="598" type="curve" smooth="yes"/>
      <point x="123" y="600" type="line"/>
      <point x="137" y="681" type="line"/>
    </contour>
  </outline>
</glyph>
<glyph name="afii10021" format="1">
  <advance width="848"/>
  <unicode hex="0414"/>
  <outline>
    <contour>
      <point x="366" y="92" type="curve" smooth="yes"/>
      <point x="535" y="92" type="line" smooth="yes"/>
      <point x="565" y="92"/>
      <point x="567" y="93"/>
      <point x="585" y="193" type="curve" smooth="yes"/>
      <point x="636" y="483" type="line" smooth="yes"/>
      <point x="651" y="569"/>
      <point x="648" y="585"/>
      <point x="615" y="585" type="curve" smooth="yes"/>
      <point x="526" y="585" type="line" smooth="yes"/>
      <point x="503" y="585"/>
      <point x="496" y="565"/>
      <point x="485" y="525" type="curve"/>
      <point x="437" y="332"/>
      <point x="438" y="319"/>
      <point x="357" y="155" type="curve"/>
      <point x="326" y="99"/>
      <point x="340" y="92"/>
    </contour>
    <contour>
      <point x="622" y="0" type="curve" smooth="yes"/>
      <point x="242" y="0" type="line" smooth="yes"/>
      <point x="121" y="0"/>
      <point x="139" y="-18"/>
      <point x="62" y="-135" type="curve"/>
      <point x="0" y="-128" type="line"/>
      <point x="71" y="85" type="line"/>
      <point x="159" y="86"/>
      <point x="195" y="83"/>
      <point x="229" y="144" type="curve" smooth="yes"/>
      <point x="302" y="274"/>
      <point x="303" y="309"/>
      <point x="349" y="486" type="curve"/>
      <point x="364" y="567"/>
      <point x="354" y="590"/>
      <point x="303" y="596" type="curve" smooth="yes"/>
      <point x="278" y="599" type="line"/>
      <point x="293" y="681" type="line"/>
      <point x="927" y="681" type="line"/>
      <point x="912" y="599" type="line"/>
      <point x="887" y="596" type="line" smooth="yes"/>
      <point x="834" y="590"/>
      <point x="817" y="568"/>
      <point x="803" y="486" type="curve" smooth="yes"/>
      <point x="751" y="189" type="line" smooth="yes"/>
      <point x="734" y="94"/>
      <point x="754" y="83"/>
      <point x="822" y="85" type="curve"/>
      <point x="805" y="-128" type="line"/>
      <point x="741" y="-128" type="line"/>
      <point x="745" y="-30"/>
      <point x="743" y="0"/>
    </contour>
  </outline>
</glyph>
